<ttFont>
          <CharString index="0">
            0 -7 1 -8 2 -7 10 -49 43 -36 52 0 59 0 48 48 0 59 0 8 0 7 -2 8 -10 48 -43 37 -52 0 -59 0 -49 -48 0 -60 rrcurveto
            return
          </CharString>
          <CharString index="1">
            0 -3 0 -3 1 -3 5 -27 24 -12 23 0 24 0 29 17 2 31 rrcurveto
            21 374 rlineto
            0 7 -1 7 -1 6 -9 38 -31 18 -32 0 rrcurveto
            -4 hlineto
            -36 -36 -26 -50 hvcurveto
            return
          </CharString>
          <CharString index="2">
            715 1182 -144 0 -721 -1182 rlineto
            return
          </CharString>
          <CharString index="3">
            -142 307 -311 141 311 308 142 -308 311 -141 -311 vlineto
            return
          </CharString>
          <CharString index="4">
            0 8 0 7 -2 8 -10 48 -43 37 -52 0 -59 0 -49 -48 0 -60 0 -7 1 -8 2 -7 10 -49 43 -35 52 0 0 -72 -51 -76 -21 -30 rrcurveto
            56 -31 rlineto
            22 35 101 123 0 157 rrcurveto
            return
          </CharString>
          <CharString index="5">
            -142 677 142 vlineto
            return
          </CharString>
          <CharString index="6">
            -968 -149 747 hlineto
            -516 -1307 182 0 rlineto
            return
          </CharString>
          <CharString index="7">
            -142 800 142 vlineto
            return
          </CharString>
          <CharString index="8">
            -141 800 141 vlineto
            return
          </CharString>
          <CharString index="9">
            211 -593 -415 0 rlineto
            return
          </CharString>
          <CharString index="10">
            160 -485 180 0 -524 1456 -127 0 -524 -1456 176 0 162 485 rlineto
            return
          </CharString>
          <CharString index="11">
            319 hlineto
            203 0 98 -95 24 -116 5 -21 2 -21 0 -22 rrcurveto
            -143 -92 -146 -240 vhcurveto
            -319 hlineto
            return
          </CharString>
          <CharString index="12">
            36 0 170 -2 31 0 238 0 73 -101 18 -84 4 -18 1 -17 0 -16 0 -88 -45 -147 -289 0 rrcurveto
            -237 hlineto
            return
          </CharString>
          <CharString index="13">
            -1456 477 vlineto
            436 51 287 137 hvcurveto
            0 21 -2 24 -6 27 -26 124 -93 162 -202 0 108 0 146 133 0 164 0 25 -3 26 -5 26 -31 145 -127 155 -328 0 rrcurveto
            return
          </CharString>
          <CharString index="14">
            0 0 -90 25 -57 16 -41 -119 -135 -104 -144 0 rrcurveto
            -272 -162 293 321 312 146 317 288 hvcurveto
            2 hlineto
            136 0 127 -78 39 -123 0 0 91 25 58 16 -47 133 -139 168 -265 0 rrcurveto
            -409 -193 -381 -389 -388 191 -366 409 hvcurveto
            265 0 141 162 61 160 rrcurveto
            return
          </CharString>
          <CharString index="15">
            -346 -115 -240 -348 vhcurveto
            -245 1174 245 hlineto
            353 110 -340 -248 hvcurveto
            return
          </CharString>
          <CharString index="16">
            376 -211 353 -377 vhcurveto
            -444 -1456 444 hlineto
            377 211 319 408 hvcurveto
            return
          </CharString>
          <CharString index="17">
            -1456 921 141 -763 535 720 141 -720 498 763 141 vlineto
            return
          </CharString>
          <CharString index="18">
            -1456 158 676 720 141 -720 498 763 141 vlineto
            return
          </CharString>
          <CharString index="19">
            6 hlineto
            372 155 348 291 hvcurveto
            86 -549 -141 393 vlineto
            -166 -84 -278 -293 -285 -149 328 292 273 148 350 288 vhcurveto
            152 0 76 -66 69 -96 0 0 84 41 54 27 -90 141 -121 94 -224 0 rrcurveto
            -411 -191 -424 -340 -392 212 -368 388 hvcurveto
            return
          </CharString>
          <CharString index="20">
            -1456 158 674 661 -674 158 1456 -158 -641 -661 641 vlineto
            return
          </CharString>
          <CharString index="21">
            157 1456 -157 hlineto
            return
          </CharString>
          <CharString index="22">
            0 -55 5 -53 11 -49 49 -234 162 -173 225 0 rrcurveto
            275 188 238 326 hvcurveto
            921 -158 -921 vlineto
            -201 -112 -213 -193 vhcurveto
            -156 0 -110 149 -34 160 -7 34 -4 36 0 35 rrcurveto
            return
          </CharString>
          <CharString index="23">
            -1456 158 516 vlineto
            188 186 561 -702 207 0 -664 803 648 653 -193 0 -747 -754 0 754 rlineto
            return
          </CharString>
          <CharString index="24">
            -1456 923 141 -765 1315 vlineto
            return
          </CharString>
          <CharString index="25">
            153 1204 hlineto
            428 -1188 179 0 428 1188 0 -1204 153 0 0 1456 -207 0 -460 -1247 -459 1247 -215 0 rlineto
            return
          </CharString>
          <CharString index="26">
            158 1190 hlineto
            747 -1190 145 0 0 1456 -157 0 0 -1161 -740 1161 -153 0 rlineto
            return
          </CharString>
          <CharString index="27">
            -268 -99 -344 -321 vhcurveto
            -236 0 -116 187 -44 207 -15 73 -7 75 0 70 0 270 96 359 322 0 237 0 115 -193 45 -209 16 -76 7 -79 0 -72 rrcurveto
            return
          </CharString>
          <CharString index="28">
            0 -69 7 -74 16 -74 58 -270 169 -267 334 0 428 0 158 435 0 319 0 71 -8 77 -16 77 -58 272 -169 273 -335 0 -428 0 -156 -448 0 -322 rrcurveto
            return
          </CharString>
          <CharString index="29">
            541 206 vlineto
            272 0 86 -107 21 -101 5 -21 1 -20 0 -19 rrcurveto
            -129 -65 -144 -320 vhcurveto
            return
          </CharString>
          <CharString index="30">
            -1456 158 631 206 vlineto
            379 168 190 226 hvcurveto
            0 29 -3 28 -5 28 -41 190 -182 134 -316 0 rrcurveto
            -206 hlineto
            return
          </CharString>
          <CharString index="31">
            541 206 vlineto
            279 106 -113 -155 -121 -59 -152 -326 hvcurveto
            return
          </CharString>
          <CharString index="32">
            181 0 -434 648 rlineto
            223 40 141 162 0 197 rrcurveto
            264 -237 145 -312 vhcurveto
            -206 0 -158 0 0 -1456 158 0 0 631 215 0 rlineto
            return
          </CharString>
          <CharString index="33">
            71 -195 152 -161 271 0 270 0 225 128 0 269 0 272 -226 116 -160 68 -179 76 -193 40 0 196 0 124 109 94 154 0 159 0 116 -98 28 -87 rrcurveto
            152 25 rlineto
            -52 166 -164 135 -239 0 -234 0 -191 -134 0 -225 0 -247 175 -84 145 -60 128 -53 319 -95 0 -226 0 -157 -160 -101 -182 0 -163 0 -136 139 -25 106 rrcurveto
            return
          </CharString>
          <CharString index="34">
            -141 477 -1315 158 1315 457 141 vlineto
            return
          </CharString>
          <CharString index="35">
            -811 vlineto
            -371 -166 -161 -195 vhcurveto
            -155 0 -137 102 -49 230 -13 59 -6 66 0 75 rrcurveto
            811 -162 -811 vlineto
            0 -84 7 -77 15 -70 60 -282 177 -161 263 0 rrcurveto
            328 194 252 422 hvcurveto
            811 vlineto
            return
          </CharString>
          <CharString index="36">
            -387 -1288 -385 1288 -170 0 446 -1456 219 0 441 1456 rlineto
            return
          </CharString>
          <CharString index="37">
            227 -1456 224 0 266 1229 266 -1229 219 0 230 1456 -160 0 -185 -1274 -274 1237 -195 0 -274 -1237 -184 1274 rlineto
            return
          </CharString>
          <CharString index="38">
            461 -727 -455 -729 178 0 360 586 353 -586 190 0 -459 729 453 727 -182 0 -355 -606 -362 606 rlineto
            return
          </CharString>
          <CharString index="39">
            444 -708 0 -748 158 0 0 748 446 708 -168 0 -356 -600 -356 600 rlineto
            return
          </CharString>
          <CharString index="40">
            -141 844 vlineto
            -873 -1315 1145 0 0 141 -876 0 864 1315 rlineto
            return
          </CharString>
          <CharString index="41">
            -280 344 -131 0 -277 -342 186 0 158 211 156 -213 rlineto
            return
          </CharString>
          <CharString index="42">
            -281 250 rlineto
            -16 13 -15 5 -17 0 -6 0 -6 0 -6 -2 -17 -4 -13 -10 -10 -14 -11 -13 -6 -16 0 -17 0 -7 2 -5 1 -5 4 -15 9 -14 14 -12 rrcurveto
            305 -219 rlineto
            8 -6 9 -3 9 0 4 0 5 1 5 1 13 3 11 7 8 10 8 11 5 11 0 13 0 5 -1 5 -1 4 -2 8 -5 8 -7 7 rrcurveto
            return
          </CharString>
          <CharString index="43">
            114 124 -95 -143 -133 -111 -105 -127 -143 -108 101 137 129 100 109 151 hvcurveto
            return
          </CharString>
          <CharString index="44">
            -205 -168 -158 -215 -226 159 -147 213 hvcurveto
            155 0 110 138 6 49 rrcurveto
            0 -2 0 -156 139 0 0 532 0 123 rlineto
            283 -173 152 -212 vhcurveto
            -143 0 -90 -52 -70 -57 rrcurveto
            78 -104 rlineto
            45 45 86 32 94 0 rrcurveto
            156 88 -110 -189 hvcurveto
            -96 vlineto
            -13 51 -100 107 -155 0 rrcurveto
            return
          </CharString>
          <CharString index="45">
            -152 -1454 152 184 hlineto
            47 -108 76 -105 174 0 rrcurveto
            282 115 283 285 289 -115 274 -280 hvcurveto
            -172 0 -80 -106 -47 -110 rrcurveto
            return
          </CharString>
          <CharString index="46">
            -275 -121 -158 -148 -148 -128 158 273 275 128 154 148 148 121 -150 -277 vhcurveto
            return
          </CharString>
          <CharString index="47">
            131 66 rlineto
            -65 118 -112 101 -162 0 rrcurveto
            -287 -174 -271 -286 -312 192 -254 267 hvcurveto
            165 0 115 115 61 101 rrcurveto
            -122 77 rlineto
            -21 -47 -74 -111 -124 0 rrcurveto
            -168 -138 166 265 247 142 174 166 hvcurveto
            102 0 86 -92 20 -57 rrcurveto
            return
          </CharString>
          <CharString index="48">
            -568 vlineto
            -47 110 -80 106 -172 0 rrcurveto
            -280 -115 -274 -289 -284 115 -284 281 hvcurveto
            175 0 76 105 47 108 rrcurveto
            -184 152 1454 vlineto
            return
          </CharString>
          <CharString index="49">
            277 121 150 148 148 128 -154 -275 -273 -128 -158 -148 -148 -121 158 275 vhcurveto
            return
          </CharString>
          <CharString index="50">
            11 170 90 184 160 0 158 0 92 -174 11 -180 rrcurveto
            return
          </CharString>
          <CharString index="51">
            668 hlineto
            0 23 -1 51 0 22 rrcurveto
            263 -137 266 -269 -266 -154 -242 -315 -314 153 -252 267 vhcurveto
            155 0 154 84 69 133 rrcurveto
            -133 55 rlineto
            -43 -81 -108 -56 -94 0 -160 0 -86 180 -15 183 rrcurveto
            return
          </CharString>
          <CharString index="52">
            196 135 -195 176 hlineto
            62 46 35 51 vhcurveto
            59 0 19 -23 22 -29 rrcurveto
            109 105 rlineto
            -47 45 -45 37 -86 0 rrcurveto
            -101 -181 -105 -168 hvcurveto
            -135 -138 -135 139 -938 152 vlineto
            return
          </CharString>
          <CharString index="53">
            0 18 0 1073 -152 0 0 -187 rlineto
            -47 110 -80 106 -172 0 rrcurveto
            -280 -115 -274 -289 -284 115 -284 282 hvcurveto
            174 0 76 105 47 108 rrcurveto
            0 -184 0 -33 rlineto
            -192 -138 -88 -125 vhcurveto
            -118 0 -127 84 -19 120 rrcurveto
            -143 hlineto
            17 -144 143 -196 256 0 rrcurveto
            202 204 158 273 hvcurveto
            return
          </CharString>
          <CharString index="54">
            540 vlineto
            228 79 197 186 186 73 -191 -233 vhcurveto
            -541 151 541 vlineto
            392 -156 169 -214 vhcurveto
            -158 0 -112 -98 -35 -112 rrcurveto
            564 -152 -1456 vlineto
            return
          </CharString>
          <CharString index="55">
            0 -6 1 -7 1 -6 9 -42 39 -33 44 0 51 0 43 43 0 51 0 7 0 6 -2 6 -9 43 -38 32 -45 0 -51 0 -43 -43 0 -51 rrcurveto
            return
          </CharString>
          <CharString index="56">
            -1073 151 1073 vlineto
            return
          </CharString>
          <CharString index="57">
            -53 45 -41 49 51 43 43 51 53 -45 41 -49 -51 -43 -43 -51 vhcurveto
            return
          </CharString>
          <CharString index="58">
            39 -37 45 -45 90 0 rrcurveto
            70 215 68 221 hvcurveto
            0 139 0 1073 -152 0 0 -1073 0 -170 rlineto
            -84 -34 -39 -68 vhcurveto
            -49 0 -25 27 -24 22 rrcurveto
            return
          </CharString>
          <CharString index="59">
            385 457 -174 0 -409 -491 0 872 -152 0 0 -1454 152 0 0 379 106 133 379 -512 174 0 rlineto
            return
          </CharString>
          <CharString index="60">
            1247 -151 -1251 vlineto
            0 -26 3 -22 4 -21 27 -125 95 -38 141 0 rrcurveto
            131 vlineto
            -60 0 -45 22 -11 53 -2 9 -1 10 0 11 rrcurveto
            return
          </CharString>
          <CharString index="61">
            549 vlineto
            216 46 193 176 175 25 -199 -216 vhcurveto
            -543 151 653 vlineto
            265 -86 184 -222 vhcurveto
            -153 0 -99 -112 -33 -130 -33 130 -96 112 -163 0 -158 0 -56 -110 -47 -101 rrcurveto
            182 -152 -1073 152 550 vlineto
            215 43 200 175 176 27 -203 -215 vhcurveto
            -547 vlineto
            return
          </CharString>
          <CharString index="62">
            540 vlineto
            228 79 197 186 186 73 -191 -233 vhcurveto
            -541 151 541 vlineto
            392 -156 169 -214 vhcurveto
            -158 0 -112 -98 -35 -112 rrcurveto
            181 -152 -1073 vlineto
            return
          </CharString>
          <CharString index="63">
            -314 150 -252 287 289 147 250 316 312 -151 245 -285 -287 -150 -242 -315 vhcurveto
            return
          </CharString>
          <CharString index="64">
            231 80 190 203 201 81 -190 -231 -233 -81 -198 -201 -203 -80 198 233 vhcurveto
            return
          </CharString>
          <CharString index="65">
            -152 -1501 152 612 hlineto
            47 -108 76 -105 174 0 rrcurveto
            283 114 283 285 289 -115 274 -280 hvcurveto
            -172 0 -80 -106 -47 -110 rrcurveto
            return
          </CharString>
          <CharString index="66">
            -46 24 -51 12 -54 0 -158 0 -112 -98 -35 -112 rrcurveto
            181 -152 -1073 152 540 vlineto
            228 79 197 186 vhcurveto
            42 0 38 -11 31 -19 rrcurveto
            return
          </CharString>
          <CharString index="67">
            97 -31 120 -47 0 -112 0 -113 -82 -68 -135 0 -131 0 -59 57 -36 82 rrcurveto
            -147 -28 rlineto
            47 -139 117 -107 213 0 197 0 170 130 0 186 0 231 -230 58 -139 51 -63 23 -134 36 0 127 0 101 99 49 98 0 125 0 56 -65 25 -57 rrcurveto
            146 30 rlineto
            -28 86 -98 141 -228 0 -186 -2 -162 -96 0 -191 0 -205 183 -73 165 -54 rrcurveto
            return
          </CharString>
          <CharString index="68">
            -727 vlineto
            -169 68 -71 200 vhcurveto
            70 127 -70 hlineto
            -77 -40 39 78 hvcurveto
            723 197 135 -197 250 -151 -250 -142 -135 vlineto
            return
          </CharString>
          <CharString index="69">
            -540 vlineto
            -228 -79 -197 -186 -186 -73 191 233 vhcurveto
            541 -151 -541 vlineto
            -392 156 -169 214 vhcurveto
            158 0 112 98 35 112 rrcurveto
            -181 152 1073 vlineto
            return
          </CharString>
          <CharString index="70">
            152 0 369 1073 -158 0 -287 -878 -280 878 -160 0 rlineto
            return
          </CharString>
          <CharString index="71">
            222 -862 122 0 287 1073 -153 0 -193 -823 -209 815 -151 0 -209 -815 -193 823 -153 0 286 -1073 117 0 rlineto
            return
          </CharString>
          <CharString index="72">
            -319 543 311 530 -170 0 -233 -434 -234 434 -170 0 312 -534 -314 -539 176 0 230 440 241 -440 rlineto
            return
          </CharString>
          <CharString index="73">
            1091 -152 -540 vlineto
            -228 -79 -197 -186 -186 -73 191 233 vhcurveto
            541 -151 -541 vlineto
            -392 156 -169 214 vhcurveto
            158 0 112 98 35 112 rrcurveto
            -214 vlineto
            -192 -150 -88 -125 vhcurveto
            -127 0 -78 61 -52 62 rrcurveto
            -106 -85 rlineto
            70 -81 113 -93 180 0 rrcurveto
            203 224 158 273 hvcurveto
            return
          </CharString>
          <CharString index="74">
            565 932 -776 0 0 -141 524 0 -565 -932 787 0 0 141 rlineto
            return
          </CharString>
          <CharString index="75">
            -146 vlineto
            56 46 47 51 78 0 82 0 71 -152 115 0 74 0 53 51 61 48 rrcurveto
            145 vlineto
            -61 -45 -57 -53 -70 0 -104 0 -64 151 -98 0 -78 0 -59 -59 -46 -37 rrcurveto
            return
          </CharString>
          <CharString index="76">
            0 -57 -4 -55 -8 -55 -8 -55 -15 -54 -21 -55 -21 -55 -25 -47 -31 -41 -31 -41 -40 -32 -49 -26 -49 -26 -56 -13 -62 0 -57 0 -51 11 -46 21 rrcurveto
            -46 21 -40 30 -31 38 -31 38 -26 41 -20 45 -20 45 -17 49 -11 55 -15 71 -7 73 0 74 0 57 4 56 8 56 8 56 14 56 20 56 rrcurveto
            20 56 26 50 31 42 31 42 40 35 49 27 49 27 56 13 62 0 57 0 52 -10 46 -22 46 -22 39 -30 31 -39 31 -39 26 -42 20 -46 rrcurveto
            20 -46 17 -51 12 -55 15 -73 8 -75 0 -79 rrcurveto
            return
          </CharString>
          <CharString index="77">
            0 -74 8 -72 15 -71 15 -71 22 -67 29 -61 29 -61 36 -57 45 -52 45 -52 55 -41 66 -30 66 -30 73 -15 80 0 82 0 74 16 68 32 rrcurveto
            68 32 56 42 44 51 44 51 36 60 30 67 30 67 21 68 13 67 13 67 7 67 0 67 0 73 -8 75 -16 77 -15 72 -22 67 -29 62 rrcurveto
            -29 62 -36 58 -45 53 -45 53 -55 41 -66 31 -66 31 -73 15 -81 0 -82 0 -74 -16 -68 -33 -68 -33 -56 -43 -43 -53 -43 -53 -37 -60 -30 -69 rrcurveto
            -30 -69 -21 -68 -13 -69 -13 -69 -6 -68 0 -67 rrcurveto
            return
          </CharString>
          <CharString index="78">
            0 7 -1 8 -2 7 -10 49 -43 36 -52 0 -59 0 -48 -48 0 -59 0 -8 0 -7 2 -8 10 -48 43 -37 52 0 59 0 49 48 0 60 rrcurveto
            return
          </CharString>
          <CharString index="79">
            0 -5 1 -6 1 -8 5 -22 11 -18 17 -14 17 -14 20 -8 22 0 25 0 22 9 19 19 19 19 9 22 0 26 0 8 -1 6 -1 5 rrcurveto
            -5 21 -11 19 -17 14 -17 14 -20 7 -22 0 -25 0 -22 -9 -19 -19 -19 -19 -9 -22 0 -25 rrcurveto
            return
          </CharString>
          <CharString index="80">
            0 -9 1 -6 1 -4 5 -22 11 -18 17 -14 17 -14 20 -8 22 0 25 0 22 9 19 19 19 19 9 22 0 26 0 8 -1 6 -1 5 rrcurveto
            -5 21 -11 19 -17 14 -17 14 -20 7 -22 0 -25 0 -22 -9 -19 -19 -19 -19 -9 -22 0 -25 rrcurveto
            return
          </CharString>
          <CharString index="81">
            -106 677 106 vlineto
            return
          </CharString>
          <CharString index="82">
            83 63 67 81 vhcurveto
            70 0 57 -50 14 -67 2 -11 1 -11 0 -11 0 -84 -63 -66 -81 0 -70 0 -57 49 -14 67 -2 11 -1 11 0 12 rrcurveto
            return
          </CharString>
          <CharString index="83">
            0 -19 2 -18 4 -17 25 -117 105 -88 126 0 146 0 116 115 0 144 0 18 -1 18 -4 17 -25 117 -105 88 -127 0 -145 0 -117 -115 0 -143 rrcurveto
            return
          </CharString>
          <CharString index="84">
            11 35 rlineto
            10 32 17 24 22 17 22 17 24 8 26 0 26 0 22 -10 20 -20 20 -20 10 -27 0 -36 rrcurveto
            -4 -31 -8 -23 -14 -23 -16 -19 -21 -19 -22 -17 rlineto
            -2 -2 -9 -4 -13 -9 rrcurveto
            -22 -16 rlineto
            -25 -18 -22 -16 -19 -16 -19 -16 -20 -19 -22 -23 -22 -23 -18 -24 -15 -25 -15 -25 -11 -29 -10 -32 -10 -32 -5 -33 0 -35 rrcurveto
            -35 524 140 -351 vlineto
            8 16 rlineto
            5 9 9 13 15 17 15 17 15 15 16 15 16 15 13 12 12 8 rrcurveto
            22 14 29 20 rlineto
            9 6 11 9 14 11 14 11 12 11 11 10 11 10 11 12 12 15 12 15 10 15 8 15 8 15 7 18 5 19 5 19 3 19 0 20 rrcurveto
            0 33 -5 31 -9 29 -9 29 -12 24 -16 20 -16 20 -19 17 -21 14 -21 14 -22 10 -23 6 -23 6 -24 3 -25 0 -58 0 -54 -18 -49 -37 rrcurveto
            -49 -37 -32 -44 -15 -54 rrcurveto
            -9 -30 rlineto
            return
          </CharString>
          <CharString index="85">
            16 -36 rlineto
            21 -50 35 -39 48 -29 48 -29 49 -15 48 0 78 0 66 25 54 49 54 49 27 62 0 76 0 28 -4 27 -10 26 -10 26 -13 22 -15 18 rrcurveto
            -14 17 -15 15 -15 12 16 16 15 21 13 28 13 28 6 30 0 32 0 43 -12 40 -23 35 -23 35 -29 27 -36 18 -36 18 -37 10 -39 0 rrcurveto
            -48 0 -43 -12 -39 -25 -39 -25 -29 -33 -21 -41 rrcurveto
            -17 -32 134 -62 15 32 rlineto
            8 18 11 15 14 10 14 10 18 5 19 0 rrcurveto
            3 hlineto
            22 0 20 -8 18 -17 18 -17 8 -21 0 -23 0 -28 -9 -22 -17 -18 -17 -18 -20 -9 -22 0 rrcurveto
            -84 -132 74 hlineto
            16 0 17 -3 15 -5 15 -5 14 -8 12 -10 12 -10 10 -11 7 -15 7 -15 4 -18 0 -19 0 -36 -12 -29 -25 -22 -25 -22 -31 -11 -38 0 rrcurveto
            -21 0 -20 6 -21 14 -21 14 -15 18 -10 21 rrcurveto
            -13 27 rlineto
            return
          </CharString>
          <CharString index="86">
            -7 -7 -5 -8 -2 -8 -1 -4 -1 -5 0 -5 0 -13 5 -11 8 -11 8 -10 11 -7 13 -3 5 -1 5 -1 4 0 9 0 9 3 8 6 rrcurveto
            305 219 rlineto
            14 12 9 14 4 15 1 5 2 5 0 7 0 17 -6 16 -11 13 -10 14 -13 10 -17 4 -6 2 -6 0 -6 0 -17 0 -15 -5 -16 -13 rrcurveto
            return
          </CharString>
          <CharString index="87">
            43 -125 rlineto
            69 45 140 61 0 111 0 13 -2 13 -2 12 -12 54 -33 46 -35 34 rrcurveto
            -129 -56 rlineto
            27 -39 21 -24 5 -26 1 -5 1 -5 0 -5 0 -37 -64 -45 -30 -22 rrcurveto
            return
          </CharString>
          <CharString index="88">
            -603 148 798 -97 vlineto
            -174 -195 rlineto
            return
          </CharString>
          <CharString index="89">
            0 41 14 36 28 29 28 29 33 15 41 0 35 0 30 -11 26 -22 26 -22 17 -28 7 -34 2 -11 1 -11 0 -11 0 -42 -14 -36 -28 -29 rrcurveto
            -28 -29 -33 -14 -41 0 -35 0 -30 11 -26 22 -26 22 -17 27 -7 34 -2 11 -1 11 0 12 rrcurveto
            return
          </CharString>
          <CharString index="90">
            459 -140 vlineto
            -343 -599 335 0 0 -199 148 0 0 199 94 0 0 140 rlineto
            return
          </CharString>
          <CharString index="91">
            99 173 0 -173 rlineto
            return
          </CharString>
          <CharString index="92">
            1059 1746 -144 0 -1065 -1746 rlineto
            return
          </CharString>
          <CharString index="93">
            -645 598 147 -442 494 442 147 -442 519 442 149 -709 vlineto
            -591 -1456 179 0 259 645 rlineto
            return
          </CharString>
          <CharString index="94">
            2 -449 -204 0 202 523 rlineto
            return
          </CharString>
          <CharString index="95">
            -1073 152 1073 vlineto
            return
          </CharString>
          <CharString index="96">
            -41 1 -34 9 -25 16 -52 35 -42 54 -33 75 rrcurveto
            -81 -10 hlineto
            0 -45 22 -60 44 -74 23 -38 34 -32 47 -27 44 -25 45 -13 44 0 44 0 45 13 44 25 47 27 34 32 23 38 44 74 22 60 0 45 rrcurveto
            10 -80 vlineto
            -46 -81 -43 -55 -39 -28 -23 -15 -30 -9 -37 -2 rrcurveto
            return
          </CharString>
          <CharString index="97">
            -13 10 -10 8 -6 4 -6 4 -9 8 -13 11 -13 11 -9 10 -6 10 -6 10 -3 9 0 9 0 3 1 5 1 7 2 11 6 14 10 15 rrcurveto
            10 15 12 17 13 17 rrcurveto
            -129 56 rlineto
            -43 -41 -26 -45 -11 -48 -3 -16 -1 -13 0 -9 0 -21 4 -20 9 -19 9 -19 14 -17 19 -16 19 -16 16 -14 14 -10 14 -10 19 -12 25 -15 rrcurveto
            25 -15 15 -9 7 -4 rrcurveto
            return
          </CharString>
          <CharString index="98">
            -188 0 -156 -213 -158 211 -186 0 277 -342 131 0 rlineto
            return
          </CharString>
          <CharString index="99">
            13 vlineto
            0 21 -13 20 -13 12 -14 13 -16 7 -18 0 -21 0 -17 -8 -15 -17 -15 -17 -8 -20 0 -24 0 -6 1 -7 1 -5 4 -20 8 -15 14 -13 rrcurveto
            14 -13 16 -6 18 0 0 -40 -16 -48 -34 -55 rrcurveto
            39 -24 15 23 rlineto
            9 16 8 14 6 13 6 13 7 15 9 21 9 21 6 22 4 23 4 23 2 25 0 23 rrcurveto
            return
          </CharString>
          <CharString index="100">
            0 133 25 104 51 76 51 76 65 38 77 0 77 0 66 -38 53 -77 53 -77 27 -104 0 -133 0 -132 -27 -105 -53 -78 -53 -78 -66 -38 -77 0 rrcurveto
            -77 0 -64 38 -51 78 -51 78 -26 106 0 133 rrcurveto
            return
          </CharString>
          <CharString index="101">
            -146 vlineto
            20 16 19 16 16 14 16 14 19 12 22 10 22 10 23 5 24 0 15 0 16 -5 17 -10 17 -10 16 -13 16 -15 16 -15 17 -16 17 -15 rrcurveto
            17 -15 19 -13 21 -10 21 -10 22 -5 21 0 23 0 22 5 23 10 23 10 19 12 18 15 18 15 20 15 22 17 rrcurveto
            145 vlineto
            -22 -16 -20 -15 -18 -14 -18 -14 -21 -14 -23 -10 -23 -10 -22 -5 -21 0 -19 0 -20 5 -19 10 -19 10 -18 13 -16 15 -16 15 -16 14 -16 15 rrcurveto
            -16 15 -17 13 -19 10 -19 10 -18 6 -18 0 -24 0 -24 -5 -24 -11 -24 -11 -20 -13 -16 -14 -16 -14 -18 -15 -17 -13 rrcurveto
            return
          </CharString>
          <CharString index="102">
            0 -26 9 -23 19 -18 19 -18 22 -9 25 0 25 0 22 9 19 19 19 19 9 22 0 25 0 26 -9 23 -19 18 -19 18 -22 9 -25 0 rrcurveto
            -25 0 -22 -9 -19 -19 -19 -19 -9 -22 0 -25 rrcurveto
            return
          </CharString>
          <CharString index="103">
            19 -18 14 -14 11 -8 11 -8 17 -9 24 -10 24 -10 26 -5 28 0 16 0 19 2 22 6 22 6 25 10 27 14 27 14 24 19 23 21 rrcurveto
            23 21 19 27 15 34 15 34 8 39 0 42 rrcurveto
            0 139 0 1073 -152 0 0 -1073 0 -170 rlineto
            -82 -34 -41 -68 vhcurveto
            -9 0 -9 1 -8 2 -8 2 -8 3 -6 3 -6 3 -7 5 -6 4 -6 4 -5 4 -5 4 -5 4 -5 5 -5 5 rrcurveto
            return
          </CharString>
          <CharString index="104">
            0 -5 1 -6 1 -8 5 -21 11 -19 17 -14 17 -14 20 -7 22 0 25 0 22 9 19 19 19 19 9 22 0 25 0 9 -1 6 -1 4 rrcurveto
            -5 21 -11 19 -17 14 -17 14 -19 7 -23 0 -25 0 -22 -9 -19 -19 -19 -19 -9 -22 0 -25 rrcurveto
            return
          </CharString>
          <CharString index="105">
            -1072 158 vlineto
            1 405 440 -405 216 0 -560 540 506 537 -186 0 -417 -437 0 432 rlineto
            return
          </CharString>
          <CharString index="106">
            -5 -9 -3 -8 0 -9 0 -3 0 -4 1 -3 3 -13 7 -12 12 -9 11 -7 12 -4 13 0 15 0 13 6 9 11 rrcurveto
            238 290 rlineto
            11 15 5 16 0 16 0 4 0 4 -1 5 -4 19 -10 14 -15 11 -13 11 -16 6 -17 0 -24 0 -20 -11 -16 -22 rrcurveto
            return
          </CharString>
          <CharString index="107">
            0 81 10 71 18 61 18 61 31 50 43 39 43 39 55 19 65 0 54 0 44 -11 36 -24 -21 -30 -17 -35 -15 -37 -33 -83 -16 -95 0 -106 rrcurveto
            0 -106 17 -95 32 -85 15 -39 18 -36 22 -32 rrcurveto
            -7 -4 rlineto
            -37 -23 -43 -11 -49 0 -49 0 -43 11 -37 23 -37 23 -30 31 -22 40 -22 40 -16 46 -11 51 -11 51 -5 55 0 60 rrcurveto
            return
          </CharString>
          <CharString index="108">
            0 -107 16 -95 32 -84 32 -84 51 -68 67 -51 67 -51 79 -26 93 0 90 0 78 24 65 47 63 -47 73 -24 83 0 79 0 74 20 70 39 rrcurveto
            70 39 51 53 34 66 rrcurveto
            -133 55 rlineto
            -21 -40 -34 -33 -47 -26 -47 -26 -48 -12 -48 0 -51 0 -45 18 -39 36 -39 36 -29 44 -20 53 -20 53 -13 59 -5 64 rrcurveto
            668 49 hlineto
            0 24 -1 16 0 7 0 67 -9 65 -17 62 -17 62 -25 57 -33 50 -33 50 -43 40 -53 30 -53 30 -58 16 -65 0 -84 0 -74 -23 -63 -47 rrcurveto
            -66 47 -76 23 -89 0 -70 0 -63 -14 -56 -28 -56 -28 -46 -40 -36 -50 -36 -50 -27 -60 -19 -67 -19 -67 -9 -74 0 -79 rrcurveto
            return
          </CharString>
          <CharString index="109">
            4 59 12 57 20 52 20 52 30 44 40 36 40 36 44 18 51 0 75 0 60 -34 47 -70 47 -70 26 -83 6 -97 rrcurveto
            return
          </CharString>
          <CharString index="110">
            43 -125 68 41 rlineto
            94 57 47 60 0 60 0 7 0 6 -1 6 -1 6 -1 7 -1 7 -11 48 -27 44 -42 41 rrcurveto
            -129 -56 rlineto
            34 -48 18 -30 1 -12 1 -3 1 -4 0 -7 0 -23 -31 -36 -63 -46 rrcurveto
            return
          </CharString>
          <CharString index="111">
            0 37 13 33 25 26 25 26 30 13 37 0 31 0 28 -9 23 -20 23 -20 15 -25 7 -31 2 -10 1 -10 0 -10 0 -38 -13 -31 -25 -26 rrcurveto
            -25 -26 -30 -13 -37 0 -31 0 -28 9 -23 20 -23 20 -15 24 -7 31 -2 10 -1 9 0 11 rrcurveto
            return
          </CharString>
          <CharString index="112">
            0 -17 2 -16 4 -16 11 -53 27 -44 43 -35 43 -35 50 -17 56 0 65 0 56 23 46 45 46 45 23 55 0 65 0 19 -2 16 -3 13 rrcurveto
            -11 53 -28 44 -43 35 -43 35 -50 17 -56 0 -65 0 -56 -23 -46 -45 -46 -45 -23 -55 0 -64 rrcurveto
            return
          </CharString>
          <CharString index="113">
            -135 604 135 vlineto
            return
          </CharString>
          <CharString index="114">
            -136 605 136 vlineto
            return
          </CharString>
          <CharString index="115">
            80 -79 94 -39 104 0 36 0 35 7 35 15 35 15 28 17 23 21 23 21 18 21 14 20 14 20 7 15 2 13 rrcurveto
            -156 140 1073 -140 -70 vlineto
            -68 58 -82 29 -96 0 -113 0 -100 -36 -89 -73 -73 -77 -37 -105 0 -135 rrcurveto
            0 -3 1 -252 rlineto
            1 -137 36 -107 72 -76 rrcurveto
            return
          </CharString>
          <CharString index="116">
            1 96 21 74 41 51 23 23 29 17 35 13 35 13 40 6 46 0 78 0 61 -26 42 -52 42 -52 20 -74 1 -95 rrcurveto
            2 -314 rlineto
            0 -64 -23 -55 -47 -46 -47 -46 -57 -24 -64 0 -99 0 -71 27 -44 55 -42 52 -22 74 0 95 rrcurveto
            return
          </CharString>
          <CharString index="117">
            0 -133 -26 -106 -51 -78 -51 -78 -64 -38 -77 0 -77 0 -66 38 -53 78 -53 78 -27 105 0 132 0 133 27 104 53 77 53 77 66 38 77 0 rrcurveto
            77 0 64 -38 51 -76 51 -76 26 -104 0 -133 rrcurveto
            return
          </CharString>
          <CharString index="118">
            12 33 26 33 40 33 40 33 43 17 47 0 85 0 73 -40 60 -80 60 -80 30 -100 0 -121 0 -129 -29 -105 -59 -79 -59 -79 -72 -39 -87 0 rrcurveto
            -29 0 -27 6 -26 12 -26 12 -23 14 -18 18 -18 18 -14 17 -11 16 -11 16 -9 15 -7 14 rrcurveto
            -122 -77 rlineto
            16 -27 19 -26 21 -24 21 -24 26 -22 28 -22 28 -22 32 -17 36 -13 36 -13 39 -6 39 0 87 0 79 25 70 51 70 51 55 68 39 86 rrcurveto
            39 86 20 96 0 103 0 57 -7 56 -13 54 -13 54 -20 51 -27 47 -27 47 -32 42 -36 35 -36 35 -43 29 -49 20 -49 20 -53 10 -56 0 rrcurveto
            -76 0 -67 -20 -57 -41 -57 -41 -46 -52 -36 -65 rrcurveto
            return
          </CharString>
          <CharString index="119">
            -4 -59 -12 -56 -20 -52 -20 -52 -30 -45 -40 -36 -40 -36 -44 -18 -51 0 -75 0 -60 35 -47 70 -47 70 -26 82 -6 97 rrcurveto
            return
          </CharString>
          <CharString index="120">
            -668 -48 hlineto
            0 -24 1 -17 0 -7 0 -67 9 -65 17 -62 17 -62 25 -56 33 -50 33 -50 43 -42 53 -30 53 -30 58 -15 65 0 87 0 75 25 64 49 rrcurveto
            64 49 48 67 33 83 33 83 16 95 0 106 0 106 -17 95 -32 85 -32 85 -48 68 -64 51 -64 51 -76 25 -87 0 -79 0 -74 -20 -70 -39 rrcurveto
            -70 -39 -51 -53 -34 -66 rrcurveto
            133 -55 rlineto
            21 40 34 32 47 26 47 26 48 13 48 0 51 0 45 -17 39 -36 39 -36 29 -45 20 -53 20 -53 13 -59 5 -64 rrcurveto
            return
          </CharString>
          <CharString index="121">
            -117 38 rlineto
            -19 -35 -30 -30 -40 -22 -40 -22 -41 -11 -42 0 -70 0 -59 19 -49 36 -49 36 -24 48 0 61 0 80 10 55 19 27 17 24 22 21 27 17 rrcurveto
            27 17 26 13 24 7 28 9 29 4 30 0 rrcurveto
            57 125 -72 hlineto
            -47 0 -44 9 -41 20 -41 20 -20 34 0 49 0 34 24 33 48 33 26 18 35 8 42 0 rrcurveto
            17 hlineto
            39 0 35 -11 32 -22 32 -22 24 -27 16 -31 rrcurveto
            100 52 rlineto
            -28 57 -40 45 -52 35 -52 35 -59 17 -65 0 -53 0 -50 -12 -48 -23 -43 -21 -40 -33 -35 -46 -30 -40 -15 -37 0 -34 0 -47 11 -36 21 -25 rrcurveto
            15 -15 22 -15 31 -15 27 -13 27 -11 28 -9 rrcurveto
            -84 -42 rlineto
            -12 -2 -27 -19 -40 -37 -25 -23 -20 -27 -17 -33 -17 -32 -8 -59 0 -86 0 -97 38 -80 75 -63 75 -63 92 -32 110 0 67 0 67 20 68 41 rrcurveto
            68 41 48 54 29 68 rrcurveto
            return
          </CharString>
          <CharString index="122">
            0 133 26 104 51 76 51 76 64 38 77 0 77 0 66 -38 53 -77 53 -77 27 -104 0 -133 0 -132 -27 -105 -53 -78 -53 -78 -66 -38 -77 0 rrcurveto
            -77 0 -64 38 -51 78 -51 78 -26 106 0 133 rrcurveto
            return
          </CharString>
          <CharString index="123">
            1247 -151 -1251 vlineto
            0 -21 2 -23 5 -25 13 -59 28 -42 44 -25 44 -25 59 -12 75 0 rrcurveto
            131 vlineto
            -67 0 -38 25 -11 50 -2 9 -1 10 0 11 rrcurveto
            return
          </CharString>
          <CharString index="124">
            -51 0 -44 18 -39 36 -39 36 -30 44 -20 53 -20 53 -13 59 -5 64 rrcurveto
            524 0 -2 -9 rlineto
            -4 -59 -12 -57 -20 -52 -20 -52 -29 -44 -40 -36 -40 -36 -45 -18 -51 0 rrcurveto
            return
          </CharString>
          <CharString index="125">
            4 59 12 57 20 52 20 52 29 44 40 36 40 36 45 18 51 0 75 0 60 -34 47 -70 47 -70 26 -83 6 -97 rrcurveto
            return
          </CharString>
          <CharString index="126">
            -869 vlineto
            -64 24 -58 38 -54 54 -89 89 -45 107 0 124 0 149 37 112 74 77 58 58 66 31 75 6 rrcurveto
            return
          </CharString>
          <CharString index="127">
            88 -87 44 -106 0 -125 rrcurveto
            -5 vlineto
            -1 -128 -45 -108 -87 -89 -72 -68 -71 -42 -71 -15 rrcurveto
            877 vlineto
            93 -19 72 -35 50 -50 rrcurveto
            return
          </CharString>
          <CharString index="128">
            346 hlineto
            110 0 93 30 75 60 75 60 38 76 0 92 0 32 -8 32 -17 32 -11 21 -20 26 -31 32 -23 23 -26 19 -29 13 rrcurveto
            -78 31 74 40 rlineto
            24 15 24 26 22 36 21 35 11 36 0 37 0 51 -15 45 -31 42 -31 42 -40 31 -47 22 -49 22 -50 12 -53 0 rrcurveto
            -354 hlineto
            return
          </CharString>
          <CharString index="129">
            307 210 vlineto
            4 hlineto
            46 0 42 -15 36 -29 36 -29 18 -35 0 -41 0 -46 -17 -37 -35 -30 -35 -30 -42 -15 -47 0 rrcurveto
            return
          </CharString>
          <CharString index="130">
            202 hlineto
            28 0 29 -4 29 -8 26 -7 25 -12 25 -16 29 -18 23 -20 16 -21 19 -25 9 -27 0 -30 0 -58 -25 -46 -49 -34 -49 -35 -60 -17 -69 0 rrcurveto
            -208 hlineto
            return
          </CharString>
          <CharString index="131">
            -1074 151 467 410 -466 vlineto
            153 -1 0 1074 -153 1 0 -471 -410 -1 0 471 rlineto
            return
          </CharString>
          <CharString index="132">
            -515 158 374 661 -374 158 515 vlineto
            return
          </CharString>
          <CharString index="133">
            -207 -313 rlineto
            -5 -10 -4 -9 0 -10 0 -15 7 -13 12 -10 12 -10 14 -5 15 0 14 0 12 5 11 11 rrcurveto
            240 291 rlineto
            11 15 5 15 0 15 0 16 -8 17 -14 17 -14 17 -19 9 -23 0 -26 0 -19 -11 -14 -22 rrcurveto
            return
          </CharString>
          <CharString index="134">
            -168 hlineto
            23 -66 29 -54 34 -42 38 -48 44 -36 51 -24 51 -24 54 -12 59 0 66 0 58 14 51 28 51 28 42 39 36 51 29 38 23 49 19 57 rrcurveto
            -155 0 -31 -58 rlineto
            -20 -40 -27 -28 -33 -17 -33 -17 -36 -9 -40 0 -72 0 -61 38 -51 77 -12 14 -11 19 -8 23 rrcurveto
            return
          </CharString>
          <CharString index="135">
            0 -8 1 -6 1 -4 rrcurveto
            6 -21 rlineto
            16 -37 29 -18 41 0 15 0 12 3 10 5 38 16 20 29 0 41 0 8 -1 7 -1 4 rrcurveto
            -7 20 rlineto
            -16 37 -29 19 -41 0 -15 0 -12 -4 -10 -5 -38 -16 -19 -29 0 -41 rrcurveto
            return
          </CharString>
          <CharString index="136">
            0 -8 1 -6 1 -4 rrcurveto
            6 -21 rlineto
            16 -37 29 -18 41 0 15 0 12 3 10 5 38 16 20 29 0 41 0 8 -1 7 -1 4 rrcurveto
            -6 20 rlineto
            -16 37 -30 19 -41 0 -15 0 -11 -4 -10 -5 -38 -16 -20 -29 0 -41 rrcurveto
            return
          </CharString>
          <CharString index="137">
            0 25 6 23 12 23 27 52 43 26 57 0 15 0 15 -2 15 -4 52 -19 33 -37 12 -55 1 -5 1 -6 0 -5 rrcurveto
            -16 vlineto
            0 -23 -6 -24 -11 -25 -27 -52 -43 -26 -57 0 -18 0 -15 2 -14 4 -51 18 -31 37 -12 56 -3 14 -1 11 0 8 rrcurveto
            return
          </CharString>
          <CharString index="138">
            0 -8 1 -7 1 -4 rrcurveto
            6 -20 rlineto
            16 -37 29 -19 41 0 15 0 12 4 10 5 38 16 20 29 0 41 0 8 -1 6 -1 4 rrcurveto
            -7 21 rlineto
            -16 37 -29 18 -41 0 -15 0 -12 -3 -10 -5 -38 -16 -19 -29 0 -41 rrcurveto
            return
          </CharString>
          <CharString index="139">
            0 -8 1 -7 1 -4 rrcurveto
            6 -20 rlineto
            16 -37 29 -19 41 0 15 0 12 4 10 5 38 16 19 29 0 41 0 8 -1 6 -1 4 rrcurveto
            -6 21 rlineto
            -16 37 -29 18 -41 0 -15 0 -12 -3 -10 -5 -38 -16 -19 -29 0 -41 rrcurveto
            return
          </CharString>
          <CharString index="140">
            0 -8 1 -7 1 -4 rrcurveto
            6 -20 rlineto
            16 -37 29 -19 41 0 15 0 12 4 10 5 38 16 20 29 0 41 0 8 -1 6 -1 4 rrcurveto
            -6 21 rlineto
            -16 37 -30 18 -41 0 -15 0 -11 -3 -10 -5 -38 -16 -20 -29 0 -41 rrcurveto
            return
          </CharString>
          <CharString index="141">
            0 -8 1 -7 2 -7 5 -25 13 -20 19 -16 19 -16 23 -8 26 0 29 0 25 10 21 21 21 21 11 26 0 29 0 10 -1 8 -1 5 rrcurveto
            -5 24 -13 21 -19 16 -19 16 -23 8 -26 0 -29 0 -26 -11 -21 -21 -21 -21 -11 -25 0 -30 rrcurveto
            return
          </CharString>
          <CharString index="142">
            15 37 26 34 37 29 34 28 49 13 63 0 85 0 74 -44 65 -87 65 -87 33 -105 0 -121 0 -129 -29 -105 -59 -79 -59 -79 -72 -39 -87 0 rrcurveto
            -29 0 -27 6 -26 12 -26 12 -23 14 -18 18 -18 18 -14 17 -11 16 -11 16 -9 15 -7 14 rrcurveto
            -122 -77 rlineto
            16 -27 19 -26 21 -24 21 -24 26 -22 28 -22 28 -22 32 -17 36 -13 36 -13 39 -6 39 0 87 0 79 25 70 51 70 51 55 68 39 86 rrcurveto
            39 86 20 96 0 103 0 57 -7 56 -13 54 -13 54 -20 51 -27 47 -27 47 -32 42 -36 35 -36 35 -43 29 -49 20 -49 20 -53 10 -56 0 rrcurveto
            -76 0 -67 -20 -57 -41 -57 -41 -46 -52 -36 -65 rrcurveto
            return
          </CharString>
          <CharString index="143">
            0 -8 1 -7 2 -7 5 -25 13 -20 19 -16 19 -16 23 -8 26 0 29 0 25 11 21 21 21 21 11 25 0 29 0 10 -1 8 -1 5 rrcurveto
            -5 24 -13 20 -19 16 -19 16 -23 9 -26 0 -29 0 -26 -10 -21 -21 -21 -21 -11 -26 0 -30 rrcurveto
            return
          </CharString>
          <CharString index="144">
            0 -10 2 -8 4 -8 rrcurveto
            6 -9 rlineto
            9 -10 12 -6 15 -2 rrcurveto
            6 hlineto
            11 0 10 2 10 6 13 7 7 12 3 15 rrcurveto
            48 251 rlineto
            0 3 1 4 0 3 0 15 -4 12 -7 12 -2 3 -2 3 -3 4 -11 14 -16 8 -20 2 -5 1 -4 0 -5 0 -12 0 -11 -3 -11 -6 rrcurveto
            -21 -12 -12 -20 -3 -27 rrcurveto
            return
          </CharString>
          <CharString index="145">
            -262 0 -1 -142 516 0 0 142 -1 0 rlineto
            -46 21 -42 30 -38 39 -38 39 -28 42 -20 45 -20 45 -17 49 -11 55 -15 71 -7 73 0 74 0 57 4 56 8 56 8 56 14 56 20 56 rrcurveto
            20 56 26 50 31 42 31 42 40 35 49 27 49 27 56 13 62 0 57 0 52 -10 46 -22 46 -22 39 -30 31 -39 31 -39 26 -42 20 -46 rrcurveto
            20 -46 17 -51 12 -55 15 -73 8 -75 0 -79 0 -57 -4 -55 -8 -55 -8 -55 -15 -54 -21 -55 -21 -55 -30 -49 -39 -44 -39 -44 -44 -34 -49 -26 rrcurveto
            -142 515 142 -276 vlineto
            4 4 rlineto
            48 50 39 59 30 67 30 67 21 68 13 67 13 67 7 67 0 67 0 73 -8 75 -16 77 -15 72 -22 67 -29 62 -29 62 -36 58 -45 53 rrcurveto
            -45 53 -55 41 -66 31 -66 31 -73 15 -81 0 -82 0 -74 -16 -68 -33 -68 -33 -56 -43 -43 -53 -43 -53 -37 -60 -30 -69 -30 -69 -21 -68 -13 -69 rrcurveto
            -13 -69 -6 -68 0 -67 0 -74 8 -72 15 -71 15 -71 22 -67 29 -61 28 -60 35 -56 44 -51 rrcurveto
            return
          </CharString>
          <CharString index="146">
            1 -785 rlineto
            0 -42 8 -39 16 -34 16 -34 20 -27 23 -21 23 -21 25 -19 27 -14 27 -14 24 -10 22 -6 22 -6 19 -2 16 0 28 0 26 5 24 10 rrcurveto
            24 10 17 9 11 8 11 8 14 14 19 18 rrcurveto
            -107 102 -15 -14 -16 -12 -18 -12 -22 -8 -27 -3 rlineto
            -68 -34 41 82 hvcurveto
            816 vlineto
            return
          </CharString>
          <CharString index="147">
            319 hlineto
            96 0 75 -20 54 -39 54 -39 33 -50 13 -63 5 -19 2 -22 0 -23 0 -29 -4 -29 -7 -27 -7 -27 -13 -27 -17 -25 -17 -25 -22 -21 -25 -18 rrcurveto
            -25 -18 -31 -15 -38 -11 -38 -11 -41 -6 -47 0 rrcurveto
            -319 hlineto
            return
          </CharString>
          <CharString index="148">
            13 0 40 0 68 -1 68 -1 38 0 10 0 57 0 49 -6 42 -11 42 -11 34 -14 24 -19 24 -19 18 -20 12 -20 12 -20 10 -22 5 -23 rrcurveto
            3 -15 2 -17 0 -19 0 -20 -2 -20 -4 -19 -4 -19 -10 -21 -14 -22 -14 -22 -20 -19 -23 -16 -23 -16 -32 -14 -42 -11 -42 -11 -49 -5 -55 0 rrcurveto
            -237 hlineto
            return
          </CharString>
          <CharString index="149">
            -1456 477 vlineto
            60 0 55 5 49 11 49 11 42 15 33 18 33 18 28 21 25 25 25 25 20 26 14 25 14 25 11 26 8 29 8 29 6 26 3 22 rrcurveto
            3 22 1 22 0 23 0 24 -3 24 -5 24 -7 34 -11 33 -15 31 -15 31 -20 31 -25 29 -25 29 -33 24 -39 18 -39 18 -44 8 -48 0 rrcurveto
            58 0 56 30 56 60 56 60 28 69 0 78 0 23 -3 26 -5 28 -8 39 -15 35 -21 34 -21 34 -28 32 -37 30 -37 30 -49 23 -61 17 rrcurveto
            -61 17 -69 9 -79 0 rrcurveto
            return
          </CharString>
          <CharString index="150">
            -1456 158 1315 756 141 vlineto
            return
          </CharString>
          <CharString index="151">
            1342 0 -581 1440 -179 0 rlineto
            return
          </CharString>
          <CharString index="152">
            -1456 158 1305 662 -1305 158 1456 vlineto
            return
          </CharString>
          <CharString index="153">
            541 206 vlineto
            65 0 58 -5 48 -12 48 -12 38 -17 28 -21 28 -21 20 -22 15 -23 15 -23 10 -25 6 -27 4 -17 2 -20 0 -23 rrcurveto
            -182 -128 -91 -257 vhcurveto
            return
          </CharString>
          <CharString index="154">
            -1456 158 631 206 vlineto
            92 0 82 11 71 22 71 22 57 30 43 38 43 38 33 45 22 49 22 49 11 54 0 58 0 27 -3 28 -5 30 -21 99 -57 78 -92 59 rrcurveto
            -92 59 -124 29 -153 0 rrcurveto
            -206 hlineto
            return
          </CharString>
          <CharString index="155">
            -36 -4 -36 -6 -35 -8 -64 -15 -60 -22 -55 -29 -55 -29 -51 -36 -47 -45 -47 -45 -36 -55 -27 -66 -27 -66 -14 -73 0 -80 0 -82 14 -74 29 -68 rrcurveto
            29 -68 38 -56 46 -44 46 -44 53 -36 61 -30 61 -30 60 -21 61 -13 31 -7 30 -5 31 -3 rrcurveto
            -153 179 153 vlineto
            37 4 37 6 38 9 65 15 60 22 56 29 56 29 51 36 48 45 48 45 37 55 28 66 28 66 14 73 0 81 0 82 -15 74 -30 68 rrcurveto
            -30 68 -38 56 -47 43 -47 43 -55 37 -62 30 -62 30 -62 21 -62 13 -31 6 -31 5 -31 3 rrcurveto
            201 -179 vlineto
            return
          </CharString>
          <CharString index="156">
            -21 2 -20 3 -20 3 -49 8 -50 15 -49 21 -49 21 -43 25 -37 31 -37 31 -29 40 -23 49 -23 49 -12 56 0 62 0 57 10 51 19 46 rrcurveto
            19 46 26 40 34 31 34 31 38 26 40 20 40 20 46 17 49 11 35 8 36 6 36 4 rrcurveto
            return
          </CharString>
          <CharString index="157">
            21 -2 20 -3 21 -3 50 -8 51 -14 51 -20 51 -20 44 -26 38 -31 38 -31 31 -40 24 -49 24 -49 12 -56 0 -62 0 -57 -9 -52 -20 -46 rrcurveto
            -20 -46 -27 -39 -35 -31 -35 -31 -38 -26 -41 -20 -41 -20 -46 -17 -50 -12 -37 -9 -38 -6 -39 -4 rrcurveto
            return
          </CharString>
          <CharString index="158">
            0 81 10 71 18 61 18 61 31 50 43 39 43 39 56 19 65 0 65 0 54 -19 43 -39 43 -39 31 -50 18 -61 18 -61 10 -71 0 -81 rrcurveto
            0 -60 -5 -55 -11 -51 -11 -51 -17 -46 -22 -40 -22 -40 -29 -31 -37 -23 -37 -23 -42 -11 -49 0 -49 0 -44 11 -37 23 -37 23 -29 31 -22 40 rrcurveto
            -22 40 -17 46 -11 51 -11 51 -5 55 0 60 rrcurveto
            return
          </CharString>
          <CharString index="159">
            136 vlineto
            -43 0 -39 23 -34 47 -35 48 -18 73 -4 99 rrcurveto
            228 vlineto
            1 85 13 65 27 44 40 65 46 33 50 0 rrcurveto
            138 vlineto
            -106 0 -73 -41 -41 -81 -21 -28 -14 -20 -7 -13 -30 51 -38 42 -47 35 -67 50 -79 25 -92 0 -70 0 -64 -14 -56 -28 -56 -28 -45 -40 -36 -50 rrcurveto
            -36 -50 -27 -60 -19 -67 -19 -67 -10 -74 0 -79 0 -107 17 -95 32 -84 32 -84 50 -68 67 -51 67 -51 80 -26 93 0 93 0 80 26 67 51 rrcurveto
            47 36 38 43 30 52 rrcurveto
            -13 vlineto
            0 0 1 -4 3 -6 50 -109 84 -55 118 -2 rrcurveto
            return
          </CharString>
          <CharString index="160">
            540 vlineto
            0 59 6 54 10 50 10 50 16 45 21 40 21 40 28 30 34 23 34 23 41 11 45 0 45 0 39 -11 34 -22 34 -22 28 -31 20 -39 rrcurveto
            20 -39 14 -45 10 -50 10 -50 4 -55 0 -60 rrcurveto
            -937 151 937 vlineto
            0 96 -9 85 -18 72 -18 72 -27 58 -33 45 -33 45 -39 33 -44 22 -44 22 -49 11 -55 0 -76 0 -66 -20 -54 -40 -54 -40 -37 -51 -19 -59 rrcurveto
            181 -152 -1073 vlineto
            return
          </CharString>
          <CharString index="161">
            87 0 76 26 64 51 64 51 49 68 32 85 32 85 17 95 0 106 0 106 -16 95 -33 83 -33 83 -49 67 -64 49 -64 49 -75 25 -87 0 rrcurveto
            -136 vlineto
            51 0 45 -18 40 -36 40 -36 30 -44 20 -52 20 -52 12 -57 4 -59 rrcurveto
            -135 vlineto
            -5 -64 -13 -59 -20 -53 -20 -53 -31 -44 -42 -36 -41 -35 -45 -18 -49 -1 -43 1 -38 11 -33 21 -34 22 -28 31 -20 39 -20 39 -14 45 -10 50 rrcurveto
            -10 50 -5 55 0 60 rrcurveto
            541 -151 -541 vlineto
            0 -96 10 -84 18 -72 18 -72 27 -59 33 -45 33 -44 45 -33 58 -22 55 -20 48 -11 41 -1 rrcurveto
            return
          </CharString>
          <CharString index="162">
            3 119 12 94 19 68 27 125 54 79 82 33 23 4 21 1 20 0 121 0 75 -65 28 -132 5 -25 3 -25 0 -26 0 -49 -22 -45 -43 -40 rrcurveto
            -43 -40 -52 -30 -60 -20 -60 -20 -60 -9 -59 0 rrcurveto
            -42 hlineto
            return
          </CharString>
          <CharString index="163">
            0 -94 9 -91 19 -88 31 -145 54 -117 77 -88 77 -88 94 -45 112 0 98 0 86 35 73 70 73 70 55 91 36 113 36 113 19 126 0 138 rrcurveto
            0 98 -10 95 -19 91 -31 146 -54 116 -75 88 -76 88 -92 44 -110 0 -74 0 -68 -21 -61 -41 -61 -41 -52 -56 -40 -70 -40 -70 -31 -82 -22 -92 rrcurveto
            -22 -92 -11 -98 0 -103 rrcurveto
            return
          </CharString>
          <CharString index="164">
            -3 -51 -5 -50 -9 -49 -13 -70 -19 -66 -24 -61 -24 -61 -34 -49 -42 -37 -42 -37 -48 -19 -53 0 -73 0 -60 33 -49 66 -48 66 -36 87 -23 107 rrcurveto
            -13 61 -8 64 -3 66 rrcurveto
            return
          </CharString>
          <CharString index="165">
            3 46 5 47 9 46 13 72 20 66 25 62 25 62 34 50 43 38 43 38 48 20 53 0 71 0 60 -33 47 -65 47 -65 34 -85 22 -105 rrcurveto
            13 -63 9 -65 4 -66 rrcurveto
            return
          </CharString>
          <CharString index="166">
            0 -107 17 -95 32 -84 32 -84 50 -68 67 -51 67 -51 80 -26 93 0 93 0 80 26 67 51 67 51 49 67 32 84 32 84 16 96 0 107 rrcurveto
            0 106 -17 94 -32 83 -32 83 -50 66 -67 50 -67 50 -79 25 -92 0 -70 0 -64 -14 -56 -28 -56 -28 -45 -40 -36 -50 -36 -50 -27 -60 -19 -67 rrcurveto
            -19 -67 -10 -74 0 -79 rrcurveto
            return
          </CharString>
          <CharString index="167">
            0 -133 -26 -105 -51 -78 -51 -78 -64 -39 -77 0 -77 0 -66 39 -53 78 -53 78 -27 104 0 132 0 133 27 104 53 77 53 77 66 38 77 0 rrcurveto
            77 0 64 -37 51 -76 51 -76 26 -105 0 -133 rrcurveto
            return
          </CharString>
          <CharString index="168">
            0 -21 1 -21 1 -20 rrcurveto
            0 -97 -1 -5 0 -769 152 0 1 483 rlineto
            14 -14 14 -13 16 -12 67 -51 80 -26 93 0 21 0 19 1 20 3 16 2 15 2 15 4 49 12 45 23 40 30 67 51 49 67 32 84 rrcurveto
            32 84 15 96 0 107 0 106 -16 94 -32 83 -26 66 -36 55 -48 45 -24 28 -28 23 -32 19 -52 31 -60 16 -67 0 -68 0 -68 -17 -68 -34 rrcurveto
            -56 -28 -45 -40 -36 -50 -36 -50 -27 -60 -19 -67 -19 -67 -10 -74 0 -79 rrcurveto
            return
          </CharString>
          <CharString index="169">
            6 -18 9 -19 11 -19 16 -27 19 -26 23 -25 23 -25 28 -20 32 -17 32 -17 34 -8 35 0 94 0 80 84 64 169 32 85 16 95 0 106 rrcurveto
            0 106 -16 95 -33 83 -33 83 -48 67 -64 49 -64 49 -75 25 -87 0 rrcurveto
            -136 vlineto
            51 0 45 -18 40 -36 40 -36 29 -44 20 -52 20 -52 12 -57 4 -59 rrcurveto
            -135 vlineto
            -5 -64 -13 -59 -20 -53 -20 -53 -31 -44 -42 -36 -38 0 -29 8 -22 16 -44 28 -34 53 -25 76 -6 24 -3 24 0 25 rrcurveto
            296 -125 -296 vlineto
            0 -25 -3 -24 -6 -24 -25 -76 -35 -53 -44 -28 -22 -16 -29 -8 -38 0 -42 36 -31 44 -20 53 -20 53 -13 59 -5 64 rrcurveto
            135 vlineto
            4 59 12 57 20 52 20 52 30 44 40 36 40 36 44 18 51 0 rrcurveto
            136 vlineto
            -87 0 -75 -25 -64 -49 -64 -49 -48 -67 -33 -83 -33 -83 -16 -95 0 -106 0 -106 17 -95 32 -85 64 -169 79 -84 94 0 35 0 35 8 32 17 rrcurveto
            32 17 28 20 23 25 23 25 19 26 16 27 11 19 8 19 6 18 rrcurveto
            return
          </CharString>
          <CharString index="170">
            18 16 27 7 37 0 rrcurveto
            27 -3 22 -8 18 -11 16 -13 15 -14 107 102 rlineto
            -19 18 -14 14 -11 8 -11 8 -17 9 -24 10 -24 10 -26 5 -30 0 rrcurveto
            -11 hlineto
            -25 -1 -23 -2 -19 -5 -30 -8 -24 -10 -19 -12 -51 -33 -36 -35 -23 -36 rrcurveto
            -274 -458 -274 458 rlineto
            -23 36 -36 35 -51 33 -19 12 -24 10 -30 8 -19 5 -23 2 -25 1 rrcurveto
            -11 hlineto
            -30 0 -26 -5 -24 -10 -24 -10 -17 -9 -11 -8 -11 -8 -14 -14 -19 -18 rrcurveto
            107 -102 15 14 16 13 18 11 22 8 27 3 rlineto
            36 0 27 -8 18 -15 rrcurveto
            345 -550 0 -748 158 0 0 748 rlineto
            return
          </CharString>
          <CharString index="171">
            131 66 rlineto
            -36 65 -46 52 -57 41 -57 41 -67 20 -76 0 -56 0 -53 -10 -49 -20 -49 -20 -43 -29 -36 -35 -36 -35 -32 -42 -27 -47 -27 -47 -20 -51 -13 -54 rrcurveto
            -13 -54 -7 -56 0 -57 0 -103 20 -96 39 -86 39 -86 55 -68 70 -51 70 -51 79 -25 87 0 39 0 39 6 36 13 36 13 32 17 28 22 rrcurveto
            28 22 26 22 21 24 21 24 19 26 16 27 rrcurveto
            -122 77 rlineto
            -7 -14 -9 -15 -11 -16 -11 -16 -14 -17 -18 -18 -18 -18 -23 -14 -26 -12 -26 -12 -27 -6 -29 0 -87 0 -72 39 -59 79 -59 79 -29 105 0 129 rrcurveto
            0 121 30 100 60 80 60 80 73 40 85 0 47 0 43 -17 40 -33 40 -33 26 -33 12 -33 rrcurveto
            return
          </CharString>
          <CharString index="172">
            -147 41 rlineto
            -21 -61 -41 -53 -61 -44 -61 -44 -65 -21 -71 0 -66 0 -61 17 -55 34 -55 34 -47 45 -36 57 -36 57 -28 65 -20 74 -20 74 -10 76 0 81 rrcurveto
            0 79 9 77 19 74 19 74 26 67 35 60 35 60 47 48 56 36 56 36 63 18 69 0 rrcurveto
            2 hlineto
            69 0 63 -18 56 -37 56 -37 39 -48 19 -61 rrcurveto
            149 41 rlineto
            -10 28 -13 27 -16 27 -16 27 -22 28 -26 27 -26 27 -29 23 -33 20 -33 20 -38 16 -45 12 -45 12 -48 7 -51 0 -79 0 -73 -14 -67 -29 rrcurveto
            -67 -29 -56 -38 -47 -49 -47 -49 -40 -57 -32 -66 -32 -66 -24 -70 -15 -74 -15 -74 -8 -76 0 -79 0 -79 7 -75 15 -73 15 -73 25 -69 32 -64 rrcurveto
            32 -64 40 -56 46 -48 46 -48 56 -37 67 -27 67 -27 73 -14 79 0 63 0 59 9 53 18 53 18 46 24 37 32 37 32 32 34 25 36 rrcurveto
            25 36 21 40 16 43 rrcurveto
            return
          </CharString>
          <CharString index="173">
            16 -43 21 -40 25 -36 25 -36 32 -34 37 -32 37 -32 46 -24 53 -18 53 -18 59 -9 63 0 79 0 73 14 67 27 67 27 57 37 46 48 rrcurveto
            46 48 40 56 32 64 32 64 23 69 15 73 15 73 8 75 0 79 0 79 -8 76 -15 74 -15 74 -25 70 -32 66 -32 66 -39 57 -47 49 rrcurveto
            -47 49 -56 38 -67 29 -67 29 -73 14 -79 0 -51 0 -47 -7 -45 -12 -45 -12 -39 -16 -33 -20 -33 -20 -29 -23 -26 -27 -26 -27 -21 -28 -16 -27 rrcurveto
            -16 -27 -14 -27 -10 -28 rrcurveto
            127 27 rlineto
            11 44 35 41 61 40 56 37 64 18 69 0 rrcurveto
            2 hlineto
            73 0 63 -18 53 -36 59 -41 54 -63 51 -87 35 -60 27 -67 19 -74 19 -74 9 -77 0 -79 0 -81 -10 -76 -20 -74 -20 -74 -29 -65 -36 -57 rrcurveto
            -36 -57 -46 -45 -55 -34 -55 -34 -61 -17 -66 0 -71 0 -65 21 -61 44 -61 44 -41 53 -21 61 rrcurveto
            return
          </CharString>
          <CharString index="174">
            -1456 922 141 -764 535 720 141 -720 498 764 141 vlineto
            return
          </CharString>
          <CharString index="175">
            -1456 153 vlineto
            740 1161 0 -1161 157 0 0 1456 -145 0 -747 -1190 0 1190 rlineto
            return
          </CharString>
          <CharString index="176">
            444 -708 -338 -589 rlineto
            -15 -16 -24 -8 -34 0 rrcurveto
            -27 3 -22 8 -18 12 -16 12 -15 14 -107 -102 rlineto
            19 -18 14 -14 11 -8 11 -8 17 -9 24 -10 24 -10 26 -5 30 0 rrcurveto
            11 hlineto
            25 1 23 2 19 5 22 6 24 10 27 14 27 14 25 19 23 21 8 7 7 8 7 9 5 6 6 9 7 11 rrcurveto
            777 1314 -167 0 -356 -600 -356 600 rlineto
            return
          </CharString>
          <CharString index="177">
            400 631 0 -631 157 0 0 631 401 -631 178 0 -420 669 0 142 420 648 -182 0 -397 -617 0 614 -157 0 0 -614 -396 617 rlineto
            -182 0 420 -648 0 -142 -420 -669 rlineto
            return
          </CharString>
          <CharString index="178">
            37 -85 60 -68 85 -51 85 -51 84 -26 83 0 138 0 116 43 94 86 94 86 47 107 0 131 0 47 -9 46 -17 44 -17 44 -21 38 -26 31 rrcurveto
            -26 31 -26 26 -28 21 -28 21 -27 15 -25 7 26 13 26 20 26 26 26 26 24 36 22 47 22 47 11 51 0 55 0 73 -20 66 -39 59 rrcurveto
            -39 59 -49 46 -61 31 -61 31 -64 16 -67 0 -82 0 -74 -21 -67 -43 -67 -43 -51 -56 -35 -70 rrcurveto
            137 -64 rlineto
            21 49 31 39 40 28 40 28 48 14 53 0 rrcurveto
            6 hlineto
            63 0 57 -24 49 -47 49 -47 24 -57 0 -67 0 -75 -23 -62 -48 -49 -48 -49 -56 -25 -65 0 rrcurveto
            -98 -125 78 hlineto
            41 0 40 -7 38 -13 38 -13 34 -19 32 -25 32 -25 25 -33 19 -40 19 -40 10 -43 0 -49 0 -94 -33 -75 -64 -57 -64 -57 -78 -28 -93 0 rrcurveto
            -55 0 -54 17 -53 35 -53 35 -39 44 -25 55 rrcurveto
            return
          </CharString>
          <CharString index="179">
            -150 -1198 rlineto
            -10 -82 -34 -41 -58 0 rrcurveto
            -27 3 -22 8 -18 12 -16 12 -15 14 -107 -102 rlineto
            19 -18 14 -14 11 -8 11 -8 17 -9 24 -10 24 -10 26 -5 28 0 16 0 19 2 22 6 22 6 24 10 27 14 27 14 25 19 23 21 rrcurveto
            23 21 19 27 15 34 6 14 8 38 9 63 rrcurveto
            151 1026 208 0 0 -1315 158 0 0 1456 rlineto
            return
          </CharString>
          <CharString index="180">
            -1456 158 1315 661 -1315 158 1456 vlineto
            return
          </CharString>
          <CharString index="181">
            -242 1314 -158 -1315 -661 1315 -158 -1456 1077 -208 142 hlineto
            return
          </CharString>
          <CharString index="182">
            -324 vlineto
            0 -59 -6 -54 -10 -50 -10 -50 -16 -45 -21 -40 -21 -40 -28 -30 -34 -23 -34 -23 -41 -11 -45 0 -45 0 -39 11 -34 22 -34 22 -28 31 -20 39 rrcurveto
            -20 39 -14 45 -10 50 -10 50 -5 55 0 60 rrcurveto
            325 -151 -325 vlineto
            0 -96 10 -85 18 -72 18 -72 27 -58 33 -45 33 -45 39 -33 44 -22 44 -22 49 -11 55 0 76 0 66 20 54 40 54 40 37 51 19 59 rrcurveto
            -780 152 1456 vlineto
            return
          </CharString>
          <CharString index="183">
            24 hlineto
            257 128 -91 -182 hvcurveto
            0 -23 -2 -20 -4 -17 -6 -27 -10 -25 -15 -23 -15 -23 -20 -22 -28 -21 -28 -21 -38 -17 -48 -12 -48 -12 -58 -5 -65 0 rrcurveto
            -24 hlineto
            return
          </CharString>
          <CharString index="184">
            158 0 24 0 rlineto
            153 0 124 29 92 59 93 59 57 79 20 98 5 26 3 28 0 31 0 58 -11 54 -22 49 -22 49 -33 45 -43 38 -43 38 -57 30 -71 22 rrcurveto
            -71 22 -82 11 -92 0 rrcurveto
            -24 631 -158 hlineto
            return
          </CharString>
          <CharString index="185">
            206 hlineto
            257 128 -91 -182 hvcurveto
            0 -23 -2 -20 -4 -17 -6 -27 -10 -25 -15 -23 -15 -23 -20 -22 -28 -21 -28 -21 -38 -17 -48 -12 -48 -12 -58 -5 -65 0 rrcurveto
            -206 hlineto
            return
          </CharString>
          <CharString index="186">
            158 0 206 0 rlineto
            153 0 124 29 92 59 92 59 57 78 21 99 5 30 3 28 0 27 0 58 -11 54 -22 49 -22 49 -33 45 -43 38 -43 38 -57 30 -71 22 rrcurveto
            -71 22 -82 11 -92 0 rrcurveto
            -206 631 -158 hlineto
            return
          </CharString>
          <CharString index="187">
            16 -43 21 -40 25 -36 25 -36 32 -34 37 -32 37 -32 46 -24 53 -18 53 -18 59 -9 63 0 79 0 73 14 67 27 67 27 57 37 46 48 rrcurveto
            46 48 40 56 32 64 32 64 23 69 15 73 15 73 8 75 0 79 0 79 -8 76 -15 74 -15 74 -25 70 -32 66 -32 66 -39 57 -47 49 rrcurveto
            -47 49 -56 38 -67 29 -67 29 -73 14 -79 0 -51 0 -47 -7 -45 -12 -45 -12 -39 -16 -33 -20 -33 -20 -29 -23 -26 -27 -26 -27 -21 -28 -16 -27 rrcurveto
            -16 -27 -14 -27 -10 -28 rrcurveto
            149 -41 rlineto
            19 61 38 48 56 37 56 37 64 18 69 0 rrcurveto
            2 hlineto
            69 0 64 -18 56 -36 56 -36 45 -48 35 -60 35 -60 27 -67 19 -74 14 -54 8 -55 4 -56 rrcurveto
            -600 -142 599 hlineto
            -4 -53 -9 -51 -14 -50 -20 -74 -29 -65 -36 -57 -36 -57 -46 -45 -55 -34 -55 -34 -61 -17 -66 0 -71 0 -65 21 -61 44 -61 44 -41 53 -21 61 rrcurveto
            return
          </CharString>
          <CharString index="188">
            61 0 55 -23 49 -45 49 -45 24 -57 0 -68 0 -66 -23 -56 -47 -46 -47 -46 -57 -24 -64 0 -72 0 -59 23 -48 45 -48 45 -23 56 0 69 rrcurveto
            0 66 23 56 47 46 47 46 59 24 74 0 rrcurveto
            return
          </CharString>
          <CharString index="189">
            -104 0 -88 -36 -72 -71 -72 -71 -36 -88 0 -107 0 -111 34 -90 70 -69 70 -69 90 -34 108 0 36 0 35 7 35 15 35 15 28 17 23 21 rrcurveto
            23 21 18 21 14 20 14 20 8 17 1 13 rrcurveto
            0 -2 0 -156 139 0 0 532 0 123 rlineto
            0 137 -36 106 -73 77 -73 77 -92 38 -111 0 -113 0 -100 -36 -89 -73 rrcurveto
            78 -104 rlineto
            23 23 30 18 41 14 41 14 43 8 46 0 78 0 61 -26 42 -52 42 -52 21 -74 0 -95 rrcurveto
            -96 vlineto
            -8 33 -29 34 -51 36 -51 36 -60 19 -69 0 rrcurveto
            return
          </CharString>
          <CharString index="190">
            136 -640 -1074 151 938 vlineto
            return
          </CharString>
          <CharString index="191">
            668 hlineto
            0 8 -1 17 0 24 rrcurveto
            47 vlineto
            0 67 -9 65 -17 62 -17 62 -26 57 -33 50 -33 50 -42 40 -53 30 -53 30 -58 16 -65 0 -87 0 -75 -25 -64 -49 -64 -49 -48 -67 -33 -83 rrcurveto
            -33 -83 -16 -95 0 -106 0 -106 16 -95 32 -85 32 -85 50 -67 64 -51 64 -51 75 -26 87 0 79 0 73 20 70 39 70 39 52 53 34 66 rrcurveto
            -133 55 rlineto
            -21 -40 -35 -33 -47 -26 -47 -26 -47 -12 -48 0 -51 0 -44 18 -39 36 -39 36 -30 44 -20 53 -20 53 -13 59 -5 64 rrcurveto
            return
          </CharString>
          <CharString index="192">
            400 532 0 -532 157 0 0 532 399 -532 178 0 -420 570 0 129 420 375 -182 0 -395 -344 0 341 -157 0 0 -341 -396 344 rlineto
            -182 0 420 -375 0 -129 -420 -570 rlineto
            return
          </CharString>
          <CharString index="193">
            29 -68 48 -54 68 -41 68 -41 66 -20 67 0 110 0 93 32 75 63 75 63 37 80 0 97 0 35 -8 34 -17 32 -17 32 -20 28 -25 23 rrcurveto
            -25 23 -26 19 -27 16 -27 16 -26 11 -25 5 25 10 25 14 25 19 25 19 23 27 21 35 21 35 11 38 0 40 0 54 -15 48 -31 44 rrcurveto
            -31 44 -38 33 -48 23 -48 23 -51 12 -53 0 -65 0 -58 -17 -52 -35 -52 -35 -41 -45 -28 -57 rrcurveto
            101 -52 rlineto
            16 31 22 26 30 18 30 18 34 9 39 0 rrcurveto
            4 hlineto
            46 0 41 -16 36 -30 36 -30 18 -37 0 -43 0 -48 -17 -40 -35 -32 -35 -32 -42 -15 -47 0 rrcurveto
            -71 -125 57 hlineto
            30 0 29 -4 28 -9 28 -9 26 -12 23 -16 28 -16 21 -20 17 -26 19 -26 9 -29 0 -31 0 -61 -24 -48 -49 -36 -49 -36 -59 -19 -70 0 rrcurveto
            -42 0 -40 11 -40 22 -40 22 -30 30 -19 35 rrcurveto
            return
          </CharString>
          <CharString index="194">
            -1074 152 vlineto
            528 812 0 -812 140 0 0 1074 -152 0 -512 -802 0 802 rlineto
            return
          </CharString>
          <CharString index="195">
            -78 -816 rlineto
            -8 -82 -34 -41 -60 0 rrcurveto
            -26 3 -22 8 -19 12 -16 12 -15 14 -107 -102 rlineto
            19 -18 14 -14 11 -8 11 -8 17 -9 24 -10 24 -10 26 -5 28 0 16 0 19 2 22 6 22 6 25 10 27 14 27 14 24 19 23 21 rrcurveto
            23 21 19 27 15 34 8 19 8 39 7 57 rrcurveto
            77 644 130 0 0 -933 158 0 0 1074 rlineto
            return
          </CharString>
          <CharString index="196">
            151 732 hlineto
            273 -732 130 0 273 732 0 -732 151 0 0 1074 -151 0 -335 -864 -336 864 -156 0 rlineto
            return
          </CharString>
          <CharString index="197">
            -1074 158 933 509 -933 158 1074 vlineto
            return
          </CharString>
          <CharString index="198">
            -141 338 vlineto
            1 -933 158 0 0 933 328 0 0 141 rlineto
            return
          </CharString>
          <CharString index="199">
            364 -1073 -94 -224 rlineto
            -15 -16 -24 -8 -34 0 rrcurveto
            -27 3 -22 8 -18 11 -16 14 -15 13 -107 -102 rlineto
            19 -18 14 -13 11 -8 11 -8 17 -10 24 -10 24 -10 26 -5 30 0 rrcurveto
            11 hlineto
            25 1 23 3 19 5 22 6 24 10 27 14 27 14 25 17 23 21 8 7 7 9 7 9 10 13 7 9 1 4 rrcurveto
            451 1314 -158 0 -287 -878 -280 878 rlineto
            return
          </CharString>
          <CharString index="200">
            -242 932 -158 -933 -509 933 -158 -1074 925 -208 142 hlineto
            return
          </CharString>
          <CharString index="201">
            -158 vlineto
            0 -59 -6 -54 -10 -50 -10 -50 -15 -45 -21 -40 -21 -40 -29 -30 -34 -23 -34 -23 -40 -11 -45 0 -45 0 -40 11 -34 22 -34 22 -27 31 -20 39 rrcurveto
            -20 39 -15 45 -10 50 -10 50 -4 55 0 60 rrcurveto
            159 -151 -159 vlineto
            0 -96 9 -85 18 -72 18 -72 27 -58 33 -45 33 -45 39 -33 44 -22 44 -22 50 -11 55 0 76 0 65 20 54 40 54 40 37 51 19 59 rrcurveto
            -564 152 1074 vlineto
            return
          </CharString>
          <CharString index="202">
            158 0 140 0 rlineto
            153 0 124 29 92 59 92 59 57 78 21 99 5 24 3 25 0 27 rrcurveto
            9 vlineto
            -1 33 -15 38 -29 42 -34 51 -28 33 -23 16 -42 29 -58 26 -72 22 -71 22 -82 11 -92 0 rrcurveto
            -140 342 -158 hlineto
            return
          </CharString>
          <CharString index="203">
            140 hlineto
            221 0 128 -60 36 -120 1 -3 0 -3 0 -5 0 -11 -2 -16 -5 -22 -6 -27 -10 -25 -15 -23 -15 -23 -20 -22 -28 -21 -28 -21 -38 -17 -48 -12 rrcurveto
            -48 -12 -58 -5 -65 0 rrcurveto
            -140 hlineto
            return
          </CharString>
          <CharString index="204">
            140 hlineto
            221 0 128 -60 36 -120 1 -3 0 -3 0 -5 0 -11 -2 -16 -5 -22 -6 -27 -10 -26 -15 -23 -15 -23 -20 -22 -28 -21 -28 -21 -38 -15 -48 -12 rrcurveto
            -48 -12 -58 -6 -65 0 rrcurveto
            -140 hlineto
            return
          </CharString>
          <CharString index="205">
            12 33 26 33 40 33 40 33 43 17 47 0 85 0 73 -40 60 -80 48 -63 28 -76 10 -89 rrcurveto
            -384 -142 385 hlineto
            -9 -98 -28 -82 -48 -64 -59 -79 -72 -39 -87 0 -29 0 -27 6 -26 12 -26 12 -23 14 -18 18 -18 18 -14 17 -11 16 -11 16 -9 15 -7 14 rrcurveto
            -122 -77 rlineto
            16 -27 19 -26 21 -24 21 -24 26 -22 28 -22 28 -22 32 -17 36 -13 36 -13 39 -6 39 0 87 0 79 25 70 51 70 51 55 68 39 86 rrcurveto
            39 86 20 96 0 103 0 57 -7 56 -13 54 -13 54 -20 51 -27 47 -27 47 -32 42 -36 35 -36 35 -43 29 -49 20 -49 20 -53 10 -56 0 rrcurveto
            -76 0 -67 -20 -57 -41 -57 -41 -46 -52 -36 -65 rrcurveto
            return
          </CharString>
          <CharString index="206">
            1091 -152 -540 vlineto
            0 -59 -5 -54 -10 -50 -10 -50 -17 -44 -21 -40 -21 -40 -27 -31 -34 -23 -34 -23 -41 -11 -45 0 -45 0 -40 11 -34 22 -34 22 -27 31 -20 39 rrcurveto
            -20 39 -14 45 -10 50 -10 50 -5 55 0 60 rrcurveto
            541 -151 -541 vlineto
            0 -96 10 -84 18 -72 18 -72 26 -59 33 -45 33 -45 40 -33 44 -22 44 -22 49 -11 55 0 76 0 66 21 54 40 54 40 36 50 19 59 rrcurveto
            -214 vlineto
            0 -46 -8 -42 -17 -37 -17 -37 -22 -29 -27 -22 -27 -22 -30 -16 -31 -12 -31 -12 -32 -5 -33 0 -103 0 -85 41 -69 82 rrcurveto
            -106 -85 rlineto
            100 -116 121 -58 142 0 51 0 51 9 50 20 50 20 47 28 41 36 41 36 33 44 25 56 25 56 13 61 0 65 rrcurveto
            return
          </CharString>
          <CharString index="207">
            -6 -77 -18 -73 -30 -68 -30 -68 -44 -57 -60 -47 -60 -47 -67 -23 -76 0 -112 0 -92 45 -70 91 -70 91 -39 107 -9 126 rrcurveto
            return
          </CharString>
          <CharString index="208">
            -55 vlineto
            0 -29 -1 -19 0 -7 0 -87 5 -62 10 -39 21 -84 41 -88 62 -88 25 -36 32 -34 37 -32 37 -32 46 -24 53 -18 53 -18 59 -9 63 0 rrcurveto
            79 0 73 14 67 27 67 27 57 37 46 48 46 48 40 56 32 64 32 64 23 69 15 73 15 73 8 75 0 79 0 79 -8 76 -15 74 rrcurveto
            -15 74 -25 70 -32 66 -32 66 -39 57 -47 49 -47 49 -56 38 -67 29 -67 29 -73 14 -79 0 -51 0 -47 -7 -45 -12 -45 -12 -39 -16 -33 -20 rrcurveto
            -33 -20 -29 -23 -26 -27 -26 -27 -21 -28 -16 -27 -16 -27 -14 -27 -10 -28 rrcurveto
            149 -41 rlineto
            19 61 38 48 56 37 56 37 64 18 69 0 rrcurveto
            2 hlineto
            69 0 64 -18 56 -36 56 -36 45 -48 35 -60 35 -60 28 -66 20 -72 20 -72 10 -75 0 -79 rrcurveto
            return
          </CharString>
          <CharString index="209">
            -2 -37 -3 -37 -6 -37 -8 -55 -15 -54 -21 -55 -21 -55 -25 -47 -31 -41 -31 -41 -40 -32 -49 -26 -49 -26 -56 -13 -62 0 -57 0 -51 11 -46 21 rrcurveto
            -46 21 -40 30 -31 38 -31 38 -26 41 -20 45 -20 45 -17 49 -11 55 -11 53 -7 54 -3 55 rrcurveto
            return
          </CharString>
          <CharString index="210">
            2 28 3 27 4 28 8 56 14 56 20 56 20 56 26 50 31 42 31 42 40 35 49 27 49 27 56 13 62 0 57 0 52 -10 46 -22 rrcurveto
            46 -22 39 -30 31 -39 31 -39 26 -42 20 -46 20 -46 17 -51 12 -55 10 -46 6 -47 4 -48 rrcurveto
            return
          </CharString>
          <CharString index="211">
            -87 0 -75 -25 -64 -49 -64 -49 -48 -67 -33 -83 -33 -83 -16 -95 0 -106 0 -106 16 -95 32 -85 32 -85 50 -67 64 -51 64 -51 75 -26 87 0 rrcurveto
            0 -1 0 1 rlineto
            87 0 75 26 64 51 64 51 50 67 32 85 32 85 16 95 0 106 0 106 -16 95 -33 83 -33 83 -48 67 -64 49 -64 49 -75 25 -87 0 rrcurveto
            return
          </CharString>
          <CharString index="212">
            0 -8 1 -7 1 -7 1 -7 2 -8 3 -8 19 -41 34 -21 46 0 15 0 15 4 15 5 41 19 20 33 0 46 0 3 1 3 0 3 rrcurveto
            0 5 -1 5 -2 4 -1 7 -2 7 -3 8 -19 41 -33 21 -46 0 -15 0 -15 -4 -15 -5 -41 -19 -21 -33 0 -46 rrcurveto
            return
          </CharString>
          <CharString index="213">
            -1458 158 674 662 -674 158 1458 -158 -642 -662 642 vlineto
            return
          </CharString>
          <CharString index="214">
            0 -8 1 -7 1 -7 1 -7 2 -8 3 -8 19 -41 34 -21 46 0 15 0 15 4 15 5 41 19 21 33 0 46 rrcurveto
            6 vlineto
            0 6 -1 6 -2 5 -1 7 -2 7 -3 8 -19 41 -33 21 -46 0 -15 0 -15 -4 -15 -5 -41 -19 -21 -33 0 -46 rrcurveto
            return
          </CharString>
          <CharString index="215">
            660 vlineto
            0 38 9 38 16 36 16 36 21 32 27 28 27 28 31 23 34 16 34 16 34 8 36 0 rrcurveto
            133 66 -100 -201 hvcurveto
            -658 152 658 vlineto
            0 148 -32 110 -62 72 -62 72 -86 37 -109 0 -26 0 -24 -2 -21 -5 -21 -5 -21 -9 -22 -12 -22 -12 -23 -17 -24 -23 -24 -23 -27 -30 -30 -37 rrcurveto
            534 -152 -1456 vlineto
            return
          </CharString>
          <CharString index="216">
            0 -8 1 -7 1 -7 1 -7 3 -8 3 -8 19 -41 33 -21 46 0 15 0 15 4 15 5 41 19 21 33 0 46 0 3 1 3 0 3 rrcurveto
            0 5 -1 5 -2 4 -1 7 -3 7 -3 8 -19 41 -33 21 -46 0 -15 0 -15 -4 -15 -5 -41 -19 -21 -33 0 -46 rrcurveto
            return
          </CharString>
          <CharString index="217">
            -1458 925 141 -767 1317 vlineto
            return
          </CharString>
          <CharString index="218">
            0 -8 1 -7 1 -7 1 -7 2 -8 3 -8 19 -41 33 -21 46 0 15 0 15 4 15 5 41 19 21 33 0 46 0 3 1 3 0 3 rrcurveto
            0 5 -1 5 -2 4 -1 7 -2 7 -3 8 -19 41 -34 21 -46 0 -15 0 -15 -4 -15 -5 -41 -19 -20 -33 0 -46 rrcurveto
            return
          </CharString>
          <CharString index="219">
            1249 -152 -1253 vlineto
            0 -78 22 -58 44 -38 44 -38 67 -20 93 0 rrcurveto
            131 vlineto
            -79 -39 35 70 hvcurveto
            return
          </CharString>
          <CharString index="220">
            -135 605 135 vlineto
            return
          </CharString>
          <CharString index="221">
            154 1205 hlineto
            428 -1189 179 0 428 1189 0 -1205 154 0 0 1458 -207 0 -461 -1249 -460 1249 -215 0 rlineto
            return
          </CharString>
          <CharString index="222">
            660 vlineto
            0 42 8 40 15 36 15 36 19 31 25 27 25 27 28 21 31 16 31 16 33 7 33 0 49 0 38 -25 29 -51 29 -51 14 -77 0 -101 rrcurveto
            -654 152 654 vlineto
            0 150 -24 112 -49 72 -49 72 -78 37 -111 0 -56 0 -52 -16 -47 -31 -47 -31 -48 -53 -48 -74 -49 137 -92 68 -135 0 -52 0 -47 -13 -40 -25 rrcurveto
            -40 -25 -42 -46 -42 -66 rrcurveto
            152 -152 -1074 152 660 vlineto
            0 42 8 40 15 36 15 36 19 31 25 27 25 27 28 21 31 16 31 16 33 7 33 0 51 0 38 -25 28 -51 28 -51 14 -76 0 -98 rrcurveto
            -658 vlineto
            return
          </CharString>
          <CharString index="223">
            158 1191 hlineto
            748 -1191 146 0 0 1458 -158 0 0 -1163 -740 1163 -154 0 rlineto
            return
          </CharString>
          <CharString index="224">
            660 vlineto
            0 40 9 38 18 36 18 36 22 32 28 27 28 27 32 23 35 16 35 16 34 8 34 0 53 -4 46 -27 37 -50 37 -50 18 -73 0 -97 rrcurveto
            -658 152 658 vlineto
            -1 26 -1 25 -1 24 -1 24 -4 24 -7 23 rrcurveto
            -18 65 rlineto
            -53 152 -104 76 -153 0 -112 0 -98 -62 -83 -123 rrcurveto
            162 -152 -1074 vlineto
            return
          </CharString>
          <CharString index="225">
            541 207 vlineto
            127 0 96 -23 65 -44 65 -44 33 -67 0 -90 rrcurveto
            -182 -129 -91 -257 vhcurveto
            return
          </CharString>
          <CharString index="226">
            182 0 -434 650 rlineto
            115 22 89 47 64 72 64 72 33 87 0 98 0 67 -15 58 -27 51 -27 51 -38 42 -49 35 -49 35 -59 26 -67 18 -67 18 -73 9 -79 0 rrcurveto
            -365 -1458 158 631 215 hlineto
            return
          </CharString>
          <CharString index="227">
            0 -8 1 -7 1 -7 1 -7 3 -8 3 -8 19 -41 33 -21 46 0 15 0 15 4 15 5 41 19 21 33 0 46 rrcurveto
            6 vlineto
            0 6 -1 6 -2 5 -1 7 -2 7 -3 8 -19 41 -33 21 -46 0 -15 0 -15 -4 -15 -5 -41 -19 -21 -33 0 -46 rrcurveto
            return
          </CharString>
          <CharString index="228">
            66 124 rlineto
            -60 37 -68 18 -77 0 -23 0 -24 -6 -23 -10 -23 -10 -22 -13 -22 -16 -22 -16 -20 -20 -18 -21 -18 -21 -14 -23 -11 -23 rrcurveto
            152 -152 -1074 152 644 vlineto
            0 48 7 43 14 39 14 39 17 33 22 28 22 28 25 22 29 16 29 16 30 8 31 0 49 0 46 -15 44 -27 rrcurveto
            return
          </CharString>
          <CharString index="229">
            63 -107 75 -79 87 -52 87 -52 97 -27 105 -1 71 1 66 12 61 23 61 23 52 30 44 38 44 38 35 46 25 52 25 52 12 55 0 59 rrcurveto
            0 59 -6 48 -14 39 -14 39 -24 35 -33 31 -33 31 -45 28 -57 27 -57 27 -70 29 -85 33 rrcurveto
            -144 51 rlineto
            -138 55 -69 74 0 93 0 40 8 35 15 31 15 31 20 27 27 23 27 23 31 18 36 12 36 12 37 6 41 0 75 0 66 -16 57 -32 rrcurveto
            57 -32 46 -45 34 -59 rrcurveto
            125 79 -37 52 rlineto
            -105 130 -142 64 -176 0 -64 0 -60 -10 -55 -20 -55 -20 -49 -29 -41 -36 -41 -36 -32 -42 -23 -49 -23 -49 -12 -52 0 -56 0 -183 134 -129 268 -72 rrcurveto
            23 -6 rlineto
            119 -36 90 -41 62 -49 62 -49 32 -56 0 -66 0 -44 -9 -40 -18 -36 -18 -36 -24 -31 -30 -27 -30 -27 -35 -21 -41 -15 -41 -15 -44 -7 -45 0 rrcurveto
            -74 0 -66 19 -59 38 -59 38 -61 67 -60 94 rrcurveto
            return
          </CharString>
          <CharString index="230">
            145 -48 72 -65 0 -82 0 -29 -5 -26 -12 -23 -12 -23 -17 -20 -20 -16 -20 -16 -23 -13 -26 -10 -26 -10 -27 -4 -29 0 -133 0 -77 45 -22 92 rrcurveto
            -141 -27 rlineto
            46 -164 126 -82 205 0 53 0 49 9 44 18 44 18 39 24 33 29 33 29 26 34 18 40 18 40 10 41 0 44 0 36 -7 33 -12 30 rrcurveto
            -12 30 -20 29 -29 27 -29 27 -38 27 -47 25 -47 25 -58 26 -70 26 rrcurveto
            -43 14 rlineto
            -102 34 -52 52 0 68 0 23 5 21 11 20 11 20 15 16 18 14 18 14 22 10 24 8 24 8 24 4 25 0 113 0 71 -40 27 -81 rrcurveto
            141 28 rlineto
            -7 36 -14 32 -21 28 -21 28 -27 23 -32 20 -32 20 -35 15 -39 10 -39 10 -40 6 -41 0 rrcurveto
            -6 hlineto
            -53 -1 -49 -10 -43 -16 -43 -16 -36 -21 -30 -27 -30 -27 -24 -31 -16 -36 -16 -36 -9 -37 0 -41 0 -31 6 -31 11 -28 11 -28 18 -27 27 -25 rrcurveto
            27 -25 36 -23 44 -23 44 -23 57 -22 68 -22 rrcurveto
            return
          </CharString>
          <CharString index="231">
            -142 478 -1316 158 1316 457 142 vlineto
            return
          </CharString>
          <CharString index="232">
            -728 vlineto
            0 -79 20 -60 39 -40 39 -40 70 -21 101 0 rrcurveto
            69 127 -69 hlineto
            -78 -39 39 78 hvcurveto
            724 197 135 -197 250 -152 -250 -141 -135 vlineto
            return
          </CharString>
          <CharString index="233">
            0 10 -1 8 -1 5 -5 24 -13 20 -19 16 -19 16 -23 9 -26 0 -29 0 -26 -10 -21 -21 -21 -21 -11 -26 0 -30 0 -8 1 -7 2 -7 rrcurveto
            5 -25 13 -20 19 -16 19 -16 23 -7 26 0 0 -50 -24 -59 -48 -69 rrcurveto
            56 -31 21 29 rlineto
            13 20 11 17 9 16 9 16 11 20 12 26 12 26 10 28 6 29 6 29 3 30 0 29 rrcurveto
            return
          </CharString>
          <CharString index="234">
            0 -29 4 -30 6 -29 6 -29 10 -28 12 -26 12 -26 10 -20 9 -16 9 -16 11 -17 13 -20 rrcurveto
            21 -29 56 31 rlineto
            -48 69 -24 59 0 50 26 0 23 7 19 16 19 16 13 20 5 25 2 7 1 7 0 8 0 30 -11 26 -21 21 -21 21 -26 10 -29 0 rrcurveto
            -26 0 -23 -9 -19 -16 -19 -16 -13 -20 -5 -24 -1 -5 -1 -8 0 -10 rrcurveto
            return
          </CharString>
          <CharString index="235">
            1 -11 2 -9 5 -6 2 -3 3 -2 2 -2 10 -9 13 -6 15 0 13 0 11 4 11 8 11 8 7 12 2 16 rrcurveto
            22 152 rlineto
            0 19 -6 16 -9 13 -2 3 -4 3 -3 3 -12 13 -17 6 -20 0 rrcurveto
            -5 hlineto
            -15 0 -14 -4 -13 -9 -19 -14 -10 -21 0 -27 rrcurveto
            return
          </CharString>
          <CharString index="236">
            -146 vlineto
            20 16 19 15 16 14 16 14 19 13 22 10 22 10 23 5 24 0 15 0 16 -6 17 -10 17 -10 16 -13 16 -15 16 -15 17 -14 17 -15 rrcurveto
            17 -15 19 -13 21 -10 21 -10 22 -6 21 0 23 0 22 5 23 10 23 10 19 12 18 15 18 15 20 15 22 17 rrcurveto
            145 vlineto
            -22 -16 -20 -16 -18 -14 -18 -14 -21 -12 -23 -10 -23 -10 -22 -6 -21 0 -19 0 -20 6 -19 10 -19 10 -18 12 -16 15 rrcurveto
            -48 45 rlineto
            -16 15 -17 13 -19 10 -19 10 -18 5 -18 0 -24 0 -24 -6 -24 -11 -24 -11 -20 -13 -16 -14 -16 -14 -18 -14 -17 -13 rrcurveto
            return
          </CharString>
          <CharString index="237">
            0 -29 3 -30 6 -29 6 -29 10 -27 12 -26 12 -26 11 -20 9 -16 9 -16 11 -18 13 -20 rrcurveto
            21 -29 56 31 rlineto
            -48 69 -24 59 0 50 26 0 23 8 19 16 19 16 13 19 5 25 2 7 1 7 0 8 0 30 -11 25 -21 21 -21 21 -26 11 -29 0 rrcurveto
            -26 0 -23 -8 -19 -16 -19 -16 -13 -21 -5 -24 -1 -5 -1 -8 0 -10 rrcurveto
            return
          </CharString>
          <CharString index="238">
            0 -8 0 -7 2 -8 10 -48 43 -37 52 0 59 0 49 48 0 60 0 7 -1 8 -2 7 -10 49 -43 35 -52 0 0 72 51 76 21 30 rrcurveto
            -56 31 rlineto
            -22 -35 -101 -123 0 -157 rrcurveto
            return
          </CharString>
          <CharString index="239">
            8 0 7 1 7 2 27 8 20 12 14 17 16 19 8 23 0 26 0 29 -10 26 -21 21 -21 21 -26 10 -29 0 -10 0 -8 -1 -5 -1 rrcurveto
            -24 -5 -21 -13 -16 -19 -16 -19 -8 -23 0 -26 0 -29 11 -26 21 -21 21 -21 25 -11 30 0 rrcurveto
            return
          </CharString>
          <CharString index="240">
            8 0 7 0 7 2 27 8 21 13 14 17 16 19 7 23 0 26 0 29 -10 25 -21 21 -21 21 -26 10 -29 0 -10 0 -7 -1 -5 -1 rrcurveto
            -24 -5 -21 -12 -16 -19 -16 -19 -9 -23 0 -26 0 -29 11 -26 21 -21 21 -21 25 -11 30 0 rrcurveto
            return
          </CharString>
          <CharString index="241">
            0 -19 2 -18 4 -17 14 -60 31 -49 46 -38 48 -39 54 -19 63 0 73 0 61 26 51 50 51 50 26 61 0 72 0 21 -2 18 -3 14 rrcurveto
            -14 61 -31 49 -46 37 -48 39 -55 19 -63 0 -73 0 -61 -25 -51 -50 -51 -50 -26 -62 0 -71 rrcurveto
            return
          </CharString>
          <CharString index="242">
            0 48 15 37 30 26 30 26 32 13 34 0 41 0 35 -14 29 -28 29 -28 14 -36 0 -44 0 -48 -15 -38 -29 -27 -29 -27 -35 -14 -40 0 rrcurveto
            -41 0 -33 14 -27 27 -27 27 -13 38 0 48 rrcurveto
            return
          </CharString>
          <CharString index="243">
            0 48 15 37 30 26 30 26 32 13 36 0 41 0 35 -14 29 -28 29 -28 14 -36 0 -44 0 -48 -15 -37 -29 -27 -29 -27 -35 -14 -40 0 rrcurveto
            -44 0 -34 14 -26 27 -26 27 -13 37 0 48 rrcurveto
            return
          </CharString>
          <CharString index="244">
            715 1183 -143 0 -722 -1183 rlineto
            return
          </CharString>
          <CharString index="245">
            0 -44 8 -39 16 -33 16 -33 22 -28 25 -23 25 -23 29 -16 33 -12 33 -12 33 -5 33 0 40 0 36 7 33 15 33 15 29 20 25 25 rrcurveto
            25 25 19 28 14 32 14 32 6 33 0 36 0 44 -8 39 -16 33 -16 33 -22 29 -26 23 -26 23 -29 17 -33 12 -33 12 -32 6 -33 0 rrcurveto
            -41 0 -38 -8 -33 -15 -33 -15 -29 -20 -24 -25 -24 -25 -19 -29 -13 -33 -13 -33 -6 -34 0 -34 rrcurveto
            return
          </CharString>
          <CharString index="246">
            0 -44 8 -39 16 -33 16 -33 22 -28 25 -23 25 -23 29 -16 33 -12 33 -12 32 -5 33 0 40 0 37 7 33 15 33 15 29 20 25 25 rrcurveto
            25 25 19 28 14 32 14 32 6 33 0 36 0 44 -8 39 -16 33 -16 33 -22 29 -26 23 -26 23 -29 17 -33 12 -33 12 -33 6 -33 0 rrcurveto
            -41 0 -37 -8 -33 -15 -33 -15 -29 -20 -24 -25 -24 -25 -19 -29 -13 -33 -13 -33 -6 -34 0 -34 rrcurveto
            return
          </CharString>
          <CharString index="247">
            0 -4 0 -3 1 -2 5 -14 6 -10 8 -5 10 -7 10 -3 13 0 13 0 13 4 11 9 11 9 6 11 1 15 rrcurveto
            21 251 rlineto
            0 5 -1 7 -1 8 -3 17 -9 15 -15 10 -14 10 -14 4 -17 0 rrcurveto
            -4 hlineto
            -19 0 -18 -7 -14 -13 -14 -13 -7 -19 0 -24 rrcurveto
            return
          </CharString>
          <CharString index="248">
            0 -8 1 -7 2 -7 5 -25 13 -20 19 -16 19 -16 23 -8 26 0 29 0 26 10 21 21 21 21 10 26 0 29 0 10 -1 8 -1 5 rrcurveto
            -5 24 -13 21 -19 16 -19 16 -23 8 -26 0 -29 0 -26 -11 -21 -21 -21 -21 -11 -25 0 -30 rrcurveto
            return
          </CharString>
          <CharString index="249">
            41 951 rlineto
            0 25 -10 22 -20 18 -20 18 -24 9 -27 0 -26 0 -23 -9 -20 -18 -20 -18 -9 -23 0 -26 rrcurveto
            41 -949 rlineto
            0 -17 6 -14 11 -11 11 -11 14 -5 17 -1 15 0 14 6 12 11 12 11 5 14 0 17 rrcurveto
            return
          </CharString>
          <CharString index="250">
            -84 258 220 160 -272 0 -84 259 -84 -259 -272 0 220 -160 -84 -258 220 160 rlineto
            return
          </CharString>
          <CharString index="251">
            -8 0 -7 -1 -7 -2 -27 -8 -21 -12 -14 -17 -16 -19 -8 -23 0 -26 0 -29 11 -26 21 -21 21 -21 26 -10 29 0 10 0 7 1 5 1 rrcurveto
            24 5 21 13 16 19 16 19 8 23 0 26 0 29 -10 26 -21 21 -21 21 -25 11 -30 0 rrcurveto
            return
          </CharString>
          <CharString index="252">
            0 8 -1 7 -2 7 -8 27 -11 20 -17 14 -19 16 -23 8 -26 0 -29 0 -26 -11 -21 -21 -21 -21 -11 -25 0 -29 0 -10 1 -8 1 -5 rrcurveto
            5 -24 14 -20 19 -16 19 -16 23 -9 26 0 29 0 26 10 21 21 21 21 10 26 0 30 rrcurveto
            return
          </CharString>
          <CharString index="253">
            -8 0 -7 -1 -7 -2 -27 -8 -20 -12 -14 -17 -16 -19 -8 -23 0 -26 0 -29 11 -26 21 -21 21 -21 25 -10 29 0 10 0 8 1 5 1 rrcurveto
            24 5 20 13 16 19 16 19 9 23 0 26 0 29 -10 26 -21 21 -21 21 -26 11 -30 0 rrcurveto
            return
          </CharString>
          <CharString index="254">
            0 8 -1 7 -2 7 -8 27 -12 20 -17 14 -19 16 -23 8 -26 0 -29 0 -25 -11 -21 -21 -21 -21 -11 -25 0 -29 0 -10 1 -8 1 -5 rrcurveto
            5 -24 13 -20 19 -16 19 -16 23 -9 26 0 29 0 26 10 21 21 21 21 11 26 0 30 rrcurveto
            return
          </CharString>
          <CharString index="255">
            0 8 0 7 -2 7 -8 27 -13 21 -17 14 -19 16 -23 7 -26 0 -29 0 -25 -10 -21 -21 -21 -21 -10 -26 0 -29 0 -10 1 -7 1 -5 rrcurveto
            5 -24 12 -21 19 -16 19 -16 23 -9 26 0 29 0 26 11 21 21 21 21 11 25 0 30 rrcurveto
            return
          </CharString>
          <CharString index="256">
            0 8 -1 7 -2 7 -8 27 -12 20 -17 14 -19 16 -23 8 -26 0 -29 0 -25 -10 -21 -21 -21 -21 -11 -26 0 -29 0 -10 1 -8 1 -5 rrcurveto
            5 -24 13 -21 19 -16 19 -16 23 -8 26 0 29 0 26 11 21 21 21 21 11 25 0 30 rrcurveto
            return
          </CharString>
          <CharString index="257">
            -12 -49 -6 -52 0 -54 0 -49 5 -48 10 -47 17 -79 30 -64 44 -50 44 -50 55 -26 67 0 58 0 51 20 42 40 42 40 31 51 20 61 rrcurveto
            20 61 9 67 0 73 0 51 -5 50 -10 48 -17 79 -30 65 -43 50 -43 50 -55 25 -66 0 -44 0 -40 -12 -36 -24 -36 -24 -29 -32 -22 -39 rrcurveto
            -22 -39 -17 -44 -12 -49 rrcurveto
            return
          </CharString>
          <CharString index="258">
            0 34 4 34 6 34 6 34 9 30 11 27 11 27 14 22 16 14 16 14 16 8 18 0 24 0 22 -13 18 -26 18 -26 15 -36 10 -48 rrcurveto
            9 -42 4 -43 0 -44 0 -34 -3 -34 -6 -33 -6 -33 -8 -29 -11 -27 -11 -27 -13 -20 -16 -14 -16 -14 -16 -7 -18 0 -25 0 -22 13 -19 26 rrcurveto
            -19 26 -15 38 -10 49 -8 38 -5 40 0 42 rrcurveto
            return
          </CharString>
          <CharString index="259">
            8 1 8 0 10 0 23 0 22 -10 20 -19 20 -19 14 -25 7 -31 2 -11 1 -12 0 -11 0 -43 -10 -34 -21 -25 -21 -25 -27 -12 -33 0 rrcurveto
            -58 0 -39 33 -23 66 rrcurveto
            -10 28 -146 -26 11 -37 rlineto
            17 -61 33 -49 47 -38 47 -38 56 -19 65 0 52 0 47 13 40 27 40 27 31 34 20 42 20 42 10 45 0 49 0 24 -2 23 -5 23 rrcurveto
            -13 63 -30 49 -45 38 -45 38 -54 19 -63 0 -29 0 -27 -4 -23 -5 rrcurveto
            19 125 275 0 0 140 -401 0 -55 -389 111 -57 16 8 rlineto
            3 2 4 3 5 4 5 4 4 3 2 2 2 2 4 2 5 3 5 3 4 2 5 2 5 2 5 2 7 2 7 2 8 2 8 1 rrcurveto
            return
          </CharString>
          <CharString index="260">
            0 -28 -11 -25 -22 -22 -22 -22 -27 -11 -35 0 -27 0 -24 8 -21 16 -21 16 -13 21 -5 25 -2 7 0 8 0 9 0 30 11 27 21 23 rrcurveto
            21 23 27 11 32 0 29 0 25 -9 21 -17 21 -17 13 -22 6 -26 2 -9 1 -8 0 -8 rrcurveto
            return
          </CharString>
          <CharString index="261">
            166 298 -157 0 -177 -309 -25 -42 rlineto
            -5 -9 -6 -10 -6 -12 -6 -12 -7 -16 -8 -20 -8 -20 -8 -21 -4 -21 -4 -21 -2 -21 0 -22 0 -18 1 -17 4 -16 12 -57 30 -48 45 -40 rrcurveto
            45 -40 55 -19 64 0 39 0 35 8 34 15 34 15 28 19 22 24 22 24 17 28 13 30 13 30 6 29 0 31 0 18 -1 19 -4 18 rrcurveto
            -13 60 -31 49 -48 39 -48 39 -55 18 -62 0 rrcurveto
            return
          </CharString>
          <CharString index="262">
            -570 -144 357 hlineto
            -258 -653 167 0 rlineto
            return
          </CharString>
          <CharString index="263">
            0 24 8 20 15 15 15 15 23 8 30 0 26 0 20 -6 15 -11 15 -11 10 -15 4 -19 1 -7 1 -7 0 -6 0 -27 -9 -21 -16 -15 rrcurveto
            -16 -15 -22 -8 -28 0 -24 0 -20 6 -16 11 -16 11 -10 16 -4 20 -2 7 0 7 0 8 rrcurveto
            return
          </CharString>
          <CharString index="264">
            -30 0 -26 10 -23 18 -23 18 -14 23 -6 28 -2 9 -1 9 0 9 0 37 12 29 23 21 23 21 31 11 38 0 31 0 27 -9 24 -17 rrcurveto
            24 -17 14 -22 6 -27 2 -8 0 -9 0 -10 0 -34 -13 -29 -25 -24 -25 -24 -31 -13 -36 0 rrcurveto
            return
          </CharString>
          <CharString index="265">
            0 28 10 26 22 22 22 22 28 12 34 0 27 0 24 -9 21 -16 21 -16 12 -21 6 -26 2 -8 1 -8 0 -8 0 -30 -11 -26 -21 -23 rrcurveto
            -21 -23 -27 -11 -33 0 -29 0 -25 9 -21 17 -21 17 -13 21 -6 27 -2 8 0 8 0 8 rrcurveto
            return
          </CharString>
          <CharString index="266">
            1 0 -168 -301 164 0 172 314 rlineto
            1 2 6 9 11 18 11 18 8 14 5 11 5 11 7 17 9 20 9 20 6 21 4 21 4 21 2 22 0 22 0 17 -2 16 -3 17 rrcurveto
            -12 57 -28 48 -46 40 -46 40 -55 20 -64 0 -31 0 -29 -5 -28 -10 -28 -10 -25 -13 -21 -17 -21 -17 -18 -19 -15 -21 -15 -21 -12 -24 -8 -24 rrcurveto
            -8 -24 -4 -26 0 -24 0 -18 2 -18 4 -18 13 -60 30 -49 48 -39 48 -39 55 -19 62 0 rrcurveto
            return
          </CharString>
          <CharString index="267">
            -154 -141 154 -156 140 156 154 141 -154 155 -140 hlineto
            return
          </CharString>
          <CharString index="268">
            22 -74 32 -67 38 -59 rrcurveto
            10 -16 175 0 -38 55 rlineto
            -37 54 -31 61 -23 68 -23 68 -12 68 0 68 0 139 42 131 84 121 rrcurveto
            38 55 -175 0 -10 -17 rlineto
            -40 -63 -32 -69 -21 -75 -21 -75 -11 -72 0 -70 0 -80 11 -77 22 -74 rrcurveto
            return
          </CharString>
          <CharString index="269">
            8 1 8 0 10 0 23 0 22 -10 20 -19 20 -19 14 -25 7 -31 2 -11 1 -12 0 -11 0 -43 -10 -34 -21 -25 -21 -25 -27 -12 -33 0 rrcurveto
            -58 0 -39 33 -23 66 rrcurveto
            -10 28 -146 -26 11 -37 rlineto
            17 -61 33 -49 47 -38 47 -38 56 -19 65 0 52 0 47 13 40 27 40 27 31 34 20 42 20 42 10 45 0 49 0 24 -2 23 -5 23 rrcurveto
            -13 63 -30 49 -45 38 -45 38 -54 19 -63 0 -29 0 -27 -4 -23 -5 rrcurveto
            19 125 275 0 0 140 -401 0 -55 -389 111 -57 16 8 rlineto
            3 2 4 3 5 4 5 4 4 3 2 2 2 2 4 1 5 3 5 3 4 3 5 2 5 2 5 2 7 2 7 2 8 2 8 1 rrcurveto
            return
          </CharString>
          <CharString index="270">
            -43 32 -51 16 -59 0 -68 0 -57 -21 -46 -42 -46 -42 -23 -54 0 -63 0 -17 1 -17 4 -17 9 -40 19 -34 31 -29 -15 -11 -14 -14 -15 -16 rrcurveto
            -16 -17 -14 -22 -10 -26 -10 -26 -5 -30 0 -30 0 -19 2 -18 4 -18 13 -61 32 -51 50 -39 50 -39 58 -20 65 0 49 0 46 11 43 23 rrcurveto
            43 23 34 31 26 41 26 41 12 45 0 50 0 16 -1 17 -3 15 -9 43 -16 32 -21 21 -21 21 -18 16 -14 10 44 41 21 51 0 63 rrcurveto
            0 16 -1 16 -3 15 -12 52 -28 43 -43 32 rrcurveto
            return
          </CharString>
          <CharString index="271">
            777 579 -133 55 -783 -577 rlineto
            return
          </CharString>
          <CharString index="272">
            11 36 rlineto
            10 32 17 24 22 17 22 17 24 8 26 0 26 0 22 -10 20 -20 20 -20 10 -28 0 -36 rrcurveto
            -4 -30 -8 -24 -14 -22 -16 -19 -21 -19 -22 -17 rlineto
            -2 -2 -9 -5 -13 -9 rrcurveto
            -22 -15 rlineto
            -25 -18 -22 -16 -19 -16 -19 -16 -20 -20 -22 -23 -22 -23 -18 -24 -15 -25 -15 -25 -11 -28 -10 -32 -10 -32 -5 -33 0 -35 rrcurveto
            -35 524 140 -351 vlineto
            8 16 rlineto
            5 9 9 13 15 17 15 17 15 15 16 15 16 15 13 12 12 8 rrcurveto
            22 14 29 20 rlineto
            9 6 11 9 14 11 14 11 12 11 11 10 11 10 11 12 12 15 12 15 10 15 8 15 8 15 7 17 5 19 5 19 3 20 0 20 rrcurveto
            0 33 -5 31 -9 29 -9 29 -12 24 -16 20 -16 20 -19 17 -21 14 -21 14 -22 10 -23 6 -23 6 -24 3 -25 0 -58 0 -54 -18 -49 -37 rrcurveto
            -49 -37 -32 -44 -15 -54 rrcurveto
            -9 -31 rlineto
            return
          </CharString>
          <CharString index="273">
            0 -90 -8 -80 -16 -69 -16 -69 -26 -61 -35 -53 -35 -53 -48 -41 -61 -28 -61 -28 -72 -14 -85 0 rrcurveto
            -245 1174 245 hlineto
            57 0 51 -9 48 -17 48 -17 41 -24 33 -30 33 -30 28 -36 25 -38 25 -38 19 -41 14 -45 14 -45 10 -45 7 -43 7 -43 3 -44 0 -43 rrcurveto
            return
          </CharString>
          <CharString index="274">
            0 95 -13 91 -26 87 -26 87 -38 77 -49 68 -49 68 -62 54 -75 41 -75 41 -84 20 -91 0 rrcurveto
            -444 -1456 444 hlineto
            92 0 84 19 75 37 75 37 61 51 49 66 49 66 38 77 26 88 26 88 13 95 0 103 rrcurveto
            return
          </CharString>
          <CharString index="275">
            0 -5 1 -6 1 -8 5 -21 11 -19 17 -14 17 -14 20 -7 22 0 25 0 22 9 19 19 19 19 9 22 0 25 0 9 -1 6 -1 4 rrcurveto
            -5 21 -10 19 -17 14 -17 14 -20 7 -23 0 -25 0 -22 -9 -19 -19 -19 -19 -9 -22 0 -25 rrcurveto
            return
          </CharString>
          <CharString index="276">
            0 -5 1 -6 1 -8 3 -20 11 -19 19 -15 17 -14 20 -7 22 0 25 0 22 9 19 19 19 19 9 22 0 25 0 9 -1 6 -1 4 rrcurveto
            -8 24 -10 19 -14 11 -17 14 -20 7 -23 0 -25 0 -22 -9 -19 -19 -19 -19 -9 -22 0 -25 rrcurveto
            return
          </CharString>
          <CharString index="277">
            0 -90 -8 -80 -16 -69 -16 -69 -25 -61 -35 -53 -35 -53 -48 -41 -61 -28 -61 -28 -73 -14 -85 0 rrcurveto
            -245 1174 245 hlineto
            57 0 52 -9 48 -17 48 -17 39 -24 33 -30 33 -30 29 -36 25 -38 25 -38 19 -41 14 -45 14 -45 10 -45 7 -43 7 -43 3 -44 0 -43 rrcurveto
            return
          </CharString>
          <CharString index="278">
            0 95 -14 91 -26 87 -26 87 -37 77 -49 68 -49 68 -62 54 -75 41 -75 41 -84 20 -91 0 rrcurveto
            -444 -1456 444 hlineto
            92 0 83 19 75 37 75 37 62 51 49 66 49 66 37 77 26 88 26 88 14 95 0 103 rrcurveto
            return
          </CharString>
          <CharString index="279">
            0 43 3 44 7 43 7 43 11 45 14 45 14 45 19 41 25 38 25 38 28 36 33 30 33 30 40 24 48 17 48 17 52 9 57 0 rrcurveto
            244 -1174 -244 hlineto
            -85 0 -73 14 -61 28 -61 28 -48 41 -35 53 -35 53 -26 61 -16 69 -16 69 -8 80 0 90 rrcurveto
            return
          </CharString>
          <CharString index="280">
            0 -103 14 -95 26 -88 26 -88 37 -77 49 -66 49 -66 62 -51 75 -37 75 -37 83 -19 92 0 rrcurveto
            444 1456 -444 hlineto
            -91 0 -84 -20 -75 -41 -75 -41 -62 -54 -49 -68 -49 -68 -37 -77 -26 -87 -26 -87 -14 -91 0 -95 rrcurveto
            return
          </CharString>
          <CharString index="281">
            -64 192 1242 0 0 128 -1242 0 64 192 -256 -256 rlineto
            return
          </CharString>
          <CharString index="282">
            192 64 0 -1242 128 0 0 1242 192 -64 -256 256 rlineto
            return
          </CharString>
          <CharString index="283">
            -64 -192 256 256 -256 256 64 -192 -1242 0 0 -128 rlineto
            return
          </CharString>
          <CharString index="284">
            -1178 0 64 192 -256 -256 256 -256 -64 192 1178 0 0 -128 64 0 0 384 -64 0 rlineto
            return
          </CharString>
          <CharString index="285">
            1434 128 -1178 hlineto
            64 192 rlineto
            return
          </CharString>
          <CharString index="286">
            -1434 0 320 -320 -64 192 1178 0 rlineto
            return
          </CharString>
          <CharString index="287">
            1434 0 -320 320 64 -192 -1178 0 rlineto
            return
          </CharString>
          <CharString index="288">
            1 102 -357 263 364 251 0 90 -489 -340 rlineto
            return
          </CharString>
          <CharString index="289">
            481 366 -489 340 0 -90 364 -251 -357 -263 rlineto
            return
          </CharString>
          <CharString index="290">
            -482 -1602 -161 537 -474 0 0 -142 351 0 175 -563 219 0 536 1770 rlineto
            return
          </CharString>
          <CharString index="291">
            0 -41 4 -40 8 -37 17 -82 35 -72 54 -60 54 -61 61 -45 67 -28 67 -28 70 -14 71 0 86 0 82 20 77 42 77 42 64 61 50 79 rrcurveto
            50 79 24 88 0 97 0 36 -4 37 -7 38 -25 117 -60 96 -93 74 -93 74 -107 38 -121 0 -46 0 -46 -6 -46 -13 -46 -13 -46 -20 -45 -27 rrcurveto
            -45 -27 -40 -33 -34 -39 -34 -39 -27 -48 -21 -57 -21 -57 -11 -63 0 -68 rrcurveto
            return
          </CharString>
          <CharString index="292">
            0 -10 1 -9 2 -8 6 -30 16 -24 23 -19 23 -19 27 -10 31 0 35 0 31 13 25 25 25 25 13 31 0 35 0 12 -1 9 -2 6 rrcurveto
            -6 29 -15 24 -23 20 -23 20 -28 9 -31 0 -35 0 -30 -12 -26 -25 -26 -25 -12 -31 0 -36 rrcurveto
            return
          </CharString>
          <CharString index="293">
            -168 hlineto
            22 -64 28 -54 36 -44 38 -48 45 -36 51 -24 51 -24 54 -12 59 0 64 0 58 15 51 28 51 28 43 38 36 51 30 41 24 48 18 55 rrcurveto
            -156 hlineto
            -10 -20 -10 -20 -11 -18 -48 -74 -62 -36 -78 0 -36 0 -34 10 -31 20 -31 20 -28 28 -25 37 -12 15 -11 18 -8 22 rrcurveto
            return
          </CharString>
          <CharString index="294">
            -168 hlineto
            22 -64 28 -54 36 -44 38 -48 44 -36 51 -24 51 -24 54 -12 59 0 64 0 58 14 51 28 51 28 44 39 36 51 30 41 23 48 18 55 rrcurveto
            -155 hlineto
            -10 -20 -10 -20 -11 -18 -48 -74 -63 -37 -78 0 -36 0 -33 10 -31 20 -31 20 -28 28 -25 37 -12 15 -11 19 -8 22 rrcurveto
            return
          </CharString>
          <CharString index="295">
            0 -8 1 -7 1 -4 rrcurveto
            7 -20 rlineto
            16 -37 29 -19 41 0 15 0 12 4 10 5 38 16 19 29 0 41 0 8 -1 6 -1 4 rrcurveto
            -6 21 rlineto
            -16 37 -29 18 -41 0 -15 0 -12 -3 -10 -5 -38 -16 -20 -29 0 -41 rrcurveto
            return
          </CharString>
          <CharString index="296">
            0 26 6 24 12 22 27 52 43 26 57 0 16 0 15 -2 14 -4 52 -18 33 -37 12 -56 1 -11 1 -11 0 -11 0 -26 -6 -24 -11 -22 rrcurveto
            -27 -52 -43 -26 -57 0 -16 0 -16 3 -15 4 -51 18 -31 36 -12 56 -3 11 -1 11 0 11 rrcurveto
            return
          </CharString>
          <CharString index="297">
            0 -18 2 -17 4 -18 7 -34 14 -32 20 -29 52 -74 71 -36 92 0 56 0 51 16 45 31 74 52 37 70 0 89 0 18 -2 17 -4 18 rrcurveto
            -7 34 -15 32 -20 29 -52 74 -71 36 -92 0 -56 0 -50 -16 -45 -31 -74 -52 -37 -70 0 -89 rrcurveto
            return
          </CharString>
          <CharString index="298">
            0 26 7 24 12 22 27 52 43 26 57 0 16 0 15 -2 14 -4 52 -18 32 -37 12 -56 1 -11 1 -11 0 -11 0 -26 -5 -24 -11 -22 rrcurveto
            -27 -52 -43 -26 -57 0 -16 0 -16 3 -15 4 -51 18 -31 36 -12 56 -3 11 -2 11 0 11 rrcurveto
            return
          </CharString>
          <CharString index="299">
            0 -18 2 -17 4 -18 7 -34 14 -32 20 -29 52 -74 71 -36 92 0 56 0 51 16 45 31 74 52 36 70 0 89 0 18 -2 17 -4 18 rrcurveto
            -7 34 -14 32 -20 29 -52 74 -71 36 -92 0 -56 0 -51 -16 -45 -31 -74 -52 -36 -70 0 -89 rrcurveto
            return
          </CharString>
          <CharString index="300">
            0 26 7 24 12 22 27 52 43 26 57 0 16 0 15 -2 14 -4 52 -18 32 -37 12 -56 1 -11 2 -11 0 -11 0 -26 -6 -24 -11 -22 rrcurveto
            -27 -52 -43 -26 -57 0 -16 0 -16 3 -15 4 -51 18 -31 36 -12 56 -3 11 -2 11 0 11 rrcurveto
            return
          </CharString>
          <CharString index="301">
            0 -18 2 -17 4 -18 7 -34 14 -32 20 -29 52 -74 71 -36 92 0 56 0 51 16 45 31 74 52 37 70 0 89 0 18 -2 17 -4 18 rrcurveto
            -7 34 -14 32 -20 29 -52 74 -72 36 -92 0 -56 0 -50 -16 -45 -31 -74 -52 -37 -70 0 -89 rrcurveto
            return
          </CharString>
          <CharString index="302">
            0 63 11 57 24 52 24 52 31 42 39 31 39 31 42 24 45 16 45 16 45 9 46 0 35 0 38 -6 39 -13 39 -13 38 -18 37 -24 rrcurveto
            37 -24 33 -32 29 -41 29 -41 19 -45 11 -50 6 -27 3 -28 0 -31 0 -60 -12 -55 -24 -51 -24 -51 -31 -41 -39 -32 -39 -32 -42 -26 -46 -18 rrcurveto
            -46 -18 -45 -8 -45 0 -39 0 -40 6 -39 12 -39 12 -38 18 -36 24 -36 24 -32 31 -27 39 -27 39 -18 44 -11 49 -6 29 -3 32 0 33 rrcurveto
            return
          </CharString>
          <CharString index="303">
            0 -41 4 -40 8 -37 17 -82 35 -71 54 -61 54 -61 61 -45 67 -28 67 -28 70 -14 71 0 86 0 82 20 77 42 77 42 64 61 50 79 rrcurveto
            50 79 24 88 0 97 0 36 -4 37 -7 38 -25 117 -60 96 -93 74 -93 74 -107 38 -121 0 -46 0 -46 -6 -46 -13 -46 -13 -46 -20 -45 -27 rrcurveto
            -45 -27 -40 -33 -34 -39 -34 -39 -27 -48 -21 -57 -21 -57 -11 -63 0 -68 rrcurveto
            return
          </CharString>
          <CharString index="304">
            127 2400 -127 hlineto
            return
          </CharString>
        <CharString name=".notdef">
          -90 0 102 860 102 hstem
          102 102 616 102 vstem
          102 hmoveto
          820 1064 -820 hlineto
          102 -962 rmoveto
          860 616 -860 vlineto
          endchar
        </CharString>
        <CharString name=".null">
          -1114 endchar
        </CharString>
        <CharString name="A">
          188 659 1214 rmoveto
          -98 callsubr
          452 -136 rmoveto
          -97 callsubr
          endchar
        </CharString>
        <CharString name="AE">
          274 785 645 rmoveto
          -14 callsubr
          262 592 rmoveto
          -13 callsubr
          endchar
        </CharString>
        <CharString name="Aacute">
          188 651 1214 rmoveto
          -98 callsubr
          452 -136 rmoveto
          -97 callsubr
          177 1191 rmoveto
          -21 callsubr
          endchar
        </CharString>
        <CharString name="Abreve">
          188 660 1648 rmoveto
          -11 callsubr
          -9 -434 rmoveto
          -98 callsubr
          452 -136 rmoveto
          -97 callsubr
          endchar
        </CharString>
        <CharString name="Abrevecyrillic">
          188 662 1648 rmoveto
          -11 callsubr
          -3 -434 rmoveto
          -98 callsubr
          452 -136 rmoveto
          -97 callsubr
          endchar
        </CharString>
        <CharString name="Acircumflex">
          178 1009 1561 rmoveto
          -66 callsubr
          -152 -347 rmoveto
          -98 callsubr
          452 -136 rmoveto
          -97 callsubr
          endchar
        </CharString>
        <CharString name="Adieresis">
          178 805 1684 rmoveto
          -28 callsubr
          -471 -2 rmoveto
          -27 callsubr
          335 -468 rmoveto
          -98 callsubr
          452 -136 rmoveto
          -97 callsubr
          endchar
        </CharString>
        <CharString name="Adieresiscyrillic">
          188 659 1214 rmoveto
          -98 callsubr
          452 -136 rmoveto
          -97 callsubr
          endchar
        </CharString>
        <CharString name="Agrave">
          188 651 1214 rmoveto
          -98 callsubr
          452 -136 rmoveto
          -97 callsubr
          310 1191 rmoveto
          -65 callsubr
          endchar
        </CharString>
        <CharString name="Aiecyrillic">
          274 785 645 rmoveto
          -14 callsubr
          262 592 rmoveto
          -13 callsubr
          endchar
        </CharString>
        <CharString name="Alpha">
          188 659 1214 rmoveto
          -98 callsubr
          452 -136 rmoveto
          -97 callsubr
          endchar
        </CharString>
        <CharString name="Alphaacute">
          188 93 1512 rmoveto
          -21 callsubr
          285 -548 rmoveto
          -98 callsubr
          452 -136 rmoveto
          -97 callsubr
          endchar
        </CharString>
        <CharString name="Alphaasper">
          188 251 1671 rmoveto
          127 callsubr
          408 -457 rmoveto
          -98 callsubr
          452 -136 rmoveto
          -97 callsubr
          endchar
        </CharString>
        <CharString name="Alphaasperacute">
          276 310 1512 rmoveto
          -21 callsubr
          192 -548 rmoveto
          -98 callsubr
          452 -136 rmoveto
          -97 callsubr
          endchar
        </CharString>
        <CharString name="Alphaaspergrave">
          276 676 1516 rmoveto
          -65 callsubr
          107 -302 rmoveto
          -98 callsubr
          452 -136 rmoveto
          -97 callsubr
          endchar
        </CharString>
        <CharString name="Alphaaspertilde">
          276 287 1684 rmoveto
          -6 callsubr
          -53 -13 rmoveto
          126 callsubr
          549 -457 rmoveto
          -98 callsubr
          452 -136 rmoveto
          -97 callsubr
          endchar
        </CharString>
        <CharString name="Alphabreve">
          188 662 1648 rmoveto
          -11 callsubr
          -3 -434 rmoveto
          -98 callsubr
          452 -136 rmoveto
          -97 callsubr
          endchar
        </CharString>
        <CharString name="Alphagrave">
          188 463 1510 rmoveto
          -65 callsubr
          196 -296 rmoveto
          -98 callsubr
          452 -136 rmoveto
          -97 callsubr
          endchar
        </CharString>
        <CharString name="Alphaiotasub">
          188 603 -348 rmoveto
          128 callsubr
          75 1409 rmoveto
          -98 callsubr
          452 -136 rmoveto
          -97 callsubr
          endchar
        </CharString>
        <CharString name="Alphaiotasubasper">
          188 253 1671 rmoveto
          127 callsubr
          350 -2019 rmoveto
          128 callsubr
          75 1409 rmoveto
          -98 callsubr
          452 -136 rmoveto
          -97 callsubr
          endchar
        </CharString>
        <CharString name="Alphaiotasubasperacute">
          188 292 1512 rmoveto
          -21 callsubr
          -541 -91 rmoveto
          127 callsubr
          571 -2019 rmoveto
          128 callsubr
          75 1409 rmoveto
          -98 callsubr
          452 -136 rmoveto
          -97 callsubr
          endchar
        </CharString>
        <CharString name="Alphaiotasubaspergrave">
          396 19 1671 rmoveto
          127 callsubr
          760 -2019 rmoveto
          128 callsubr
          75 1409 rmoveto
          -98 callsubr
          452 -136 rmoveto
          -97 callsubr
          92 1025 rmoveto
          -65 callsubr
          endchar
        </CharString>
        <CharString name="Alphaiotasubaspertilde">
          188 28 1671 rmoveto
          127 callsubr
          242 11 rmoveto
          -6 callsubr
          333 -2030 rmoveto
          128 callsubr
          75 1409 rmoveto
          -98 callsubr
          452 -136 rmoveto
          -97 callsubr
          endchar
        </CharString>
        <CharString name="Alphaiotasublenis">
          188 465 1671 rmoveto
          126 callsubr
          138 -2019 rmoveto
          128 callsubr
          75 1409 rmoveto
          -98 callsubr
          452 -136 rmoveto
          -97 callsubr
          endchar
        </CharString>
        <CharString name="Alphaiotasublenisacute">
          396 234 1671 rmoveto
          126 callsubr
          585 -2019 rmoveto
          128 callsubr
          75 1409 rmoveto
          -98 callsubr
          452 -136 rmoveto
          -97 callsubr
          48 1025 rmoveto
          -65 callsubr
          endchar
        </CharString>
        <CharString name="Alphaiotasublenisgrave">
          396 234 1671 rmoveto
          126 callsubr
          585 -2019 rmoveto
          128 callsubr
          75 1409 rmoveto
          -98 callsubr
          452 -136 rmoveto
          -97 callsubr
          58 1028 rmoveto
          -65 callsubr
          endchar
        </CharString>
        <CharString name="Alphaiotasublenistilde">
          188 295 1684 rmoveto
          -6 callsubr
          -61 -13 rmoveto
          126 callsubr
          369 -2019 rmoveto
          128 callsubr
          75 1409 rmoveto
          -98 callsubr
          452 -136 rmoveto
          -97 callsubr
          endchar
        </CharString>
        <CharString name="Alphalenis">
          188 477 1671 rmoveto
          126 callsubr
          182 -457 rmoveto
          -98 callsubr
          452 -136 rmoveto
          -97 callsubr
          endchar
        </CharString>
        <CharString name="Alphalenisacute">
          276 234 1671 rmoveto
          126 callsubr
          92 -159 rmoveto
          -21 callsubr
          176 -548 rmoveto
          -98 callsubr
          452 -136 rmoveto
          -97 callsubr
          endchar
        </CharString>
        <CharString name="Alphalenisgrave">
          276 235 1671 rmoveto
          126 callsubr
          433 -159 rmoveto
          -65 callsubr
          115 -298 rmoveto
          -98 callsubr
          452 -136 rmoveto
          -97 callsubr
          endchar
        </CharString>
        <CharString name="Alphalenistilde">
          276 279 1684 rmoveto
          -6 callsubr
          -45 -13 rmoveto
          126 callsubr
          549 -457 rmoveto
          -98 callsubr
          452 -136 rmoveto
          -97 callsubr
          endchar
        </CharString>
        <CharString name="Alphamacron">
          188 320 1702 rmoveto
          -26 callsubr
          -338 -488 rmoveto
          -98 callsubr
          452 -136 rmoveto
          -97 callsubr
          endchar
        </CharString>
        <CharString name="Alphatonos">
          188 659 1214 rmoveto
          -98 callsubr
          452 -136 rmoveto
          -97 callsubr
          -84 967 rmoveto
          37 callsubr
          endchar
        </CharString>
        <CharString name="Amacron">
          188 651 1214 rmoveto
          -98 callsubr
          452 -136 rmoveto
          -97 callsubr
          -96 1254 rmoveto
          -26 callsubr
          endchar
        </CharString>
        <CharString name="Aogonek">
          188 1263 -190 rmoveto
          -10 callsubr
          -569 1529 rmoveto
          -98 callsubr
          452 -136 rmoveto
          -97 callsubr
          endchar
        </CharString>
        <CharString name="Aring">
          178 525 1739 rmoveto
          -25 callsubr
          -118 -4 rmoveto
          -24 callsubr
          262 -521 rmoveto
          -98 callsubr
          452 -136 rmoveto
          -97 callsubr
          endchar
        </CharString>
        <CharString name="Atilde">
          178 346 1770 rmoveto
          -32 callsubr
          323 -556 rmoveto
          -98 callsubr
          452 -136 rmoveto
          -97 callsubr
          endchar
        </CharString>
        <CharString name="B">
          65 279 705 rmoveto
          -96 callsubr
          1176 vmoveto
          -95 callsubr
          -158 612 rmoveto
          -94 callsubr
          endchar
        </CharString>
        <CharString name="Bdotaccent">
          65 433 1683 rmoveto
          -27 callsubr
          -154 -978 rmoveto
          -96 callsubr
          1176 vmoveto
          -95 callsubr
          -158 612 rmoveto
          -94 callsubr
          endchar
        </CharString>
        <CharString name="Beta">
          65 279 705 rmoveto
          40 callsubr
          1176 vmoveto
          41 callsubr
          -158 612 rmoveto
          42 callsubr
          endchar
        </CharString>
        <CharString name="C">
          106 1167 293 rmoveto
          -93 callsubr
          endchar
        </CharString>
        <CharString name="Cacute">
          106 576 1676 rmoveto
          -21 callsubr
          310 -1633 rmoveto
          -93 callsubr
          endchar
        </CharString>
        <CharString name="Ccaron">
          106 1048 1858 rmoveto
          -9 callsubr
          399 -1221 rmoveto
          -93 callsubr
          endchar
        </CharString>
        <CharString name="Ccedilla">
          106 574 -299 rmoveto
          -20 callsubr
          613 592 rmoveto
          -93 callsubr
          endchar
        </CharString>
        <CharString name="Ccircumflex">
          106 1046 1514 rmoveto
          -66 callsubr
          309 -1221 rmoveto
          -93 callsubr
          endchar
        </CharString>
        <CharString name="Cdotaccent">
          106 544 1683 rmoveto
          -27 callsubr
          623 -1390 rmoveto
          -93 callsubr
          endchar
        </CharString>
        <CharString name="Cheabkhasiancyrillic">
          106 1167 293 rmoveto
          65 callsubr
          endchar
        </CharString>
        <CharString name="Chedescenderabkhasiancyrillic">
          106 1167 293 rmoveto
          65 callsubr
          endchar
        </CharString>
        <CharString name="Chedescendercyrillic">
          -90 774 1456 rmoveto
          75 callsubr
          endchar
        </CharString>
        <CharString name="Chedieresiscyrillic">
          -90 651 1685 rmoveto
          -28 callsubr
          -471 -2 rmoveto
          -27 callsubr
          594 -227 rmoveto
          75 callsubr
          endchar
        </CharString>
        <CharString name="Chekhakassiancyrillic">
          -90 774 1456 rmoveto
          75 callsubr
          endchar
        </CharString>
        <CharString name="Cheverticalstrokecyrillic">
          -90 774 1456 rmoveto
          75 callsubr
          endchar
        </CharString>
        <CharString name="Chi">
          100 74 1456 rmoveto
          -69 callsubr
          endchar
        </CharString>
        <CharString name="D">
          106 987 727 rmoveto
          -92 callsubr
          166 hmoveto
          -91 callsubr
          endchar
        </CharString>
        <CharString name="Dcaron">
          106 872 1858 rmoveto
          -9 callsubr
          395 -787 rmoveto
          -92 callsubr
          166 hmoveto
          -91 callsubr
          endchar
        </CharString>
        <CharString name="Dcroat">
          264 288 662 rmoveto
          -662 154 vlineto
          226 hlineto
          117 0 106 32 93 64 93 64 71 88 50 110 50 110 25 123 0 135 0 69 -8 68 -13 65 -33 157 -69 128 -104 97 -104 97 -126 49 -148 0 rrcurveto
          -380 -653 -182 -141 hlineto
          339 hmoveto
          299 141 -299 509 223 hlineto
          105 0 92 -37 77 -74 77 -74 52 -99 27 -125 12 -55 6 -59 0 -63 0 -172 -43 -140 -84 -108 -84 -108 -108 -55 -129 0 rrcurveto
          -223 hlineto
          endchar
        </CharString>
        <CharString name="Ddotaccent">
          106 451 1683 rmoveto
          -27 callsubr
          536 -956 rmoveto
          -92 callsubr
          166 hmoveto
          -91 callsubr
          endchar
        </CharString>
        <CharString name="Delta">
          448 120 hmoveto
          44 callsubr
          -308 -1283 rmoveto
          401 1090 402 -1090 rlineto
          endchar
        </CharString>
        <CharString name="Dzeabkhasiancyrillic">
          12 113 252 rmoveto
          71 callsubr
          endchar
        </CharString>
        <CharString name="E">
          28 121 1456 rmoveto
          -90 callsubr
          endchar
        </CharString>
        <CharString name="Eacute">
          28 121 1456 rmoveto
          -90 callsubr
          -582 220 rmoveto
          -21 callsubr
          endchar
        </CharString>
        <CharString name="Ebreve">
          28 622 1648 rmoveto
          -11 callsubr
          -501 -192 rmoveto
          -90 callsubr
          endchar
        </CharString>
        <CharString name="Ecaron">
          28 970 1858 rmoveto
          -9 callsubr
          -569 -58 rmoveto
          -90 callsubr
          endchar
        </CharString>
        <CharString name="Ecircumflex">
          32 950 1538 rmoveto
          -66 callsubr
          -631 -82 rmoveto
          -90 callsubr
          endchar
        </CharString>
        <CharString name="Edieresis">
          32 737 1702 rmoveto
          -28 callsubr
          -471 -2 rmoveto
          -27 callsubr
          -135 -244 rmoveto
          -90 callsubr
          endchar
        </CharString>
        <CharString name="Edotaccent">
          28 504 1683 rmoveto
          -27 callsubr
          -383 -227 rmoveto
          -90 callsubr
          endchar
        </CharString>
        <CharString name="Egrave">
          28 121 1456 rmoveto
          -90 callsubr
          -298 220 rmoveto
          -65 callsubr
          endchar
        </CharString>
        <CharString name="Emacron">
          28 279 1771 rmoveto
          -26 callsubr
          -835 -315 rmoveto
          -90 callsubr
          endchar
        </CharString>
        <CharString name="Endescendercyrillic">
          84 121 1456 rmoveto
          -87 callsubr
          endchar
        </CharString>
        <CharString name="Eng">
          157 758 47 rmoveto
          -2 -74 -1 -45 -1 -15 rrcurveto
          4 hlineto
          42 0 48 9 55 20 44 16 43 28 43 40 49 46 30 45 13 45 23 85 13 64 0 42 0 3 -1 3 0 3 rrcurveto
          -1 1 0 540 rlineto
          0 96 -9 85 -18 72 -18 72 -27 58 -33 45 -33 45 -39 33 -44 22 -44 22 -50 11 -55 0 -81 0 -78 -16 -75 -32 -111 -47 -95 -54 -80 -61 rrcurveto
          -7 202 -152 0 7 -1456 152 0 0 902 rlineto
          0 93 6 54 10 16 33 50 56 49 79 48 64 38 52 27 40 16 66 23 47 11 27 0 45 0 40 -11 34 -22 34 -22 27 -31 20 -39 rrcurveto
          20 -39 15 -45 10 -50 10 -50 4 -55 0 -60 rrcurveto
          0 -541 0 -33 rlineto
          0 -89 -24 -70 -49 -49 -49 -49 -59 -25 -69 0 rrcurveto
          endchar
        </CharString>
        <CharString name="Enghecyrillic">
          415 121 1456 rmoveto
          -1456 158 674 493 -674 25 vlineto
          131 0 2 0 0 1315 499 0 0 141 -657 0 0 -641 -493 0 0 641 rlineto
          endchar
        </CharString>
        <CharString name="Enhookcyrillic">
          84 121 1456 rmoveto
          -87 callsubr
          endchar
        </CharString>
        <CharString name="Eogonek">
          28 1023 -190 rmoveto
          -10 callsubr
          -859 1771 rmoveto
          -90 callsubr
          endchar
        </CharString>
        <CharString name="Epsilon">
          28 121 1456 rmoveto
          -90 callsubr
          endchar
        </CharString>
        <CharString name="Epsilonacute">
          28 121 1456 rmoveto
          -90 callsubr
          endchar
        </CharString>
        <CharString name="Epsilonasper">
          107 19 1671 rmoveto
          127 callsubr
          231 -215 rmoveto
          -90 callsubr
          endchar
        </CharString>
        <CharString name="Epsilonasperacute">
          432 19 1671 rmoveto
          127 callsubr
          275 -159 rmoveto
          -21 callsubr
          -10 -306 rmoveto
          -90 callsubr
          endchar
        </CharString>
        <CharString name="Epsilonaspergrave">
          596 19 1671 rmoveto
          127 callsubr
          649 -159 rmoveto
          -65 callsubr
          61 -56 rmoveto
          -90 callsubr
          endchar
        </CharString>
        <CharString name="Epsilongrave">
          388 423 1512 rmoveto
          -65 callsubr
          58 -56 rmoveto
          -90 callsubr
          endchar
        </CharString>
        <CharString name="Epsilonlenis">
          160 234 1671 rmoveto
          126 callsubr
          19 -215 rmoveto
          -90 callsubr
          endchar
        </CharString>
        <CharString name="Epsilonlenisacute">
          400 234 1671 rmoveto
          126 callsubr
          64 -159 rmoveto
          -21 callsubr
          -82 -306 rmoveto
          -90 callsubr
          endchar
        </CharString>
        <CharString name="Epsilonlenisgrave">
          644 234 1671 rmoveto
          126 callsubr
          454 -159 rmoveto
          -65 callsubr
          53 -56 rmoveto
          -90 callsubr
          endchar
        </CharString>
        <CharString name="Epsilontonos">
          128 221 1456 rmoveto
          -90 callsubr
          -1114 -4 rmoveto
          37 callsubr
          endchar
        </CharString>
        <CharString name="Esdescendercyrillic">
          106 1167 293 rmoveto
          65 callsubr
          endchar
        </CharString>
        <CharString name="Eta">
          84 121 1456 rmoveto
          -87 callsubr
          endchar
        </CharString>
        <CharString name="Etaacute">
          448 38 1512 rmoveto
          -21 callsubr
          166 -310 rmoveto
          -87 callsubr
          endchar
        </CharString>
        <CharString name="Etaasper">
          166 19 1671 rmoveto
          127 callsubr
          234 -215 rmoveto
          -87 callsubr
          endchar
        </CharString>
        <CharString name="Etaasperacute">
          498 19 1671 rmoveto
          127 callsubr
          271 -159 rmoveto
          -21 callsubr
          14 -306 rmoveto
          -87 callsubr
          endchar
        </CharString>
        <CharString name="Etaaspergrave">
          664 19 1671 rmoveto
          127 callsubr
          652 -159 rmoveto
          -65 callsubr
          50 -52 rmoveto
          -87 callsubr
          endchar
        </CharString>
        <CharString name="Etaaspertilde">
          440 267 1684 rmoveto
          -6 callsubr
          -248 -13 rmoveto
          127 callsubr
          498 -215 rmoveto
          -87 callsubr
          endchar
        </CharString>
        <CharString name="Etagrave">
          448 423 1512 rmoveto
          -65 callsubr
          62 -56 rmoveto
          -87 callsubr
          endchar
        </CharString>
        <CharString name="Etaiotasub">
          84 549 -348 rmoveto
          128 callsubr
          -409 1651 rmoveto
          -87 callsubr
          endchar
        </CharString>
        <CharString name="Etaiotasubasper">
          126 19 1671 rmoveto
          127 callsubr
          653 -2019 rmoveto
          128 callsubr
          -409 1651 rmoveto
          -87 callsubr
          endchar
        </CharString>
        <CharString name="Etaiotasubasperacute">
          398 272 1512 rmoveto
          -21 callsubr
          -533 -91 rmoveto
          127 callsubr
          924 -2019 rmoveto
          128 callsubr
          -409 1651 rmoveto
          -87 callsubr
          endchar
        </CharString>
        <CharString name="Etaiotasubaspergrave">
          700 19 1671 rmoveto
          127 callsubr
          1134 -2019 rmoveto
          128 callsubr
          -409 1651 rmoveto
          -87 callsubr
          -208 56 rmoveto
          -65 callsubr
          endchar
        </CharString>
        <CharString name="Etaiotasubaspertilde">
          336 19 1671 rmoveto
          127 callsubr
          236 11 rmoveto
          -6 callsubr
          546 -2030 rmoveto
          128 callsubr
          -409 1651 rmoveto
          -87 callsubr
          endchar
        </CharString>
        <CharString name="Etaiotasublenis">
          216 234 1671 rmoveto
          126 callsubr
          447 -2019 rmoveto
          128 callsubr
          -409 1651 rmoveto
          -87 callsubr
          endchar
        </CharString>
        <CharString name="Etaiotasublenisacute">
          700 234 1671 rmoveto
          126 callsubr
          931 -2019 rmoveto
          128 callsubr
          -409 1651 rmoveto
          -87 callsubr
          -215 56 rmoveto
          -65 callsubr
          endchar
        </CharString>
        <CharString name="Etaiotasublenisgrave">
          704 680 1510 rmoveto
          -65 callsubr
          489 -1858 rmoveto
          128 callsubr
          -409 1651 rmoveto
          -87 callsubr
          -665 215 rmoveto
          126 callsubr
          endchar
        </CharString>
        <CharString name="Etaiotasublenistilde">
          336 291 1684 rmoveto
          -6 callsubr
          -57 -13 rmoveto
          126 callsubr
          567 -2019 rmoveto
          128 callsubr
          -409 1651 rmoveto
          -87 callsubr
          endchar
        </CharString>
        <CharString name="Etalenis">
          216 234 1671 rmoveto
          126 callsubr
          19 -215 rmoveto
          -87 callsubr
          endchar
        </CharString>
        <CharString name="Etalenisacute">
          489 234 1671 rmoveto
          126 callsubr
          51 -160 rmoveto
          -21 callsubr
          -40 -305 rmoveto
          -87 callsubr
          endchar
        </CharString>
        <CharString name="Etalenisgrave">
          704 234 1671 rmoveto
          126 callsubr
          443 -159 rmoveto
          -65 callsubr
          64 -56 rmoveto
          -87 callsubr
          endchar
        </CharString>
        <CharString name="Etalenistilde">
          489 263 1684 rmoveto
          -6 callsubr
          -29 -13 rmoveto
          126 callsubr
          292 -215 rmoveto
          -87 callsubr
          endchar
        </CharString>
        <CharString name="Etatonos">
          182 219 1456 rmoveto
          -87 callsubr
          -350 -4 rmoveto
          37 callsubr
          endchar
        </CharString>
        <CharString name="Eth">
          264 326 662 rmoveto
          -662 155 vlineto
          226 hlineto
          360 244 319 407 hvcurveto
          0 70 -7 68 -13 64 -65 307 -216 221 -303 0 rrcurveto
          -381 -653 -182 -141 hlineto
          339 hmoveto
          300 141 -300 509 224 hlineto
          211 0 165 -160 53 -249 12 -55 6 -59 0 -63 rrcurveto
          -347 -190 -236 -257 vhcurveto
          -224 hlineto
          endchar
        </CharString>
        <CharString name="Euro">
          -25 270 762 rmoveto
          -1 -17 -1 -17 0 -17 0 -22 1 -22 2 -22 rrcurveto
          -136 -135 159 hlineto
          47 -169 111 -130 185 0 190 0 62 72 67 77 rrcurveto
          -96 97 rlineto
          -86 -95 -51 -16 -86 0 -60 0 -80 57 -47 107 rrcurveto
          265 135 -300 hlineto
          -2 20 -1 20 0 22 0 17 1 19 2 19 rrcurveto
          306 135 -270 hlineto
          38 91 63 73 85 0 119 0 43 -37 57 -57 0 0 59 58 37 38 -94 92 -61 41 -160 0 -172 0 -121 -127 -50 -172 rrcurveto
          -153 -135 hlineto
          endchar
        </CharString>
        <CharString name="F">
          32 121 1456 rmoveto
          -89 callsubr
          endchar
        </CharString>
        <CharString name="Fdotaccent">
          32 502 1683 rmoveto
          -27 callsubr
          -381 -227 rmoveto
          -89 callsubr
          endchar
        </CharString>
        <CharString name="G">
          249 700 -29 rmoveto
          -88 callsubr
          endchar
        </CharString>
        <CharString name="Gamma">
          -15 121 1456 rmoveto
          43 callsubr
          endchar
        </CharString>
        <CharString name="Gbreve">
          249 662 1648 rmoveto
          -11 callsubr
          38 -1677 rmoveto
          -88 callsubr
          endchar
        </CharString>
        <CharString name="Gcircumflex">
          249 1046 1514 rmoveto
          -66 callsubr
          -158 -1543 rmoveto
          -88 callsubr
          endchar
        </CharString>
        <CharString name="Gcommaaccent">
          249 786 -134 rmoveto
          -103 callsubr
          -86 105 rmoveto
          -88 callsubr
          endchar
        </CharString>
        <CharString name="Gdotaccent">
          249 607 1683 rmoveto
          -27 callsubr
          93 -1712 rmoveto
          -88 callsubr
          endchar
        </CharString>
        <CharString name="Ghemiddlehookcyrillic">
          -16 526 -315 rmoveto
          -2 -74 -1 -45 -1 -15 rrcurveto
          4 hlineto
          42 0 48 9 55 20 44 16 42 28 43 40 49 46 31 45 13 45 23 85 12 64 0 42 rrcurveto
          0 9 -1 1 0 540 rlineto
          0 96 -9 85 -18 72 -18 72 -27 58 -33 45 -33 45 -39 33 -44 22 -44 22 -50 11 -55 0 -76 0 -65 -20 -54 -40 -54 -40 -37 -51 -19 -59 rrcurveto
          -2 423 756 0 0 141 -914 0 0 -1456 8 0 150 0 2 0 0 540 rlineto
          0 59 6 54 10 50 10 50 15 45 21 40 21 40 29 30 34 23 34 23 40 11 45 0 45 0 40 -11 34 -22 34 -22 27 -31 20 -39 rrcurveto
          20 -39 15 -45 10 -50 10 -50 4 -55 0 -60 rrcurveto
          0 -541 0 -33 rlineto
          0 -89 -24 -70 -49 -49 -49 -49 -59 -25 -69 0 rrcurveto
          endchar
        </CharString>
        <CharString name="Ghestrokecyrillic">
          -16 92 1456 rmoveto
          43 callsubr
          endchar
        </CharString>
        <CharString name="Gheupturncyrillic">
          -16 1015 1456 rmoveto
          37 callsubr
          -931 -256 rmoveto
          43 callsubr
          endchar
        </CharString>
        <CharString name="H">
          84 121 1456 rmoveto
          -87 callsubr
          endchar
        </CharString>
        <CharString name="Haabkhasiancyrillic">
          106 1167 293 rmoveto
          65 callsubr
          endchar
        </CharString>
        <CharString name="Hadescendercyrillic">
          100 74 1456 rmoveto
          -69 callsubr
          endchar
        </CharString>
        <CharString name="Hbar">
          84 121 1456 rmoveto
          -385 -79 -102 79 -969 158 674 661 -674 158 969 56 102 -56 385 vlineto
          -158 -385 -661 385 hlineto
          661 -487 rmoveto
          -154 -661 154 vlineto
          endchar
        </CharString>
        <CharString name="Hcircumflex">
          84 953 1514 rmoveto
          -66 callsubr
          -644 -58 rmoveto
          -87 callsubr
          endchar
        </CharString>
        <CharString name="I">
          -670 154 hmoveto
          -86 callsubr
          endchar
        </CharString>
        <CharString name="IJ">
          239 1241 1464 rmoveto
          -152 -931 hlineto
          0 -59 -5 -54 -10 -50 -10 -50 -17 -44 -21 -40 -21 -40 -27 -31 -34 -23 -34 -23 -41 -11 -45 0 -45 0 -40 11 -34 22 -34 22 -27 31 -20 39 rrcurveto
          -20 39 -14 45 -10 50 -10 50 -5 55 0 60 rrcurveto
          11 -151 -11 vlineto
          0 -101 10 -83 18 -68 20 -75 26 -59 31 -42 33 -45 40 -33 44 -22 44 -22 49 -11 55 0 76 0 61 14 47 29 47 29 40 34 34 40 rrcurveto
          101 119 51 142 0 165 rrcurveto
          -1087 -543 rmoveto
          -86 callsubr
          endchar
        </CharString>
        <CharString name="Iacute">
          -674 164 hmoveto
          -86 callsubr
          16 220 rmoveto
          -21 callsubr
          endchar
        </CharString>
        <CharString name="Ibreve">
          -670 233 1648 rmoveto
          -11 callsubr
          -79 -1648 rmoveto
          -86 callsubr
          endchar
        </CharString>
        <CharString name="Icircumflex">
          -674 585 1550 rmoveto
          -66 callsubr
          -233 -1550 rmoveto
          -86 callsubr
          endchar
        </CharString>
        <CharString name="Idieresis">
          -674 381 1686 rmoveto
          -28 callsubr
          -471 -2 rmoveto
          -27 callsubr
          254 -1684 rmoveto
          -86 callsubr
          endchar
        </CharString>
        <CharString name="Idieresiscyrillic">
          157 789 1685 rmoveto
          -28 callsubr
          -471 -2 rmoveto
          -27 callsubr
          -197 -227 rmoveto
          68 callsubr
          endchar
        </CharString>
        <CharString name="Idotaccent">
          -670 135 1683 rmoveto
          -27 callsubr
          19 -1683 rmoveto
          -86 callsubr
          endchar
        </CharString>
        <CharString name="Iebrevecyrillic">
          -16 558 1648 rmoveto
          -11 callsubr
          -470 -192 rmoveto
          67 callsubr
          endchar
        </CharString>
        <CharString name="Ifraktur">
          -182 861 1456 rmoveto
          -827 -142 624 hlineto
          -71 -213 -35 -154 0 -95 2 -80 35 -84 68 -88 30 -59 16 -54 0 -47 0 -9 -1 -9 -1 -8 -13 -74 -26 -64 -39 -52 -59 -79 -72 -39 -87 0 rrcurveto
          -29 0 -28 6 -26 12 -26 12 -22 14 -18 18 -18 18 -15 17 -11 16 -11 16 -8 15 -7 14 rrcurveto
          -122 -77 rlineto
          16 -27 19 -26 21 -24 21 -24 25 -22 28 -22 28 -22 34 -17 36 -13 36 -13 38 -6 39 0 87 0 80 25 70 51 70 51 55 68 39 86 rrcurveto
          36 80 18 69 0 56 0 73 -20 66 -39 59 -66 101 -33 65 0 28 1 160 53 202 105 245 rrcurveto
          endchar
        </CharString>
        <CharString name="Igrave">
          -670 154 hmoveto
          -86 callsubr
          138 220 rmoveto
          -65 callsubr
          endchar
        </CharString>
        <CharString name="Imacron">
          -670 -118 1738 rmoveto
          -26 callsubr
          -405 -1738 rmoveto
          -86 callsubr
          endchar
        </CharString>
        <CharString name="Imacroncyrillic">
          157 121 1456 rmoveto
          68 callsubr
          endchar
        </CharString>
        <CharString name="Iogonek">
          -670 369 -190 rmoveto
          -10 callsubr
          -172 315 rmoveto
          -86 callsubr
          endchar
        </CharString>
        <CharString name="Iota">
          -670 154 hmoveto
          -86 callsubr
          endchar
        </CharString>
        <CharString name="Iotaacute">
          -384 35 1512 rmoveto
          -21 callsubr
          124 -1758 rmoveto
          -86 callsubr
          endchar
        </CharString>
        <CharString name="Iotaasper">
          -635 19 1671 rmoveto
          127 callsubr
          243 -1671 rmoveto
          -86 callsubr
          endchar
        </CharString>
        <CharString name="Iotaasperacute">
          -335 19 1671 rmoveto
          127 callsubr
          242 -159 rmoveto
          -21 callsubr
          20 -1762 rmoveto
          -86 callsubr
          endchar
        </CharString>
        <CharString name="Iotaaspergrave">
          -159 19 1671 rmoveto
          127 callsubr
          643 -159 rmoveto
          -65 callsubr
          76 -1516 rmoveto
          -86 callsubr
          endchar
        </CharString>
        <CharString name="Iotaaspertilde">
          -145 19 1671 rmoveto
          127 callsubr
          266 11 rmoveto
          -6 callsubr
          409 -1682 rmoveto
          -86 callsubr
          endchar
        </CharString>
        <CharString name="Iotabreve">
          -670 242 1645 rmoveto
          -11 callsubr
          -88 -1645 rmoveto
          -86 callsubr
          endchar
        </CharString>
        <CharString name="Iotadieresis">
          -670 154 hmoveto
          -86 callsubr
          218 229 rmoveto
          -28 callsubr
          -471 -2 rmoveto
          -27 callsubr
          endchar
        </CharString>
        <CharString name="Iotagrave">
          -334 423 1511 rmoveto
          -65 callsubr
          67 -1511 rmoveto
          -86 callsubr
          endchar
        </CharString>
        <CharString name="Iotalenis">
          -628 231 1671 rmoveto
          126 callsubr
          -1671 vmoveto
          -86 callsubr
          endchar
        </CharString>
        <CharString name="Iotalenisacute">
          -374 234 1673 rmoveto
          126 callsubr
          44 -161 rmoveto
          -21 callsubr
          -77 -1762 rmoveto
          -86 callsubr
          endchar
        </CharString>
        <CharString name="Iotalenisgrave">
          -374 234 1672 rmoveto
          126 callsubr
          450 -165 rmoveto
          -65 callsubr
          -434 -1507 rmoveto
          -86 callsubr
          endchar
        </CharString>
        <CharString name="Iotalenistilde">
          -175 261 1682 rmoveto
          -6 callsubr
          -27 -11 rmoveto
          126 callsubr
          418 -1677 rmoveto
          -86 callsubr
          endchar
        </CharString>
        <CharString name="Iotamacron">
          -670 -117 1702 rmoveto
          -26 callsubr
          -406 -1702 rmoveto
          -86 callsubr
          endchar
        </CharString>
        <CharString name="Iotatonos">
          -670 224 hmoveto
          -86 callsubr
          -193 -2 rmoveto
          37 callsubr
          endchar
        </CharString>
        <CharString name="Itilde">
          -670 -42 1811 rmoveto
          -6 callsubr
          196 -1811 rmoveto
          -86 callsubr
          endchar
        </CharString>
        <CharString name="J">
          26 113 535 rmoveto
          -85 callsubr
          endchar
        </CharString>
        <CharString name="Jcircumflex">
          26 1291 1514 rmoveto
          -66 callsubr
          -990 -979 rmoveto
          -85 callsubr
          endchar
        </CharString>
        <CharString name="K">
          125 121 1456 rmoveto
          -84 callsubr
          endchar
        </CharString>
        <CharString name="Kabashkircyrillic">
          125 121 1456 rmoveto
          -84 callsubr
          endchar
        </CharString>
        <CharString name="Kadescendercyrillic">
          125 121 1456 rmoveto
          -84 callsubr
          endchar
        </CharString>
        <CharString name="Kahookcyrillic">
          125 121 1456 rmoveto
          -84 callsubr
          endchar
        </CharString>
        <CharString name="Kappa">
          125 121 1456 rmoveto
          -84 callsubr
          endchar
        </CharString>
        <CharString name="Kastrokecyrillic">
          125 121 1456 rmoveto
          -84 callsubr
          endchar
        </CharString>
        <CharString name="Kaverticalstrokecyrillic">
          125 121 1456 rmoveto
          -84 callsubr
          endchar
        </CharString>
        <CharString name="Kcommaaccent">
          125 644 -131 rmoveto
          -103 callsubr
          -523 1587 rmoveto
          -84 callsubr
          endchar
        </CharString>
        <CharString name="L">
          -9 121 1456 rmoveto
          -83 callsubr
          endchar
        </CharString>
        <CharString name="Lacute">
          -9 135 1676 rmoveto
          -21 callsubr
          -295 -470 rmoveto
          -83 callsubr
          endchar
        </CharString>
        <CharString name="Lambda">
          131 1065 hmoveto
          164 0 -441 1456 -219 0 -446 -1456 170 0 385 1288 rlineto
          endchar
        </CharString>
        <CharString name="Lcaron">
          -9 488 1428 rmoveto
          -8 callsubr
          -367 28 rmoveto
          -83 callsubr
          endchar
        </CharString>
        <CharString name="Lcommaaccent">
          -9 648 -131 rmoveto
          -103 callsubr
          -527 1587 rmoveto
          -83 callsubr
          endchar
        </CharString>
        <CharString name="Ldot">
          -9 552 729 rmoveto
          -107 callsubr
          -431 727 rmoveto
          -83 callsubr
          endchar
        </CharString>
        <CharString name="Lslash">
          -9 17 510 rmoveto
          104 103 0 -613 923 0 0 141 -765 0 0 628 126 125 -1 208 -125 -126 0 480 -158 0 0 -640 -103 -104 rlineto
          endchar
        </CharString>
        <CharString name="M">
          448 121 hmoveto
          -82 callsubr
          endchar
        </CharString>
        <CharString name="Mdotaccent">
          448 692 1683 rmoveto
          -27 callsubr
          -571 -1683 rmoveto
          -82 callsubr
          endchar
        </CharString>
        <CharString name="Mu">
          448 121 hmoveto
          -82 callsubr
          endchar
        </CharString>
        <CharString name="N">
          157 121 hmoveto
          -81 callsubr
          endchar
        </CharString>
        <CharString name="Nacute">
          157 528 1676 rmoveto
          -21 callsubr
          -688 -1926 rmoveto
          -81 callsubr
          endchar
        </CharString>
        <CharString name="Ncaron">
          157 988 1858 rmoveto
          -9 callsubr
          -587 -1514 rmoveto
          -81 callsubr
          endchar
        </CharString>
        <CharString name="Ncommaaccent">
          157 692 -134 rmoveto
          -103 callsubr
          -571 134 rmoveto
          -81 callsubr
          endchar
        </CharString>
        <CharString name="Ntilde">
          178 362 1749 rmoveto
          -32 callsubr
          -231 -1749 rmoveto
          -81 callsubr
          endchar
        </CharString>
        <CharString name="Nu">
          157 121 hmoveto
          -81 callsubr
          endchar
        </CharString>
        <CharString name="O">
          219 1096 725 rmoveto
          -80 callsubr
          -1004 hmoveto
          -79 callsubr
          endchar
        </CharString>
        <CharString name="OE">
          448 92 725 rmoveto
          0 -74 8 -72 15 -71 15 -71 22 -67 29 -61 29 -61 36 -57 45 -52 45 -52 55 -41 66 -30 66 -30 73 -15 80 0 64 0 59 10 55 19 rrcurveto
          608 141 -460 535 417 141 -417 498 460 141 -572 hlineto
          -26 26 -71 13 -117 0 -82 0 -74 -16 -68 -33 -68 -33 -56 -43 -43 -53 -43 -53 -37 -60 -30 -69 -30 -69 -21 -68 -13 -69 -13 -69 -6 -68 0 -67 rrcurveto
          752 -573 rmoveto
          -1 hlineto
          -43 -26 -56 -13 -68 0 -57 0 -51 11 -46 21 -46 21 -40 30 -31 38 -31 38 -26 41 -20 45 -20 45 -17 49 -11 55 -15 71 -7 73 0 74 rrcurveto
          0 57 4 56 8 56 8 56 14 56 20 56 20 56 26 50 31 42 31 42 40 35 49 27 49 27 56 13 62 0 57 0 52 -10 46 -22 rrcurveto
          5 -2 4 -3 4 -2 rrcurveto
          endchar
        </CharString>
        <CharString name="Oacute">
          219 1096 725 rmoveto
          -80 callsubr
          -1004 hmoveto
          -79 callsubr
          500 951 rmoveto
          -21 callsubr
          endchar
        </CharString>
        <CharString name="Obarredcyrillic">
          219 92 725 rmoveto
          -30 callsubr
          1003 -56 rmoveto
          102 callsubr
          2 142 rmoveto
          103 callsubr
          endchar
        </CharString>
        <CharString name="Obarreddieresiscyrillic">
          219 92 725 rmoveto
          -30 callsubr
          1003 -56 rmoveto
          102 callsubr
          2 142 rmoveto
          103 callsubr
          -273 874 rmoveto
          -28 callsubr
          -471 -2 rmoveto
          -27 callsubr
          endchar
        </CharString>
        <CharString name="Obreve">
          219 662 1648 rmoveto
          -11 callsubr
          434 -923 rmoveto
          -80 callsubr
          -1004 hmoveto
          -79 callsubr
          endchar
        </CharString>
        <CharString name="Ocircumflex">
          215 1030 1563 rmoveto
          -66 callsubr
          264 -838 rmoveto
          -80 callsubr
          -1004 hmoveto
          -79 callsubr
          endchar
        </CharString>
        <CharString name="Odieresis">
          215 811 1689 rmoveto
          -28 callsubr
          -471 -2 rmoveto
          -27 callsubr
          766 -962 rmoveto
          -80 callsubr
          -1004 hmoveto
          -79 callsubr
          endchar
        </CharString>
        <CharString name="Odieresiscyrillic">
          219 1096 725 rmoveto
          -80 callsubr
          -1004 hmoveto
          -79 callsubr
          713 960 rmoveto
          -28 callsubr
          -471 -2 rmoveto
          -27 callsubr
          endchar
        </CharString>
        <CharString name="Ograve">
          219 1096 725 rmoveto
          -80 callsubr
          -1004 hmoveto
          -79 callsubr
          608 951 rmoveto
          -65 callsubr
          endchar
        </CharString>
        <CharString name="Ohungarumlaut">
          219 794 1595 rmoveto
          -1 callsubr
          -550 -314 rmoveto
          -1 callsubr
          440 -1184 rmoveto
          -80 callsubr
          -1004 hmoveto
          -79 callsubr
          endchar
        </CharString>
        <CharString name="Omacron">
          219 341 1738 rmoveto
          -26 callsubr
          78 -1013 rmoveto
          -80 callsubr
          -1004 hmoveto
          -79 callsubr
          endchar
        </CharString>
        <CharString name="Omega">
          244 288 142 rmoveto
          38 callsubr
          endchar
        </CharString>
        <CharString name="Omegaacute">
          244 35 1512 rmoveto
          -21 callsubr
          -28 -1620 rmoveto
          38 callsubr
          endchar
        </CharString>
        <CharString name="Omegaasper">
          244 19 1671 rmoveto
          127 callsubr
          269 -1529 rmoveto
          38 callsubr
          endchar
        </CharString>
        <CharString name="Omegaasperacute">
          383 267 1512 rmoveto
          -21 callsubr
          -529 -91 rmoveto
          127 callsubr
          414 -1529 rmoveto
          38 callsubr
          endchar
        </CharString>
        <CharString name="Omegaaspergrave">
          630 19 1671 rmoveto
          127 callsubr
          661 -159 rmoveto
          -65 callsubr
          -1362 vmoveto
          38 callsubr
          endchar
        </CharString>
        <CharString name="Omegaaspertilde">
          683 263 1684 rmoveto
          -6 callsubr
          -244 -13 rmoveto
          127 callsubr
          713 -1529 rmoveto
          38 callsubr
          endchar
        </CharString>
        <CharString name="Omegagrave">
          376 423 1512 rmoveto
          -65 callsubr
          -15 -1370 rmoveto
          38 callsubr
          endchar
        </CharString>
        <CharString name="Omegaiotasub">
          244 620 -348 rmoveto
          128 callsubr
          -313 337 rmoveto
          38 callsubr
          endchar
        </CharString>
        <CharString name="Omegaiotasubasper">
          244 19 1671 rmoveto
          127 callsubr
          584 -2019 rmoveto
          128 callsubr
          -296 337 rmoveto
          38 callsubr
          endchar
        </CharString>
        <CharString name="Omegaiotasubasperacute">
          436 19 1671 rmoveto
          127 callsubr
          270 -156 rmoveto
          -21 callsubr
          335 -2113 rmoveto
          128 callsubr
          -400 337 rmoveto
          38 callsubr
          endchar
        </CharString>
        <CharString name="Omegaiotasubaspergrave">
          244 603 -348 rmoveto
          128 callsubr
          172 1870 rmoveto
          -65 callsubr
          -468 -1533 rmoveto
          38 callsubr
          endchar
        </CharString>
        <CharString name="Omegaiotasubaspertilde">
          699 309 1683 rmoveto
          -6 callsubr
          687 -2031 rmoveto
          128 callsubr
          -309 337 rmoveto
          38 callsubr
          endchar
        </CharString>
        <CharString name="Omegaiotasublenis">
          244 234 1671 rmoveto
          126 callsubr
          369 -2019 rmoveto
          128 callsubr
          -296 337 rmoveto
          38 callsubr
          endchar
        </CharString>
        <CharString name="Omegaiotasublenisacute">
          438 264 1512 rmoveto
          -21 callsubr
          -311 -91 rmoveto
          126 callsubr
          369 -2019 rmoveto
          128 callsubr
          -96 337 rmoveto
          38 callsubr
          endchar
        </CharString>
        <CharString name="Omegaiotasublenisgrave">
          715 234 1671 rmoveto
          126 callsubr
          783 -2019 rmoveto
          128 callsubr
          -330 1707 rmoveto
          -65 callsubr
          16 -1370 rmoveto
          38 callsubr
          endchar
        </CharString>
        <CharString name="Omegaiotasublenistilde">
          699 295 1684 rmoveto
          -6 callsubr
          -61 -13 rmoveto
          126 callsubr
          769 -2019 rmoveto
          128 callsubr
          -316 337 rmoveto
          38 callsubr
          endchar
        </CharString>
        <CharString name="Omegalenis">
          244 234 1671 rmoveto
          126 callsubr
          54 -1529 rmoveto
          38 callsubr
          endchar
        </CharString>
        <CharString name="Omegalenisacute">
          458 288 1512 rmoveto
          -21 callsubr
          -335 -91 rmoveto
          126 callsubr
          274 -1529 rmoveto
          38 callsubr
          endchar
        </CharString>
        <CharString name="Omegalenisgrave">
          622 234 1671 rmoveto
          126 callsubr
          458 -159 rmoveto
          -65 callsubr
          -20 -1370 rmoveto
          38 callsubr
          endchar
        </CharString>
        <CharString name="Omegalenistilde">
          662 263 1684 rmoveto
          -6 callsubr
          -29 -13 rmoveto
          126 callsubr
          478 -1529 rmoveto
          38 callsubr
          endchar
        </CharString>
        <CharString name="Omegatonos">
          244 84 1454 rmoveto
          37 callsubr
          196 -1568 rmoveto
          38 callsubr
          endchar
        </CharString>
        <CharString name="Omicron">
          219 1096 725 rmoveto
          -31 callsubr
          -1004 hmoveto
          -30 callsubr
          endchar
        </CharString>
        <CharString name="Omicronacute">
          219 35 1511 rmoveto
          -21 callsubr
          780 -1036 rmoveto
          -31 callsubr
          -1004 hmoveto
          -30 callsubr
          endchar
        </CharString>
        <CharString name="Omicronasper">
          219 19 1671 rmoveto
          127 callsubr
          1077 -946 rmoveto
          -31 callsubr
          -1004 hmoveto
          -30 callsubr
          endchar
        </CharString>
        <CharString name="Omicronasperacute">
          452 19 1671 rmoveto
          127 callsubr
          276 -158 rmoveto
          -21 callsubr
          724 -1038 rmoveto
          -31 callsubr
          -1004 hmoveto
          -30 callsubr
          endchar
        </CharString>
        <CharString name="Omicronaspergrave">
          620 19 1671 rmoveto
          127 callsubr
          656 -159 rmoveto
          -65 callsubr
          797 -787 rmoveto
          -31 callsubr
          -1004 hmoveto
          -30 callsubr
          endchar
        </CharString>
        <CharString name="Omicrongrave">
          324 423 1512 rmoveto
          -65 callsubr
          809 -787 rmoveto
          -31 callsubr
          -1004 hmoveto
          -30 callsubr
          endchar
        </CharString>
        <CharString name="Omicronlenis">
          219 309 1671 rmoveto
          126 callsubr
          787 -946 rmoveto
          -31 callsubr
          -1004 hmoveto
          -30 callsubr
          endchar
        </CharString>
        <CharString name="Omicronlenisacute">
          509 315 1671 rmoveto
          126 callsubr
          53 -159 rmoveto
          -21 callsubr
          708 -1037 rmoveto
          -31 callsubr
          -1004 hmoveto
          -30 callsubr
          endchar
        </CharString>
        <CharString name="Omicronlenisgrave">
          664 315 1671 rmoveto
          126 callsubr
          446 -159 rmoveto
          -65 callsubr
          751 -787 rmoveto
          -31 callsubr
          -1004 hmoveto
          -30 callsubr
          endchar
        </CharString>
        <CharString name="Omicrontonos">
          219 1096 725 rmoveto
          -31 callsubr
          -1004 hmoveto
          -30 callsubr
          -34 729 rmoveto
          37 callsubr
          endchar
        </CharString>
        <CharString name="Oslash">
          171 400 41 rmoveto
          70 -44 85 -26 100 0 410 0 149 431 0 316 0 71 -7 77 -17 77 -31 150 -65 149 -106 103 rrcurveto
          69 151 -152 0 -31 -69 rlineto
          -62 32 -73 18 -84 0 -411 0 -148 -443 0 -316 0 -69 8 -75 16 -74 28 -134 55 -133 88 -99 rrcurveto
          -74 -163 152 0 rlineto
          89 199 rmoveto
          468 1037 rlineto
          57 -72 36 -93 21 -97 16 -77 7 -78 0 -72 0 -266 -100 -341 -308 0 -78 0 -65 22 -54 37 rrcurveto
          -102 109 rmoveto
          -42 63 -27 77 -17 79 -16 73 -6 76 0 71 0 266 98 354 309 0 62 0 53 -14 46 -24 rrcurveto
          endchar
        </CharString>
        <CharString name="Otilde">
          215 370 1770 rmoveto
          -32 callsubr
          736 -1045 rmoveto
          -80 callsubr
          -1004 hmoveto
          -79 callsubr
          endchar
        </CharString>
        <CharString name="P">
          -15 279 774 rmoveto
          -78 callsubr
          -364 682 rmoveto
          -77 callsubr
          endchar
        </CharString>
        <CharString name="Pdotaccent">
          -15 439 1683 rmoveto
          -27 callsubr
          -160 -909 rmoveto
          -78 callsubr
          -364 682 rmoveto
          -77 callsubr
          endchar
        </CharString>
        <CharString name="Pemiddlehookcyrillic">
          84 121 1456 rmoveto
          73 callsubr
          endchar
        </CharString>
        <CharString name="Phi">
          448 685 1313 rmoveto
          48 callsubr
          -1196 vmoveto
          49 callsubr
          179 hmoveto
          50 callsubr
          endchar
        </CharString>
        <CharString name="Pi">
          84 110 1456 rmoveto
          45 callsubr
          endchar
        </CharString>
        <CharString name="Psi">
          280 278 1466 rmoveto
          -166 hlineto
          0 -74 8 -72 15 -71 15 -71 22 -67 29 -61 29 -61 36 -57 45 -52 45 -52 55 -41 66 -30 45 -20 48 -14 52 -6 rrcurveto
          -717 143 716 vlineto
          55 7 52 14 48 23 68 32 56 42 44 51 44 51 36 60 30 67 30 67 21 68 13 67 13 67 7 67 0 67 rrcurveto
          -166 hlineto
          0 -57 -4 -55 -8 -55 -8 -55 -15 -54 -21 -55 -21 -55 -25 -47 -31 -41 -31 -41 -40 -33 -49 -26 -30 -16 -33 -10 -35 -6 rrcurveto
          594 -143 -593 vlineto
          -28 5 -27 8 -25 12 -46 21 -40 29 -31 38 -31 38 -26 41 -20 45 -20 45 -17 50 -11 55 -15 71 -7 73 0 74 rrcurveto
          endchar
        </CharString>
        <CharString name="Q">
          256 1104 725 rmoveto
          0 -197 -33 -133 -70 -98 rrcurveto
          -198 149 -88 -116 188 -142 rlineto
          -47 -47 -96 -28 -68 0 -253 0 -116 199 -43 204 -16 73 -6 72 0 64 0 322 139 307 277 0 238 0 123 -191 47 -218 15 -72 7 -76 0 -72 rrcurveto
          -1012 hmoveto
          0 -69 7 -74 16 -73 58 -272 172 -266 343 0 162 0 92 58 84 67 rrcurveto
          172 -127 90 117 -166 121 rlineto
          78 102 70 197 0 219 0 69 -8 75 -16 74 -58 275 -173 277 -339 0 -420 0 -164 -448 0 -322 rrcurveto
          endchar
        </CharString>
        <CharString name="R">
          -13 279 774 rmoveto
          -76 callsubr
          438 -774 rmoveto
          -75 callsubr
          endchar
        </CharString>
        <CharString name="Racute">
          -13 362 1676 rmoveto
          -21 callsubr
          -364 -1152 rmoveto
          -76 callsubr
          438 -774 rmoveto
          -75 callsubr
          endchar
        </CharString>
        <CharString name="Rcaron">
          -13 872 1858 rmoveto
          -9 callsubr
          -313 -740 rmoveto
          -76 callsubr
          438 -774 rmoveto
          -75 callsubr
          endchar
        </CharString>
        <CharString name="Rcommaaccent">
          -13 628 -134 rmoveto
          -103 callsubr
          -349 908 rmoveto
          -76 callsubr
          438 -774 rmoveto
          -75 callsubr
          endchar
        </CharString>
        <CharString name="Rfraktur">
          -13 279 774 rmoveto
          541 206 vlineto
          133 0 97 -24 62 -48 62 -48 31 -65 0 -83 0 -27 -2 -25 -6 -23 -6 -23 -11 -25 -17 -25 -17 -25 -22 -22 -27 -18 -27 -18 -38 -14 -47 -11 rrcurveto
          -47 -11 -55 -6 -63 0 rrcurveto
          438 -774 rmoveto
          181 0 -434 648 rlineto
          111 20 88 47 66 73 66 73 33 87 0 99 0 128 -52 101 -102 72 -102 72 -132 36 -161 0 rrcurveto
          -206 0 -158 0 0 -1456 158 0 0 631 215 0 rlineto
          endchar
        </CharString>
        <CharString name="Rho">
          -15 279 774 rmoveto
          46 callsubr
          -364 682 rmoveto
          47 callsubr
          endchar
        </CharString>
        <CharString name="Rhoasper">
          120 19 1671 rmoveto
          127 callsubr
          395 -897 rmoveto
          46 callsubr
          -364 682 rmoveto
          47 callsubr
          endchar
        </CharString>
        <CharString name="S">
          -35 45 327 rmoveto
          -74 callsubr
          endchar
        </CharString>
        <CharString name="Sacute">
          -35 440 1676 rmoveto
          -21 callsubr
          -676 -1599 rmoveto
          -74 callsubr
          endchar
        </CharString>
        <CharString name="Scaron">
          -35 872 1858 rmoveto
          -9 callsubr
          -547 -1187 rmoveto
          -74 callsubr
          endchar
        </CharString>
        <CharString name="Scedilla">
          -35 45 327 rmoveto
          39 -107 60 -86 82 -65 82 -65 104 -33 127 0 93 0 83 14 73 28 73 28 59 44 46 61 46 61 22 74 0 87 0 37 -5 36 -9 34 rrcurveto
          -9 34 -11 30 -14 26 -14 26 -18 25 -22 24 -22 24 -21 21 -21 17 -21 17 -25 17 -28 16 -28 16 -25 14 -21 10 -21 10 -24 11 -27 11 rrcurveto
          -17 7 -21 8 -28 11 -28 11 -23 9 -17 7 -17 7 -21 9 -24 11 -24 11 -19 9 -15 10 -15 10 -15 12 -17 14 -17 14 -13 16 -9 15 rrcurveto
          -9 15 -8 18 -6 21 -6 21 -3 22 0 24 0 63 25 52 49 41 49 41 63 21 77 0 75 0 65 -18 56 -38 56 -38 36 -43 15 -48 rrcurveto
          152 25 rlineto
          -27 87 -54 72 -81 57 -81 57 -97 28 -115 0 -121 0 -101 -32 -81 -65 -81 -65 -41 -88 0 -109 0 -34 3 -32 7 -30 7 -30 10 -26 11 -22 rrcurveto
          11 -22 14 -22 18 -20 18 -20 17 -18 17 -14 17 -14 20 -12 24 -14 24 -14 20 -12 18 -8 18 -8 21 -9 25 -10 9 -4 19 -7 28 -11 rrcurveto
          28 -11 22 -8 18 -8 18 -8 25 -11 30 -14 30 -14 25 -14 20 -13 20 -13 22 -16 24 -19 24 -19 19 -19 15 -19 15 -19 11 -23 10 -25 rrcurveto
          10 -25 5 -27 0 -27 0 -76 -34 -62 -67 -48 -67 -48 -80 -24 -94 0 -77 0 -69 26 -63 53 -63 53 -38 55 -14 58 rrcurveto
          170 -652 rmoveto
          43 -125 rlineto
          7 4 15 9 25 15 25 15 19 12 14 10 14 10 16 14 19 16 19 16 14 17 9 19 9 19 4 20 0 21 0 9 -1 13 -3 16 rrcurveto
          -11 48 -26 45 -43 41 rrcurveto
          -129 -56 rlineto
          13 -17 12 -17 10 -15 10 -15 6 -14 2 -11 1 -7 1 -5 0 -3 0 -9 -3 -9 -6 -10 -6 -10 -9 -10 -13 -11 -13 -11 -9 -8 -6 -4 rrcurveto
          -6 -4 -10 -8 -13 -10 rrcurveto
          endchar
        </CharString>
        <CharString name="Schwacyrillic">
          106 981 591 rmoveto
          100 callsubr
          -174 141 rmoveto
          101 callsubr
          endchar
        </CharString>
        <CharString name="Schwadieresiscyrillic">
          106 712 1685 rmoveto
          -28 callsubr
          -471 -2 rmoveto
          -27 callsubr
          740 -1092 rmoveto
          100 callsubr
          -174 141 rmoveto
          101 callsubr
          endchar
        </CharString>
        <CharString name="Scircumflex">
          -35 874 1514 rmoveto
          -66 callsubr
          -641 -1187 rmoveto
          -74 callsubr
          endchar
        </CharString>
        <CharString name="Scommaaccent">
          -35 431 -191 rmoveto
          3 callsubr
          -386 518 rmoveto
          -74 callsubr
          endchar
        </CharString>
        <CharString name="Sdotaccent">
          -35 487 1683 rmoveto
          -27 callsubr
          -442 -1356 rmoveto
          -74 callsubr
          endchar
        </CharString>
        <CharString name="Shhacyrillic">
          281 hmoveto
          540 vlineto
          0 59 5 54 10 50 10 50 17 45 21 40 21 40 27 30 34 23 34 23 41 11 45 0 45 0 40 -11 34 -22 34 -22 27 -31 20 -39 rrcurveto
          20 -39 14 -45 10 -50 10 -50 5 -55 0 -60 rrcurveto
          -541 151 541 vlineto
          0 96 -10 85 -18 72 -18 72 -26 58 -33 45 -33 45 -40 33 -44 22 -44 22 -49 11 -55 0 -76 0 -66 -20 -54 -40 -54 -40 -36 -51 -19 -59 rrcurveto
          887 -152 -1779 vlineto
          endchar
        </CharString>
        <CharString name="Sigma">
          84 110 1456 rmoveto
          0 -151 511 -573 -511 -581 0 -151 977 0 0 151 -778 0 509 583 -508 571 778 0 0 151 rlineto
          endchar
        </CharString>
        <CharString name="T">
          129 88 1456 rmoveto
          -73 callsubr
          endchar
        </CharString>
        <CharString name="Tau">
          129 88 1456 rmoveto
          -73 callsubr
          endchar
        </CharString>
        <CharString name="Tbar">
          129 88 1456 rmoveto
          -141 477 -603 -324 -142 324 -570 158 570 345 142 -345 603 457 141 vlineto
          endchar
        </CharString>
        <CharString name="Tcaron">
          129 992 1858 rmoveto
          -9 callsubr
          -624 -58 rmoveto
          -73 callsubr
          endchar
        </CharString>
        <CharString name="Tcommaaccent">
          129 509 -191 rmoveto
          3 callsubr
          -421 1647 rmoveto
          -73 callsubr
          endchar
        </CharString>
        <CharString name="Tdotaccent">
          129 548 1683 rmoveto
          -27 callsubr
          -460 -227 rmoveto
          -73 callsubr
          endchar
        </CharString>
        <CharString name="Tedescendercyrillic">
          129 88 1456 rmoveto
          -73 callsubr
          endchar
        </CharString>
        <CharString name="Tetsecyrillic">
          336 1340 142 rmoveto
          74 callsubr
          endchar
        </CharString>
        <CharString name="Theta">
          219 1096 725 rmoveto
          -31 callsubr
          -1004 hmoveto
          -30 callsubr
          298 80 rmoveto
          -142 552 142 vlineto
          endchar
        </CharString>
        <CharString name="Thorn">
          215 303 477 rmoveto
          533 vlineto
          205 0 316 -23 41 -193 3 -14 2 -15 0 -15 rrcurveto
          -220 -297 -53 -270 vhcurveto
          -158 979 rmoveto
          -1456 158 337 vlineto
          368 356 70 343 hvcurveto
          0 28 -3 26 -5 24 -54 253 -320 69 -342 0 rrcurveto
          306 vlineto
          endchar
        </CharString>
        <CharString name="U">
          151 1004 1456 rmoveto
          -72 callsubr
          endchar
        </CharString>
        <CharString name="Uacute">
          151 1004 1456 rmoveto
          -72 callsubr
          -613 220 rmoveto
          -21 callsubr
          endchar
        </CharString>
        <CharString name="Ubreve">
          151 662 1648 rmoveto
          -11 callsubr
          342 -192 rmoveto
          -72 callsubr
          endchar
        </CharString>
        <CharString name="Ucircumflex">
          184 985 1567 rmoveto
          -66 callsubr
          217 -111 rmoveto
          -72 callsubr
          endchar
        </CharString>
        <CharString name="Udieresis">
          184 789 1689 rmoveto
          -28 callsubr
          -471 -2 rmoveto
          -27 callsubr
          696 -231 rmoveto
          -72 callsubr
          endchar
        </CharString>
        <CharString name="Udieresiscyrillic">
          157 864 1685 rmoveto
          -28 callsubr
          -471 -2 rmoveto
          -27 callsubr
          -195 -227 rmoveto
          69 callsubr
          endchar
        </CharString>
        <CharString name="Ugrave">
          151 1004 1456 rmoveto
          -72 callsubr
          -457 220 rmoveto
          -65 callsubr
          endchar
        </CharString>
        <CharString name="Uhungarumlaut">
          151 794 1595 rmoveto
          -1 callsubr
          -550 -314 rmoveto
          -1 callsubr
          348 -453 rmoveto
          -72 callsubr
          endchar
        </CharString>
        <CharString name="Uhungarumlautcyrillic">
          157 794 1595 rmoveto
          -1 callsubr
          -550 -314 rmoveto
          -1 callsubr
          -458 -453 rmoveto
          69 callsubr
          endchar
        </CharString>
        <CharString name="Umacron">
          151 304 1730 rmoveto
          -26 callsubr
          23 -274 rmoveto
          -72 callsubr
          endchar
        </CharString>
        <CharString name="Umacroncyrillic">
          157 198 1456 rmoveto
          69 callsubr
          endchar
        </CharString>
        <CharString name="Uogonek">
          151 873 -190 rmoveto
          -10 callsubr
          174 1771 rmoveto
          -72 callsubr
          endchar
        </CharString>
        <CharString name="Upsilon">
          65 66 1456 rmoveto
          -68 callsubr
          endchar
        </CharString>
        <CharString name="Upsilon1">
          358 1160 1298 rmoveto
          63 callsubr
          endchar
        </CharString>
        <CharString name="Upsilonacute">
          272 35 1512 rmoveto
          -21 callsubr
          -78 -311 rmoveto
          -68 callsubr
          endchar
        </CharString>
        <CharString name="Upsilonasper">
          268 19 1671 rmoveto
          127 callsubr
          215 -215 rmoveto
          -68 callsubr
          endchar
        </CharString>
        <CharString name="Upsilonasperacute">
          616 19 1671 rmoveto
          127 callsubr
          298 -160 rmoveto
          -21 callsubr
          -16 -305 rmoveto
          -68 callsubr
          endchar
        </CharString>
        <CharString name="Upsilonaspergrave">
          764 19 1671 rmoveto
          127 callsubr
          658 -158 rmoveto
          -65 callsubr
          53 -57 rmoveto
          -68 callsubr
          endchar
        </CharString>
        <CharString name="Upsilonaspertilde">
          595 19 1671 rmoveto
          127 callsubr
          257 12 rmoveto
          -6 callsubr
          335 -227 rmoveto
          -68 callsubr
          endchar
        </CharString>
        <CharString name="Upsilonbreve">
          65 593 1648 rmoveto
          -11 callsubr
          -527 -192 rmoveto
          -68 callsubr
          endchar
        </CharString>
        <CharString name="Upsilondieresis">
          65 66 1456 rmoveto
          -68 callsubr
          495 229 rmoveto
          -28 callsubr
          -471 -2 rmoveto
          -27 callsubr
          endchar
        </CharString>
        <CharString name="Upsilongrave">
          492 423 1512 rmoveto
          -65 callsubr
          35 -56 rmoveto
          -68 callsubr
          endchar
        </CharString>
        <CharString name="Upsilonhooktonos">
          506 54 1452 rmoveto
          37 callsubr
          1210 -410 rmoveto
          63 callsubr
          endchar
        </CharString>
        <CharString name="Upsilonmacron">
          65 249 1702 rmoveto
          -26 callsubr
          -860 -246 rmoveto
          -68 callsubr
          endchar
        </CharString>
        <CharString name="Upsilontonos">
          259 41 1454 rmoveto
          37 callsubr
          176 -254 rmoveto
          -68 callsubr
          endchar
        </CharString>
        <CharString name="Uring">
          151 520 1718 rmoveto
          4 callsubr
          -106 -3 rmoveto
          5 callsubr
          590 -259 rmoveto
          -72 callsubr
          endchar
        </CharString>
        <CharString name="Ustraightcyrillic">
          65 66 1456 rmoveto
          -68 callsubr
          endchar
        </CharString>
        <CharString name="Ustraightstrokecyrillic">
          65 66 1456 rmoveto
          -68 callsubr
          endchar
        </CharString>
        <CharString name="Utilde">
          151 324 1766 rmoveto
          -6 callsubr
          680 -310 rmoveto
          -72 callsubr
          endchar
        </CharString>
        <CharString name="V">
          131 1022 1456 rmoveto
          -71 callsubr
          endchar
        </CharString>
        <CharString name="W">
          462 84 1456 rmoveto
          -70 callsubr
          endchar
        </CharString>
        <CharString name="Wacute">
          462 716 1676 rmoveto
          -21 callsubr
          -913 -470 rmoveto
          -70 callsubr
          endchar
        </CharString>
        <CharString name="Wcircumflex">
          462 1136 1514 rmoveto
          -66 callsubr
          -864 -58 rmoveto
          -70 callsubr
          endchar
        </CharString>
        <CharString name="Wdieresis">
          462 947 1685 rmoveto
          -28 callsubr
          -471 -2 rmoveto
          -27 callsubr
          -392 -227 rmoveto
          -70 callsubr
          endchar
        </CharString>
        <CharString name="Wgrave">
          462 860 1676 rmoveto
          -65 callsubr
          -776 -220 rmoveto
          -70 callsubr
          endchar
        </CharString>
        <CharString name="X">
          100 74 1456 rmoveto
          -69 callsubr
          endchar
        </CharString>
        <CharString name="Xi">
          84 110 hmoveto
          977 151 -977 hlineto
          1305 vmoveto
          -151 978 151 vlineto
          -800 -673 rmoveto
          -142 622 142 vlineto
          endchar
        </CharString>
        <CharString name="Y">
          65 76 1456 rmoveto
          -68 callsubr
          endchar
        </CharString>
        <CharString name="Yacute">
          65 76 1456 rmoveto
          -68 callsubr
          247 220 rmoveto
          -21 callsubr
          endchar
        </CharString>
        <CharString name="Ycircumflex">
          65 935 1514 rmoveto
          -66 callsubr
          -671 -58 rmoveto
          -68 callsubr
          endchar
        </CharString>
        <CharString name="Ydieresis">
          65 76 1456 rmoveto
          -68 callsubr
          488 229 rmoveto
          -28 callsubr
          -471 -2 rmoveto
          -27 callsubr
          endchar
        </CharString>
        <CharString name="Yerudieresiscyrillic">
          85 751 1685 rmoveto
          -28 callsubr
          -471 -2 rmoveto
          -27 callsubr
          662 -1683 rmoveto
          -86 callsubr
          -663 -774 rmoveto
          76 callsubr
          -158 -141 rmoveto
          77 callsubr
          endchar
        </CharString>
        <CharString name="Ygrave">
          65 648 1676 rmoveto
          -65 callsubr
          -572 -220 rmoveto
          -68 callsubr
          endchar
        </CharString>
        <CharString name="Z">
          211 129 1456 rmoveto
          -67 callsubr
          endchar
        </CharString>
        <CharString name="Zacute">
          211 549 1676 rmoveto
          -21 callsubr
          -701 -470 rmoveto
          -67 callsubr
          endchar
        </CharString>
        <CharString name="Zcaron">
          211 1047 1858 rmoveto
          -9 callsubr
          -638 -58 rmoveto
          -67 callsubr
          endchar
        </CharString>
        <CharString name="Zdotaccent">
          211 589 1683 rmoveto
          -27 callsubr
          -460 -227 rmoveto
          -67 callsubr
          endchar
        </CharString>
        <CharString name="Zedescendercyrillic">
          12 113 252 rmoveto
          71 callsubr
          endchar
        </CharString>
        <CharString name="Zedieresiscyrillic">
          12 691 1685 rmoveto
          -28 callsubr
          -471 -2 rmoveto
          -27 callsubr
          -107 -1431 rmoveto
          71 callsubr
          endchar
        </CharString>
        <CharString name="Zeta">
          211 129 1456 rmoveto
          -67 callsubr
          endchar
        </CharString>
        <CharString name="Zhebrevecyrillic">
          352 741 1648 rmoveto
          -11 callsubr
          -487 -1648 rmoveto
          70 callsubr
          endchar
        </CharString>
        <CharString name="Zhedescendercyrillic">
          352 254 hmoveto
          70 callsubr
          endchar
        </CharString>
        <CharString name="Zhedieresiscyrillic">
          352 871 1685 rmoveto
          -28 callsubr
          -471 -2 rmoveto
          -27 callsubr
          -146 -1683 rmoveto
          70 callsubr
          endchar
        </CharString>
        <CharString name="a">
          -121 489 582 rmoveto
          -64 callsubr
          -32 135 rmoveto
          -63 callsubr
          endchar
        </CharString>
        <CharString name="aacute">
          -118 489 582 rmoveto
          -64 callsubr
          -32 135 rmoveto
          -63 callsubr
          -46 612 rmoveto
          -21 callsubr
          endchar
        </CharString>
        <CharString name="aacutealt">
          -121 470 1327 rmoveto
          -21 callsubr
          -551 -1488 rmoveto
          8 callsubr
          31 572 rmoveto
          9 callsubr
          endchar
        </CharString>
        <CharString name="aalt">
          -121 200 89 rmoveto
          8 callsubr
          31 572 rmoveto
          9 callsubr
          endchar
        </CharString>
        <CharString name="abreve">
          -118 512 1301 rmoveto
          -11 callsubr
          -23 -719 rmoveto
          -64 callsubr
          -32 135 rmoveto
          -63 callsubr
          endchar
        </CharString>
        <CharString name="abrevealt">
          -121 504 1246 rmoveto
          -11 callsubr
          -304 -1157 rmoveto
          8 callsubr
          31 572 rmoveto
          9 callsubr
          endchar
        </CharString>
        <CharString name="abrevecyrillic">
          -121 505 1301 rmoveto
          -11 callsubr
          5 -719 rmoveto
          81 callsubr
          -32 135 rmoveto
          82 callsubr
          endchar
        </CharString>
        <CharString name="acircumflex">
          -78 835 1139 rmoveto
          -66 callsubr
          -148 -557 rmoveto
          -64 callsubr
          -32 135 rmoveto
          -63 callsubr
          endchar
        </CharString>
        <CharString name="acircumflexalt">
          -121 830 1170 rmoveto
          -66 callsubr
          -442 -1081 rmoveto
          8 callsubr
          31 572 rmoveto
          9 callsubr
          endchar
        </CharString>
        <CharString name="acute">
          -564 76 1676 rmoveto
          -21 callsubr
          endchar
        </CharString>
        <CharString name="acutecomb">
          -1114 -752 1525 rmoveto
          26 callsubr
          endchar
        </CharString>
        <CharString name="adieresis">
          -78 641 1317 rmoveto
          -28 callsubr
          -471 -2 rmoveto
          -27 callsubr
          329 -733 rmoveto
          -64 callsubr
          -32 135 rmoveto
          -63 callsubr
          endchar
        </CharString>
        <CharString name="adieresisalt">
          -121 645 1359 rmoveto
          -28 callsubr
          -471 -2 rmoveto
          -27 callsubr
          26 -1268 rmoveto
          8 callsubr
          31 572 rmoveto
          9 callsubr
          endchar
        </CharString>
        <CharString name="adieresiscyrillic">
          -121 510 582 rmoveto
          81 callsubr
          -32 135 rmoveto
          82 callsubr
          endchar
        </CharString>
        <CharString name="ae">
          372 436 602 rmoveto
          104 0 68 -77 22 -100 4 -23 3 -23 0 -25 0 -133 -74 -115 -127 0 -117 0 -56 71 -19 92 -6 27 -2 29 0 29 0 129 49 119 151 0 rrcurveto
          285 308 rmoveto
          -69 117 -82 63 -130 0 -143 0 -49 -54 -70 -57 0 0 48 -63 30 -39 45 45 45 32 94 0 112 0 58 -68 20 -97 7 -30 3 -33 0 -34 rrcurveto
          -3 -16 6 -27 -2 -16 -39 57 -38 47 -128 0 -205 0 -147 -168 0 -215 0 -36 4 -34 6 -33 35 -163 120 -117 187 0 193 0 37 99 53 94 rrcurveto
          70 -109 52 -84 160 0 155 0 73 84 68 133 rrcurveto
          -133 55 rlineto
          -43 -81 -25 -56 -95 0 -126 0 -55 114 -22 105 -12 57 -3 54 0 33 rrcurveto
          590 hlineto
          0 23 3 23 0 22 0 78 -6 74 -15 67 -42 201 -112 137 -200 0 -143 0 -67 -70 -70 -114 rrcurveto
          62 -306 rmoveto
          3 152 52 202 163 0 121 0 54 -100 26 -126 9 -41 6 -43 4 -44 rrcurveto
          endchar
        </CharString>
        <CharString name="afii10017">
          188 659 1214 rmoveto
          -98 callsubr
          452 -136 rmoveto
          -97 callsubr
          endchar
        </CharString>
        <CharString name="afii10018">
          -16 94 hmoveto
          158 0 206 0 rlineto
          153 0 123 29 92 59 92 59 57 78 21 99 5 30 3 28 0 27 0 58 -10 54 -22 49 -22 49 -33 45 -43 38 -43 38 -58 30 -71 22 rrcurveto
          -71 22 -81 11 -92 0 rrcurveto
          -206 490 678 141 -678 hlineto
          -158 hlineto
          158 -774 rmoveto
          206 hlineto
          257 127 -91 -182 hvcurveto
          0 -23 -2 -20 -4 -17 -6 -27 -9 -25 -15 -23 -15 -23 -21 -22 -28 -21 -28 -21 -38 -17 -48 -12 -48 -12 -57 -5 -65 0 rrcurveto
          -206 hlineto
          endchar
        </CharString>
        <CharString name="afii10019">
          -16 225 705 rmoveto
          40 callsubr
          1176 vmoveto
          41 callsubr
          -158 612 rmoveto
          42 callsubr
          endchar
        </CharString>
        <CharString name="afii10020">
          -16 92 1456 rmoveto
          43 callsubr
          endchar
        </CharString>
        <CharString name="afii10021">
          196 626 1309 rmoveto
          205 -1173 -413 hlineto
          15 4 11 10 5 18 8 27 8 38 7 50 rrcurveto
          -393 -147 rmoveto
          -350 142 213 868 -213 142 350 -242 vlineto
          -1 1313 -516 1 -152 -1198 rlineto
          -10 -77 -34 -39 -58 0 rrcurveto
          endchar
        </CharString>
        <CharString name="afii10022">
          -16 88 1456 rmoveto
          67 callsubr
          endchar
        </CharString>
        <CharString name="afii10023">
          -16 717 1685 rmoveto
          -28 callsubr
          -471 -2 rmoveto
          -27 callsubr
          -190 -227 rmoveto
          67 callsubr
          endchar
        </CharString>
        <CharString name="afii10024">
          352 254 hmoveto
          70 callsubr
          endchar
        </CharString>
        <CharString name="afii10025">
          12 113 252 rmoveto
          71 callsubr
          endchar
        </CharString>
        <CharString name="afii10026">
          157 121 1456 rmoveto
          68 callsubr
          endchar
        </CharString>
        <CharString name="afii10027">
          157 646 1690 rmoveto
          -11 callsubr
          -525 -234 rmoveto
          68 callsubr
          endchar
        </CharString>
        <CharString name="afii10028">
          125 121 1456 rmoveto
          -84 callsubr
          endchar
        </CharString>
        <CharString name="afii10029">
          30 541 1456 rmoveto
          72 callsubr
          endchar
        </CharString>
        <CharString name="afii10030">
          448 121 hmoveto
          -82 callsubr
          endchar
        </CharString>
        <CharString name="afii10031">
          84 121 1456 rmoveto
          -87 callsubr
          endchar
        </CharString>
        <CharString name="afii10032">
          219 1096 725 rmoveto
          -31 callsubr
          -1004 hmoveto
          -30 callsubr
          endchar
        </CharString>
        <CharString name="afii10033">
          84 121 1456 rmoveto
          73 callsubr
          endchar
        </CharString>
        <CharString name="afii10034">
          -15 279 774 rmoveto
          46 callsubr
          -364 682 rmoveto
          47 callsubr
          endchar
        </CharString>
        <CharString name="afii10035">
          106 1167 293 rmoveto
          65 callsubr
          endchar
        </CharString>
        <CharString name="afii10036">
          129 88 1456 rmoveto
          -73 callsubr
          endchar
        </CharString>
        <CharString name="afii10037">
          157 198 1456 rmoveto
          69 callsubr
          endchar
        </CharString>
        <CharString name="afii10038">
          448 685 1313 rmoveto
          48 callsubr
          -1196 vmoveto
          49 callsubr
          179 hmoveto
          50 callsubr
          endchar
        </CharString>
        <CharString name="afii10039">
          100 74 1456 rmoveto
          -69 callsubr
          endchar
        </CharString>
        <CharString name="afii10040">
          336 1340 142 rmoveto
          74 callsubr
          endchar
        </CharString>
        <CharString name="afii10041">
          -90 774 1456 rmoveto
          75 callsubr
          endchar
        </CharString>
        <CharString name="afii10042">
          446 1460 142 rmoveto
          1314 -158 -1315 vlineto
          -432 1 0 1314 -1 0 -157 0 -1 0 0 -1315 -432 0 0 1315 -158 0 0 -1456 1339 0 rlineto
          endchar
        </CharString>
        <CharString name="afii10043">
          688 1702 142 rmoveto
          -242 1314 -158 -1315 hlineto
          -432 1 0 1314 -1 0 -157 0 -1 0 0 -1315 -432 0 0 1315 -158 0 0 -1456 1439 0 0 -208 142 0 rlineto
          endchar
        </CharString>
        <CharString name="afii10044">
          157 260 hmoveto
          158 0 206 0 rlineto
          153 0 123 29 92 59 92 59 58 78 21 99 5 30 3 28 0 27 0 58 -11 54 -22 49 -22 49 -33 45 -43 38 -43 38 -58 30 -71 22 rrcurveto
          -71 22 -81 11 -92 0 rrcurveto
          -206 631 -11 hlineto
          -367 -142 220 hlineto
          158 -632 rmoveto
          206 hlineto
          257 128 -91 -182 hvcurveto
          0 -23 -2 -20 -4 -17 -6 -27 -10 -25 -15 -23 -15 -23 -21 -22 -28 -21 -28 -21 -38 -17 -48 -12 -48 -12 -57 -5 -65 0 rrcurveto
          -206 hlineto
          endchar
        </CharString>
        <CharString name="afii10045">
          85 942 hmoveto
          -86 callsubr
          -663 -774 rmoveto
          76 callsubr
          -158 -141 rmoveto
          77 callsubr
          endchar
        </CharString>
        <CharString name="afii10046">
          -15 279 682 rmoveto
          78 callsubr
          -158 -141 rmoveto
          79 callsubr
          endchar
        </CharString>
        <CharString name="afii10047">
          106 100 293 rmoveto
          80 callsubr
          endchar
        </CharString>
        <CharString name="afii10048">
          415 125 hmoveto
          157 676 95 hlineto
          3 -54 7 -54 10 -53 14 -72 19 -66 26 -61 26 -61 33 -57 40 -52 40 -52 50 -41 59 -30 59 -30 67 -15 72 0 74 0 67 16 61 32 rrcurveto
          61 32 50 42 39 51 39 51 33 60 27 67 27 67 19 68 12 67 12 67 6 67 0 67 0 94 -8 79 -14 64 -7 56 -19 67 -33 78 rrcurveto
          -26 62 -33 57 -40 53 -40 53 -50 42 -59 31 -59 31 -66 15 -73 0 -74 0 -67 -17 -61 -33 -61 -33 -50 -42 -39 -53 -39 -53 -33 -60 -27 -69 rrcurveto
          -27 -69 -20 -68 -11 -69 -7 -42 -4 -44 -3 -45 rrcurveto
          -97 697 -157 hlineto
          1155 -782 rmoveto
          0 -57 -4 -55 -8 -55 -8 -55 -12 -54 -19 -55 -19 -55 -22 -47 -28 -41 -28 -41 -36 -33 -44 -26 -44 -26 -50 -12 -56 0 -51 0 -46 11 -42 21 rrcurveto
          -42 21 -35 29 -28 38 -28 38 -24 41 -18 45 -18 45 -15 50 -10 55 -13 71 -7 73 0 74 0 55 4 61 7 66 19 91 12 56 7 21 rrcurveto
          18 56 23 50 28 42 28 42 36 34 44 27 44 27 51 13 56 0 52 0 46 -11 41 -22 41 -22 36 -29 28 -39 28 -39 23 -42 18 -46 rrcurveto
          18 -46 15 -51 11 -55 14 -73 7 -79 0 -87 rrcurveto
          endchar
        </CharString>
        <CharString name="afii10049">
          90 946 774 rmoveto
          -206 hlineto
          -63 0 -55 6 -47 11 -47 11 -38 14 -27 18 -27 18 -22 22 -17 25 -17 25 -10 25 -6 23 -6 23 -3 25 0 27 0 83 31 65 62 48 rrcurveto
          62 48 97 24 133 0 rrcurveto
          206 hlineto
          -644 -1315 rmoveto
          429 631 215 0 0 -631 158 0 0 1456 -158 0 -206 0 rlineto
          -161 0 -133 -36 -102 -72 -102 -72 -51 -101 0 -128 0 -99 33 -87 66 -73 66 -73 88 -47 111 -20 rrcurveto
          -434 -648 rlineto
          endchar
        </CharString>
        <CharString name="afii10051">
          82 455 hmoveto
          540 vlineto
          0 59 5 54 10 50 10 50 17 45 21 40 21 40 27 30 34 23 34 23 41 11 45 0 45 0 40 -11 34 -22 34 -22 27 -31 20 -39 rrcurveto
          20 -39 14 -45 10 -50 10 -50 5 -55 0 -60 rrcurveto
          -283 vlineto
          -82 -34 -41 -68 vhcurveto
          -27 3 -22 8 -18 12 -16 12 -15 14 -107 -102 rlineto
          19 -18 14 -14 11 -8 11 -8 17 -9 24 -10 24 -10 26 -5 28 0 16 0 19 2 22 6 22 6 24 10 27 14 27 14 25 19 23 21 rrcurveto
          23 21 19 27 15 34 15 34 8 39 0 42 rrcurveto
          -1 252 rlineto
          -1 98 -9 84 -18 71 -18 72 -26 58 -33 45 -33 45 -40 33 -44 22 -44 22 -49 11 -55 0 -76 0 -66 -20 -54 -40 -54 -40 -36 -51 -19 -59 rrcurveto
          422 301 142 -738 -142 285 -1314 vlineto
          endchar
        </CharString>
        <CharString name="afii10052">
          -16 392 1676 rmoveto
          -21 callsubr
          -610 -470 rmoveto
          43 callsubr
          endchar
        </CharString>
        <CharString name="afii10053">
          64 1122 293 rmoveto
          -146 41 rlineto
          -21 -61 -42 -53 -61 -44 -61 -44 -64 -21 -71 0 -66 0 -61 17 -55 34 -55 34 -47 45 -36 57 -36 57 -28 65 -20 74 -14 50 -9 51 -4 53 rrcurveto
          599 142 -600 hlineto
          4 56 8 55 14 54 19 74 26 67 35 60 35 60 46 48 56 36 56 36 64 18 69 0 rrcurveto
          2 hlineto
          69 0 63 -18 56 -37 56 -37 39 -48 19 -61 rrcurveto
          148 41 rlineto
          -10 28 -13 27 -16 27 -16 27 -21 28 -26 27 -26 27 -29 23 -33 20 -33 20 -39 16 -45 12 -45 12 -47 7 -51 0 -79 0 -74 -14 -67 -29 rrcurveto
          -67 -29 -56 -38 -47 -49 -47 -49 -39 -57 -32 -66 -32 -66 -25 -70 -15 -74 -15 -74 -7 -76 0 -79 0 -79 7 -75 15 -73 15 -73 24 -69 32 -64 rrcurveto
          32 -64 40 -56 46 -48 46 -48 56 -37 67 -27 67 -27 74 -14 79 0 63 0 58 9 53 18 53 18 46 24 37 32 37 32 32 34 25 36 rrcurveto
          25 36 21 40 16 43 rrcurveto
          endchar
        </CharString>
        <CharString name="afii10054">
          -35 45 327 rmoveto
          -74 callsubr
          endchar
        </CharString>
        <CharString name="afii10055">
          -670 154 hmoveto
          -86 callsubr
          endchar
        </CharString>
        <CharString name="afii10056">
          -670 375 1685 rmoveto
          -28 callsubr
          -471 -2 rmoveto
          -27 callsubr
          250 -1683 rmoveto
          -86 callsubr
          endchar
        </CharString>
        <CharString name="afii10057">
          26 113 535 rmoveto
          0 -57 5 -53 11 -47 25 -120 52 -98 78 -76 78 -76 93 -37 110 0 137 0 111 53 86 106 86 106 43 135 0 164 rrcurveto
          0 779 0 142 -502 0 0 -142 344 0 0 -779 rlineto
          0 -69 -12 -65 -23 -62 -23 -62 -36 -51 -48 -42 -48 -42 -54 -21 -61 0 -74 0 -64 30 -54 60 -54 60 -36 73 -18 86 -7 35 -4 35 0 35 rrcurveto
          endchar
        </CharString>
        <CharString name="afii10058">
          484 958 hmoveto
          24 hlineto
          153 0 123 29 92 59 93 59 58 79 20 98 5 26 3 28 0 31 0 58 -11 54 -22 49 -22 49 -33 45 -43 38 -43 38 -58 30 -71 22 rrcurveto
          -71 22 -81 11 -92 0 rrcurveto
          -24 631 -432 hlineto
          -150 -1198 rlineto
          -10 -82 -34 -41 -58 0 rrcurveto
          -26 3 -22 8 -19 12 -16 12 -15 14 -107 -102 rlineto
          19 -18 14 -14 11 -8 11 -8 17 -9 24 -10 24 -10 26 -5 28 0 16 0 19 2 22 6 22 6 25 10 27 14 27 14 24 19 23 21 rrcurveto
          23 21 19 27 15 34 6 14 8 38 9 63 rrcurveto
          151 1026 121 0 0 -1315 rlineto
          158 141 rmoveto
          541 24 vlineto
          257 128 -91 -182 hvcurveto
          0 -23 -2 -20 -4 -17 -6 -27 -10 -25 -15 -23 -15 -23 -21 -22 -28 -21 -28 -21 -38 -17 -48 -12 -48 -12 -57 -5 -65 0 rrcurveto
          endchar
        </CharString>
        <CharString name="afii10059">
          184 496 hmoveto
          158 0 24 0 rlineto
          153 0 123 29 92 59 93 59 58 79 20 98 5 26 3 28 0 31 0 58 -11 54 -22 49 -22 49 -33 45 -43 38 -43 38 -58 30 -71 22 rrcurveto
          -71 22 -81 11 -92 0 rrcurveto
          -24 631 -158 -637 -265 637 -158 -1456 158 679 265 hlineto
          158 3 rmoveto
          24 hlineto
          257 128 -91 -182 hvcurveto
          0 -23 -2 -20 -4 -17 -6 -27 -10 -25 -15 -23 -15 -23 -21 -22 -28 -21 -28 -21 -38 -17 -48 -12 -48 -12 -57 -5 -65 0 rrcurveto
          -24 hlineto
          endchar
        </CharString>
        <CharString name="afii10060">
          124 455 hmoveto
          540 vlineto
          0 59 5 54 10 50 10 50 17 45 21 40 21 40 27 30 34 23 34 23 41 11 45 0 45 0 40 -11 34 -22 34 -22 27 -31 20 -39 rrcurveto
          20 -39 14 -45 10 -50 10 -50 5 -55 0 -60 rrcurveto
          -541 151 541 vlineto
          0 96 -10 85 -18 72 -18 72 -26 58 -33 45 -33 45 -40 33 -44 22 -44 22 -49 11 -55 0 -76 0 -66 -20 -54 -40 -54 -40 -36 -51 -19 -59 rrcurveto
          422 301 142 -738 -142 285 -1314 vlineto
          endchar
        </CharString>
        <CharString name="afii10061">
          125 482 1676 rmoveto
          -21 callsubr
          -642 -470 rmoveto
          -84 callsubr
          endchar
        </CharString>
        <CharString name="afii10062">
          157 859 1685 rmoveto
          -28 callsubr
          -471 -2 rmoveto
          -27 callsubr
          -190 -227 rmoveto
          69 callsubr
          endchar
        </CharString>
        <CharString name="afii10065">
          -121 510 582 rmoveto
          81 callsubr
          -32 135 rmoveto
          82 callsubr
          endchar
        </CharString>
        <CharString name="afii10066">
          -60 244 537 rmoveto
          51 callsubr
          433 775 rmoveto
          119 78 rlineto
          -34 34 -44 28 -52 22 -52 22 -56 11 -61 0 -51 0 -50 -9 -48 -20 -48 -20 -44 -28 -38 -36 -38 -36 -31 -45 -23 -55 -23 -55 -12 -61 0 -66 rrcurveto
          -1 -539 rlineto
          0 -107 17 -95 32 -84 32 -84 50 -68 67 -51 67 -51 80 -26 93 0 93 0 80 26 67 51 67 51 49 67 32 84 32 84 16 96 0 107 rrcurveto
          0 106 -17 94 -32 83 -32 83 -50 66 -67 50 -67 50 -79 25 -92 0 -70 0 -64 -14 -56 -28 -36 -18 -31 -24 -28 -27 rrcurveto
          0 75 0 33 rlineto
          0 89 26 69 53 49 53 49 62 24 69 0 61 0 57 -20 53 -39 rrcurveto
          endchar
        </CharString>
        <CharString name="afii10067">
          -194 92 hmoveto
          21 callsubr
          120 -439 rmoveto
          22 callsubr
          -216 -119 rmoveto
          23 callsubr
          endchar
        </CharString>
        <CharString name="afii10068">
          -286 734 938 rmoveto
          83 callsubr
          endchar
        </CharString>
        <CharString name="afii10069">
          117 862 136 rmoveto
          938 -408 vlineto
          -108 -816 rlineto
          -10 -76 -29 -40 -46 -6 rrcurveto
          -133 -350 142 213 692 -213 142 350 hlineto
          -650 hmoveto
          7 12 7 12 6 14 4 9 9 39 11 67 rrcurveto
          106 644 100 0 0 -797 rlineto
          endchar
        </CharString>
        <CharString name="afii10070">
          -101 257 604 rmoveto
          18 callsubr
          -522 -135 rmoveto
          84 callsubr
          endchar
        </CharString>
        <CharString name="afii10071">
          -101 661 1357 rmoveto
          -28 callsubr
          -471 -2 rmoveto
          -27 callsubr
          67 -751 rmoveto
          18 callsubr
          -522 -135 rmoveto
          84 callsubr
          endchar
        </CharString>
        <CharString name="afii10072">
          386 272 hmoveto
          85 callsubr
          endchar
        </CharString>
        <CharString name="afii10073">
          -184 97 195 rmoveto
          86 callsubr
          endchar
        </CharString>
        <CharString name="afii10074">
          122 1074 rmoveto
          87 callsubr
          endchar
        </CharString>
        <CharString name="afii10075">
          548 1324 rmoveto
          -11 callsubr
          -426 -250 rmoveto
          87 callsubr
          endchar
        </CharString>
        <CharString name="afii10076">
          -152 121 1072 rmoveto
          -2 callsubr
          endchar
        </CharString>
        <CharString name="afii10077">
          -152 454 1074 rmoveto
          88 callsubr
          endchar
        </CharString>
        <CharString name="afii10078">
          60 98 hmoveto
          89 callsubr
          endchar
        </CharString>
        <CharString name="afii10079">
          -196 102 1074 rmoveto
          24 callsubr
          endchar
        </CharString>
        <CharString name="afii10080">
          -60 90 537 rmoveto
          59 callsubr
          154 hmoveto
          51 callsubr
          endchar
        </CharString>
        <CharString name="afii10081">
          121 1074 rmoveto
          90 callsubr
          endchar
        </CharString>
        <CharString name="afii10082">
          -70 281 1073 rmoveto
          -152 -1469 152 580 hlineto
          13 -30 15 -27 15 -23 15 -23 19 -22 23 -21 23 -21 29 -17 33 -12 33 -12 38 -5 41 0 68 0 60 16 52 32 52 32 42 43 31 55 rrcurveto
          31 55 23 60 15 66 15 66 8 69 0 74 0 75 -8 70 -15 66 -15 66 -23 58 -31 54 -31 54 -41 43 -52 31 -52 31 -60 15 -67 0 rrcurveto
          -41 0 -38 -6 -33 -12 -33 -12 -29 -16 -23 -22 -23 -22 -20 -22 -16 -24 -16 -24 -14 -26 -13 -30 rrcurveto
          540 -347 rmoveto
          10 callsubr
          endchar
        </CharString>
        <CharString name="afii10083">
          -193 770 809 rmoveto
          64 callsubr
          endchar
        </CharString>
        <CharString name="afii10084">
          -125 82 1074 rmoveto
          91 callsubr
          endchar
        </CharString>
        <CharString name="afii10085">
          82 1073 rmoveto
          92 callsubr
          endchar
        </CharString>
        <CharString name="afii10086">
          214 954 873 rmoveto
          20 callsubr
          -392 -1269 rmoveto
          179 380 hlineto
          126 14 110 54 93 92 106 104 52 123 0 143 rrcurveto
          21 vlineto
          -5 151 -36 112 -67 72 -33 46 -41 41 -48 35 -60 55 -86 35 -111 14 rrcurveto
          358 -179 -356 vlineto
          -111 -15 -99 -51 -86 -86 -111 -111 -55 -133 0 -156 rrcurveto
          2 -2 rlineto
          0 -157 55 -134 109 -109 84 -84 99 -52 113 -19 rrcurveto
          988 vmoveto
          19 callsubr
          endchar
        </CharString>
        <CharString name="afii10087">
          -213 870 hmoveto
          -35 callsubr
          endchar
        </CharString>
        <CharString name="afii10088">
          174 1188 142 rmoveto
          93 callsubr
          endchar
        </CharString>
        <CharString name="afii10089">
          804 1074 rmoveto
          94 callsubr
          endchar
        </CharString>
        <CharString name="afii10090">
          419 1433 hmoveto
          1074 -160 -934 vlineto
          -415 1 0 933 -1 0 -157 0 -1 0 0 -934 -416 1 0 934 -158 0 0 -1075 rlineto
          endchar
        </CharString>
        <CharString name="afii10091">
          659 1673 141 rmoveto
          -242 933 -158 -934 hlineto
          -415 1 0 933 -1 0 -157 0 -1 0 0 -934 -416 1 0 934 -158 0 0 -1075 1406 -1 0 -208 142 0 rlineto
          endchar
        </CharString>
        <CharString name="afii10092">
          32 232 hmoveto
          158 0 140 0 rlineto
          153 0 123 29 92 59 92 59 58 78 21 99 5 24 3 28 0 33 -1 33 -15 38 -29 42 -34 51 -29 33 -23 16 -42 29 -58 26 -72 22 rrcurveto
          -71 22 -81 11 -92 0 rrcurveto
          -140 342 -378 -142 220 hlineto
          158 -343 rmoveto
          140 hlineto
          221 0 128 -60 36 -120 1 -3 0 -3 0 -5 0 -11 -2 -16 -5 -22 -6 -27 -10 -25 -15 -23 -15 -23 -21 -22 -28 -21 -28 -21 -38 -17 -48 -12 rrcurveto
          -48 -12 -57 -5 -65 0 rrcurveto
          -140 hlineto
          endchar
        </CharString>
        <CharString name="afii10093">
          116 980 1074 rmoveto
          -51 callsubr
          -1080 -1074 rmoveto
          95 callsubr
          158 -485 rmoveto
          96 callsubr
          endchar
        </CharString>
        <CharString name="afii10094">
          -70 129 -1 rmoveto
          95 callsubr
          158 -485 rmoveto
          97 callsubr
          endchar
        </CharString>
        <CharString name="afii10095">
          -193 232 809 rmoveto
          98 callsubr
          endchar
        </CharString>
        <CharString name="afii10096">
          384 97 hmoveto
          157 493 95 hlineto
          3 -40 7 -38 10 -39 14 -52 19 -48 26 -45 26 -45 33 -41 40 -38 40 -38 50 -30 59 -22 59 -22 67 -11 72 0 74 0 67 12 61 23 rrcurveto
          61 23 50 31 39 37 39 37 33 44 27 49 27 49 19 50 12 49 12 49 6 48 0 49 0 69 -8 57 -14 47 -7 41 -19 49 -33 57 rrcurveto
          -26 45 -33 42 -40 39 -40 39 -50 31 -59 22 -59 22 -66 11 -73 0 -74 0 -67 -12 -61 -24 -61 -24 -50 -32 -39 -38 -39 -38 -33 -45 -27 -50 rrcurveto
          -27 -50 -20 -50 -11 -50 -7 -31 -4 -32 -3 -33 rrcurveto
          -97 509 -157 hlineto
          1155 -571 rmoveto
          0 -41 -4 -41 -8 -40 -8 -40 -12 -39 -19 -40 -19 -40 -22 -35 -28 -30 -28 -30 -36 -23 -44 -19 -44 -19 -50 -9 -56 0 -51 0 -46 7 -42 16 rrcurveto
          -42 16 -35 22 -28 27 -28 27 -24 30 -18 33 -18 33 -15 36 -10 40 -13 52 -7 53 0 54 0 40 4 45 7 48 19 66 12 41 7 15 rrcurveto
          18 41 23 37 28 31 28 31 36 25 44 19 44 19 51 10 56 0 52 0 46 -7 41 -16 41 -16 36 -23 28 -28 28 -28 23 -30 18 -34 rrcurveto
          18 -34 15 -37 11 -40 14 -53 7 -59 0 -63 rrcurveto
          endchar
        </CharString>
        <CharString name="afii10097">
          -193 687 570 rmoveto
          -236 -118 64 128 128 118 64 236 hvcurveto
          -2 -517 rmoveto
          -437 158 1074 -158 vlineto
          -189 0 -145 -48 -100 -96 -51 -49 -26 -59 0 -67 0 -68 25 -59 51 -49 31 -31 41 -26 51 -22 rrcurveto
          -256 -500 181 0 239 454 rlineto
          65 -11 50 -6 33 0 rrcurveto
          endchar
        </CharString>
        <CharString name="afii10099">
          281 hmoveto
          540 vlineto
          0 59 5 54 10 50 10 50 17 45 21 40 21 40 27 30 34 23 34 23 41 11 45 0 45 0 40 -11 34 -22 34 -22 27 -31 20 -39 rrcurveto
          20 -39 14 -45 10 -50 10 -50 5 -55 0 -60 rrcurveto
          -1 -541 hlineto
          -138 vlineto
          -82 -34 -41 -68 vhcurveto
          -26 3 -22 8 -19 12 -16 12 -15 14 -107 -102 rlineto
          19 -18 14 -14 11 -8 11 -8 17 -9 24 -10 24 -10 26 -5 28 0 16 0 19 2 22 6 22 6 25 10 27 14 27 14 24 19 23 21 rrcurveto
          23 21 19 27 15 34 15 34 8 39 0 42 rrcurveto
          0 107 0 541 rlineto
          0 96 -10 85 -18 72 -18 72 -26 58 -33 45 -33 45 -40 33 -44 22 -44 22 -49 11 -55 0 -76 0 -66 -20 -54 -40 -54 -40 -36 -51 -19 -59 rrcurveto
          275 319 142 -319 147 -152 -147 -129 -142 129 -1167 vlineto
          endchar
        </CharString>
        <CharString name="afii10100">
          -286 382 1328 rmoveto
          -21 callsubr
          71 -640 rmoveto
          83 callsubr
          endchar
        </CharString>
        <CharString name="afii10101">
          -193 770 809 rmoveto
          131 66 rlineto
          -36 65 -46 52 -57 41 -57 41 -67 20 -76 0 -56 0 -53 -10 -49 -20 -49 -20 -43 -29 -36 -35 -36 -35 -32 -42 -27 -47 -27 -47 -20 -51 -13 -54 rrcurveto
          -13 -54 -7 -56 0 -57 0 -103 20 -96 39 -86 39 -86 55 -68 70 -51 70 -51 79 -25 87 0 39 0 39 6 36 13 36 13 32 17 28 22 rrcurveto
          28 22 26 22 21 24 21 24 19 26 16 27 rrcurveto
          -122 77 rlineto
          -7 -14 -9 -15 -11 -16 -11 -16 -14 -17 -18 -18 -18 -18 -23 -14 -26 -12 -26 -12 -27 -6 -29 0 -87 0 -72 39 -59 79 -48 64 -28 82 -9 98 rrcurveto
          385 142 -384 hlineto
          10 89 28 76 48 63 60 80 73 40 85 0 47 0 43 -17 40 -33 40 -33 26 -33 12 -33 rrcurveto
          endchar
        </CharString>
</ttFont>
